<?xml version="1.0" standalone="no"?>
<!DOCTYPE svg PUBLIC "-//W3C//DTD SVG 20010904//EN"
 "http://www.w3.org/TR/2001/REC-SVG-20010904/DTD/svg10.dtd">
<svg version="1.0" xmlns="http://www.w3.org/2000/svg"
 width="1920.000000pt" height="1080.000000pt" viewBox="0 0 1920.000000 1080.000000"
 preserveAspectRatio="xMidYMid meet">

<g transform="translate(0.000000,1080.000000) scale(0.100000,-0.100000)"
fill="#000000" stroke="none">
<path d="M0 5400 l0 -5400 9600 0 9600 0 0 5400 0 5400 -9600 0 -9600 0 0
-5400z m9600 3842 l0 -37 438 -1 c240 -1 636 -2 880 -3 l442 -1 0 -40 0 -40
440 0 440 0 0 -37 0 -38 433 -2 c237 -1 435 -2 440 -3 4 0 7 -18 7 -40 l0 -40
240 0 240 0 0 -38 0 -37 198 -1 c108 -1 252 -2 320 -3 l122 -1 0 -40 0 -40
200 0 200 0 0 -38 0 -37 155 0 c85 0 175 -1 200 -3 l45 -4 0 -39 0 -39 240 0
240 0 0 -38 0 -37 118 -1 c64 -1 136 -2 160 -3 l42 -1 0 -40 0 -40 160 0 160
0 0 -38 0 -38 68 1 c37 1 73 -1 80 -3 7 -2 12 -21 12 -43 l0 -39 120 0 120 0
0 -38 c0 -35 2 -39 28 -39 15 0 51 -1 80 -2 l52 -1 0 -40 0 -40 120 0 120 0 0
-40 0 -40 40 0 40 0 0 -40 0 -40 80 0 80 0 0 -38 c0 -35 2 -39 28 -39 15 0 51
-1 80 -2 l52 -1 0 -40 0 -40 80 0 80 0 0 -38 c0 -36 2 -39 28 -37 44 3 52 -5
52 -46 l0 -39 80 0 80 0 0 -40 0 -40 40 0 40 0 0 -40 0 -40 195 0 195 0 0 34
c0 40 12 51 55 51 l30 0 3 78 3 77 33 0 33 0 9 83 9 82 35 0 c33 0 35 2 38 38
2 24 8 37 18 37 10 0 14 12 14 40 0 36 3 40 25 40 23 0 25 4 25 46 0 27 4 43
10 39 6 -3 10 0 10 8 0 17 34 49 43 41 4 -4 9 1 13 10 3 9 10 13 15 10 5 -3
10 34 11 83 1 76 2 69 9 -52 9 -195 9 -6880 0 -6935 -5 -25 -9 -35 -10 -23 -1
13 -10 24 -23 28 -13 4 -33 16 -44 27 -12 11 -48 26 -80 34 -33 9 -68 21 -79
28 -24 16 -131 4 -178 -19 -24 -12 -38 -13 -64 -4 -33 11 -46 39 -18 39 8 0
15 9 15 19 0 11 15 30 33 42 17 13 36 29 40 37 5 7 28 22 50 33 41 18 77 39
87 49 3 3 14 10 25 16 24 13 54 70 55 105 0 16 -12 36 -31 55 -26 25 -37 29
-87 28 -80 -1 -144 -32 -214 -104 -31 -33 -76 -71 -98 -85 -22 -14 -38 -30
-35 -34 6 -11 -10 -18 -67 -26 -37 -6 -55 -2 -112 25 -74 33 -75 35 -124 96
-40 52 -40 73 -2 126 28 38 31 49 29 110 -1 37 -5 68 -9 68 -4 0 -13 21 -20
48 -7 26 -23 70 -36 97 -43 90 -56 161 -49 260 6 82 5 92 -14 117 -25 32 -84
64 -89 48 -2 -5 -10 -10 -17 -10 -21 0 -25 -48 -21 -245 5 -225 17 -324 51
-398 15 -32 33 -93 41 -137 7 -44 18 -87 23 -97 20 -38 29 -81 19 -91 -7 -7
-5 -18 6 -33 20 -29 20 -39 1 -39 -8 0 -15 6 -15 13 0 9 -3 9 -9 -1 -11 -18
-161 -6 -161 13 0 6 -18 18 -40 25 -22 7 -40 17 -40 22 0 4 -11 8 -24 8 -14 0
-27 4 -30 9 -3 4 -43 11 -88 15 -46 4 -93 9 -105 12 -14 4 -29 -2 -42 -15 -12
-12 -33 -21 -49 -21 -15 0 -36 -6 -47 -14 -20 -13 -66 -29 -95 -31 -42 -4 -82
-20 -93 -36 -19 -27 -61 -39 -128 -38 -43 1 -63 6 -72 18 -18 25 -89 77 -114
85 -18 6 -32 -1 -65 -33 -52 -50 -62 -48 -143 28 -33 31 -75 67 -92 81 -38 29
-45 80 -15 102 10 7 21 18 25 25 10 16 -3 44 -16 36 -7 -4 -8 0 -4 11 4 10 7
33 7 52 0 24 5 34 15 34 11 0 15 11 15 40 0 29 4 40 15 40 8 0 15 4 15 9 0 4
14 22 30 39 17 18 30 36 30 42 0 5 13 16 30 25 16 8 37 29 45 45 18 34 31 38
38 13 3 -10 5 1 6 25 1 30 5 42 16 42 19 0 55 36 55 55 0 11 12 15 43 16 23 1
34 3 25 6 -22 5 -23 22 -3 29 8 4 15 17 15 30 0 21 4 24 40 24 22 0 40 5 40
10 0 6 18 10 40 10 38 0 40 2 40 30 0 28 2 30 38 30 34 0 46 9 156 119 78 79
114 120 105 124 -11 5 -10 9 4 20 9 8 17 24 17 36 0 14 6 21 20 21 17 0 20 7
20 40 0 22 5 40 10 40 6 0 10 47 10 120 0 73 4 120 10 120 6 0 10 18 10 40 0
22 -4 40 -10 40 -5 0 -10 18 -10 40 0 36 -2 40 -25 40 -22 0 -25 4 -25 40 0
29 -4 40 -15 40 -11 0 -15 11 -15 40 0 38 -2 40 -30 40 -27 0 -30 3 -30 30 0
28 -2 30 -40 30 l-40 0 0 50 0 50 -160 0 c-100 0 -160 -4 -160 -10 0 -5 -18
-10 -40 -10 -38 0 -40 -2 -40 -30 l0 -30 -60 0 -60 0 0 -40 c0 -33 -3 -40 -20
-40 -13 0 -20 -7 -20 -20 0 -11 -5 -20 -10 -20 -6 0 -20 -16 -31 -35 -23 -39
-35 -44 -42 -17 -3 9 -5 -1 -6 -22 -1 -31 -9 -46 -36 -73 -19 -19 -35 -38 -35
-43 0 -6 -4 -10 -10 -10 -5 0 -24 -16 -43 -35 -27 -27 -42 -35 -73 -36 -21 -1
-31 -3 -21 -6 21 -5 22 -22 2 -29 -8 -4 -15 -17 -15 -30 0 -17 -6 -24 -20 -24
-26 0 -60 -34 -60 -60 0 -17 -7 -20 -45 -20 l-45 0 0 40 0 40 -75 0 -75 0 0
40 0 40 -80 0 -80 0 0 40 0 40 -119 0 -120 0 -3 38 -3 37 -112 1 c-62 1 -133
2 -158 3 l-45 1 0 40 0 40 -199 0 -200 0 -3 38 -3 37 -72 1 c-40 1 -111 2
-158 3 l-85 1 0 40 0 40 -159 0 -160 0 -3 38 -3 37 -192 1 c-106 1 -218 2
-248 3 l-55 1 0 40 c0 22 5 40 10 40 6 0 10 18 10 40 0 38 2 40 30 40 28 0 30
3 30 34 0 29 9 43 48 80 26 25 53 46 61 46 7 0 22 11 33 25 14 18 26 24 39 20
12 -4 22 1 31 14 7 12 20 21 28 21 21 0 93 74 83 84 -5 5 2 5 14 2 16 -5 29 2
56 29 27 28 42 35 73 35 30 0 36 3 24 11 -12 8 -10 9 7 4 16 -4 30 3 56 30
l35 36 116 6 c114 6 116 6 116 -16 0 -20 5 -21 55 -20 32 1 61 -3 70 -11 8 -7
21 -10 29 -7 7 3 23 -1 35 -10 12 -8 46 -17 76 -20 37 -4 55 -10 55 -19 0 -10
13 -14 40 -14 22 0 40 -4 40 -8 0 -5 53 -9 117 -9 82 1 118 -3 121 -11 2 -7
26 -12 61 -12 102 0 181 -12 181 -26 0 -11 19 -14 80 -14 47 0 80 -4 80 -10 0
-5 18 -10 39 -10 22 0 41 -5 43 -10 2 -6 95 -13 241 -17 188 -5 237 -9 237
-20 0 -10 20 -13 80 -13 47 0 80 -4 80 -10 0 -5 18 -10 40 -10 29 0 40 -4 40
-15 0 -11 11 -15 40 -15 29 0 40 -4 40 -15 0 -11 11 -15 40 -15 22 0 40 -4 40
-10 0 -5 18 -10 40 -10 54 0 51 -20 -2 -22 l-43 -1 43 -4 c28 -3 42 -9 42 -19
0 -10 12 -14 40 -14 22 0 40 -4 40 -10 0 -5 18 -10 40 -10 22 0 40 -4 40 -10
0 -6 105 -10 293 -11 160 0 286 -3 280 -6 -9 -3 -13 -28 -13 -73 0 -45 4 -69
13 -72 6 -2 114 -5 240 -7 l227 -3 0 41 0 41 -40 0 -40 0 0 40 0 40 -122 -3
-123 -4 3 84 3 83 30 0 c27 0 29 3 29 39 0 22 5 41 11 43 7 2 13 59 17 161 4
141 3 157 -12 157 -12 0 -16 10 -16 40 0 36 -2 40 -25 40 -23 0 -25 4 -25 43
0 31 -3 38 -10 27 -9 -13 -10 -13 -10 1 0 16 -55 73 -80 82 -10 4 -7 6 8 6 50
2 12 41 -40 41 -21 0 -38 5 -38 10 0 6 -18 10 -39 10 -23 0 -41 5 -43 13 -4 9
-70 12 -284 13 -153 1 -260 0 -236 -3 72 -7 46 -23 -38 -23 -47 0 -80 4 -80
10 0 6 -18 10 -40 10 -22 0 -40 -4 -40 -10 0 -5 -18 -10 -40 -10 -22 0 -40 5
-40 10 0 6 -33 10 -80 10 l-80 0 -1 43 c-1 23 0 59 1 80 l2 37 -81 0 -80 0 -3
38 c-3 41 6 37 -113 41 l-45 1 0 40 0 40 -79 0 -80 0 -3 38 c-3 41 6 37 -113
41 l-45 1 0 40 0 40 -79 0 -80 0 -3 38 c-3 41 6 37 -113 41 l-45 1 0 40 0 40
-79 0 -80 0 -3 38 c-3 36 -4 37 -40 36 l-38 -2 0 84 c0 77 2 84 20 84 16 0 20
7 20 36 0 57 32 99 43 57 3 -10 5 0 6 21 1 31 9 46 36 73 19 19 35 38 35 43 0
6 9 10 20 10 23 0 60 33 60 55 0 11 11 15 39 15 24 0 48 8 66 22 18 14 47 23
81 26 45 4 54 8 54 23 0 15 8 19 40 19 33 0 40 3 40 20 0 17 7 20 40 20 33 0
40 3 40 20 0 14 7 20 21 20 12 0 28 8 35 18 10 13 16 14 22 5 5 -9 30 10 82
62 49 50 82 75 97 75 20 0 23 5 23 40 0 33 3 40 20 40 17 0 20 7 20 40 0 38 2
40 30 40 l30 0 0 160 0 160 -30 0 c-28 0 -30 2 -30 40 l0 40 -40 0 -40 0 0 40
0 40 -40 0 c-38 0 -40 2 -40 30 l0 30 -200 0 c-127 0 -200 -4 -200 -10 0 -5
-18 -10 -40 -10 -33 0 -40 -3 -40 -20 0 -17 -7 -20 -40 -20 -22 0 -40 -4 -40
-10 0 -5 -18 -10 -40 -10 -38 0 -40 -2 -40 -30 0 -28 -2 -30 -40 -30 -22 0
-40 -4 -40 -10 0 -5 -18 -10 -40 -10 -38 0 -40 -2 -40 -30 0 -23 -4 -30 -20
-30 -26 0 -60 -34 -60 -60 0 -17 -7 -20 -40 -20 l-40 0 0 -40 c0 -33 -3 -40
-20 -40 -26 0 -60 -34 -60 -60 0 -13 -7 -20 -20 -20 -26 0 -60 -34 -60 -60 0
-11 -4 -20 -9 -20 -12 0 -71 -59 -71 -71 0 -5 -9 -9 -20 -9 -11 0 -29 -9 -40
-20 -13 -13 -33 -20 -60 -20 -28 0 -40 -4 -40 -14 0 -12 -24 -15 -125 -18
l-126 -3 -74 75 c-70 70 -75 78 -75 118 0 23 -4 42 -10 42 -5 0 -10 18 -10 40
0 22 5 40 10 40 6 0 10 18 10 40 0 38 2 40 30 40 28 0 30 2 30 40 0 22 5 40
10 40 6 0 10 18 10 40 l0 40 40 0 40 0 0 40 c0 22 -4 40 -10 40 -5 0 -10 18
-10 40 0 22 5 40 10 40 16 0 1 222 -16 236 -10 8 -14 35 -14 88 0 69 -2 76
-20 76 -17 0 -20 7 -20 40 0 33 3 40 20 40 17 0 20 7 20 40 0 33 -3 40 -20 40
-19 0 -20 7 -20 91 0 84 -2 93 -24 110 -20 16 -23 24 -18 69 4 41 2 50 -12 50
-12 0 -16 10 -16 40 0 29 -4 40 -15 40 -13 0 -15 24 -15 160 0 136 2 160 15
160 13 0 15 24 15 160 0 136 -2 160 -15 160 -11 0 -15 11 -15 40 0 38 -2 40
-30 40 -28 0 -30 2 -30 40 l0 40 -120 0 c-113 0 -120 -1 -120 -20 0 -17 -7
-20 -40 -20 -33 0 -40 -3 -40 -20 0 -13 -7 -20 -20 -20 -17 0 -20 -7 -20 -40
0 -36 -2 -40 -25 -40 -22 0 -25 -4 -25 -40 0 -29 -4 -40 -15 -40 -12 0 -15
-16 -15 -80 0 -47 -4 -80 -10 -80 -5 0 -10 -18 -10 -40 0 -29 -4 -40 -15 -40
-12 0 -15 -16 -15 -80 0 -64 -3 -80 -15 -80 -11 0 -15 -11 -15 -40 0 -33 -3
-40 -20 -40 -17 0 -20 -7 -20 -40 0 -33 -3 -40 -20 -40 -17 0 -20 -7 -20 -40
0 -32 -4 -40 -18 -40 -17 0 -20 -12 -25 -122 -4 -66 -7 -156 -7 -200 0 -63 -3
-78 -15 -78 -11 0 -15 -11 -15 -40 0 -22 -4 -40 -10 -40 -5 0 -10 -18 -10 -40
0 -22 -4 -40 -10 -40 -6 0 -10 -127 -10 -360 0 -233 4 -360 10 -360 6 0 10
-60 10 -160 0 -100 -4 -160 -10 -160 -5 0 -10 -18 -10 -40 l0 -40 -119 0 -119
0 -3 43 -4 44 38 -2 c37 -2 37 -2 37 37 l0 38 -75 0 -75 0 0 40 0 40 -40 0
-40 0 0 40 0 40 -80 0 -80 0 0 40 0 40 -40 0 -40 0 0 40 0 40 -40 0 -40 0 0
40 0 40 -40 0 -40 0 0 40 0 40 -40 0 -40 0 0 40 0 40 -80 0 -80 0 0 40 0 40
-40 0 -40 0 0 40 0 40 -160 0 -160 0 0 40 0 40 -160 0 -160 0 0 40 0 40 -200
0 -200 0 0 40 0 40 -280 0 -280 0 0 40 0 40 -280 0 -280 0 0 40 0 40 -1279 0
-1280 0 -3 38 -3 37 -272 1 c-150 1 -293 2 -318 3 l-45 1 0 40 0 40 -359 0
-360 0 -3 38 -3 37 -312 1 c-172 1 -333 2 -358 3 l-45 1 0 40 0 40 -639 0
-640 0 -3 38 -3 37 -1062 0 c-810 0 -1063 3 -1063 12 0 6 11 20 25 31 14 11
25 25 25 31 0 6 4 11 9 11 12 0 71 59 71 71 0 5 4 9 9 9 12 0 71 59 71 71 0 5
11 9 24 9 13 0 26 7 30 15 7 20 24 19 29 -2 3 -10 5 1 6 25 1 32 5 42 17 42 9
0 22 7 28 15 8 11 43 16 139 21 90 5 127 11 127 19 0 8 20 14 48 17 27 3 58
13 69 23 12 9 33 28 47 41 15 13 31 24 35 24 5 0 11 23 13 52 4 40 1 60 -14
87 -26 46 -48 71 -63 71 -7 0 -18 7 -25 15 -7 8 -18 14 -24 13 -6 -1 -43 2
-81 6 -57 6 -79 4 -115 -10 -32 -13 -45 -14 -48 -6 -2 7 -7 12 -12 12 -11 0
-70 -59 -70 -71 0 -5 -7 -9 -15 -9 -8 0 -15 -5 -15 -11 0 -5 -4 -8 -9 -4 -5 3
-12 -4 -16 -15 -3 -11 -11 -20 -16 -20 -5 0 -9 -11 -9 -25 0 -22 -4 -25 -40
-25 -22 0 -40 -4 -40 -10 0 -5 -18 -10 -40 -10 -33 0 -40 -3 -40 -20 0 -17 -7
-20 -40 -20 -22 0 -40 -5 -40 -11 0 -6 -18 -9 -45 -8 -39 3 -49 -1 -78 -29
-18 -18 -42 -32 -52 -32 -11 0 -31 -9 -45 -20 -14 -11 -41 -20 -62 -20 -31 0
-38 -4 -38 -19 0 -11 6 -22 13 -25 6 -3 0 -3 -16 1 -15 3 -34 0 -42 -7 -8 -7
-15 -9 -15 -4 0 5 -5 1 -11 -8 -7 -13 -22 -18 -51 -18 -37 0 -40 -2 -36 -24 3
-16 1 -23 -7 -20 -13 5 -75 -51 -75 -67 0 -5 -9 -9 -21 -9 -11 0 -29 -5 -40
-10 -13 -7 -19 -7 -19 0 0 6 -32 10 -80 10 l-80 0 0 30 0 30 -80 0 -80 0 0 50
0 50 45 1 c25 1 96 2 158 3 l112 1 3 38 c3 36 4 37 43 37 39 0 39 0 39 40 l0
40 40 0 40 0 0 40 0 40 80 0 80 0 0 40 0 40 45 1 c119 4 110 0 113 42 l3 37
115 0 114 0 0 34 c0 32 -3 35 -32 38 -23 2 -34 9 -37 22 -3 19 -2 19 23 3 14
-9 32 -17 41 -17 9 0 15 -9 15 -23 0 -20 4 -22 40 -19 25 3 40 0 40 -7 0 -7
28 -11 80 -11 47 0 80 4 80 10 0 6 19 10 41 10 38 0 41 2 37 23 -4 20 -1 23
18 19 26 -5 64 29 64 58 0 16 7 20 30 20 28 0 30 2 30 40 l0 40 55 1 c30 1 88
2 128 3 l72 1 3 38 3 37 195 0 194 0 0 35 c0 23 6 38 15 41 8 4 81 7 163 8
l147 2 3 37 3 37 235 0 234 0 0 35 c0 21 6 38 13 41 8 3 117 6 242 8 165 2
230 6 233 14 2 7 21 12 43 12 35 0 39 3 39 25 l0 25 355 0 355 0 0 35 c0 22 6
38 14 41 8 3 261 7 563 8 l548 2 3 37 3 37 1680 0 1679 0 0 -38z m-9063 -984
c-2 -13 -4 -3 -4 22 0 25 2 35 4 23 2 -13 2 -33 0 -45z m1143 -618 c0 -22 -4
-40 -10 -40 -5 0 -10 18 -10 40 0 22 5 40 10 40 6 0 10 -18 10 -40z m-1143
-222 c-2 -35 -3 -7 -3 62 0 69 1 97 3 63 2 -35 2 -91 0 -125z m4183 -125 c10
-17 10 -17 20 0 16 25 81 23 105 -3 10 -12 25 -18 32 -16 7 3 13 -1 13 -9 0
-8 10 -20 23 -26 12 -7 27 -19 34 -28 8 -11 12 -12 13 -3 0 20 68 15 93 -9 13
-12 31 -19 45 -16 22 4 30 -7 12 -18 -7 -4 -5 -14 5 -27 12 -18 23 -21 69 -19
54 2 55 2 52 -25 -2 -17 -11 -30 -25 -35 -11 -5 -21 -13 -21 -19 0 -6 5 -8 10
-5 6 4 16 2 23 -3 7 -6 31 -15 54 -21 31 -8 44 -18 48 -34 l6 -22 254 3 255 3
0 -41 0 -40 360 0 360 0 0 -38 0 -37 228 0 c125 1 233 -1 240 -3 7 -2 12 -21
12 -43 l0 -39 280 0 280 0 0 -38 0 -37 188 0 c103 1 193 -1 200 -3 7 -2 12
-21 12 -43 l0 -39 200 0 200 0 0 -38 0 -37 183 0 c100 0 208 -2 240 -3 l57 -4
0 -39 0 -39 240 0 240 0 0 -38 0 -39 40 2 c23 1 40 -3 40 -9 0 -6 5 -4 10 4 9
13 10 13 10 0 0 -13 1 -13 10 0 9 13 10 13 10 0 0 -13 1 -13 10 0 9 13 10 13
10 0 0 -13 1 -13 10 0 7 11 10 2 10 -32 l0 -48 -40 0 -40 0 0 -40 c0 -33 -3
-40 -20 -40 -17 0 -20 -7 -20 -40 0 -22 -4 -40 -10 -40 -5 0 -10 -18 -10 -39
0 -22 -5 -41 -11 -43 -7 -2 -11 -91 -11 -281 l1 -277 -35 0 c-32 0 -34 2 -35
38 l-2 37 -7 -40 -7 -40 -2 40 -1 40 -232 3 c-127 2 -235 5 -240 8 -4 3 -8 21
-8 40 l0 34 -234 0 -235 0 -3 38 -3 37 -1286 0 c-910 0 -1285 -3 -1282 -11 7
-18 -46 -67 -67 -61 -11 3 -19 2 -18 -2 0 -3 0 -14 -1 -24 -2 -36 -18 -7 -31
55 -12 60 -54 163 -70 173 -4 3 -11 17 -15 32 -3 15 -20 45 -36 67 -30 41 -38
91 -16 99 8 3 5 12 -10 29 -29 31 -29 34 3 42 31 8 27 26 -9 44 l-27 13 30 32
c28 31 33 32 102 31 40 -1 102 -9 136 -18 68 -18 100 -10 87 23 -4 9 -13 39
-21 67 -56 212 -189 396 -338 465 -52 24 -70 38 -78 60 -7 20 -23 35 -52 47
-43 20 -103 73 -114 103 -8 21 -116 117 -163 146 -49 30 -79 38 -79 21 0 -25
-136 -17 -194 12 -46 22 -49 23 -62 6 -14 -20 -47 -20 -234 4 -89 11 -198 9
-332 -6 -55 -6 -58 -6 -58 15 0 19 6 21 49 21 28 0 53 5 56 10 3 6 -1 10 -9
10 -9 0 -16 5 -16 11 0 8 36 10 118 8 100 -3 121 -1 144 14 20 14 42 18 90 16
49 -2 63 1 63 12 1 27 17 41 42 36 17 -3 28 1 36 14 15 24 53 25 67 2z m-882
-186 c6 -5 12 -4 12 0 0 5 34 8 75 8 l75 0 0 -37 c0 -21 5 -38 10 -38 17 0 11
-28 -7 -34 -10 -3 -43 -8 -73 -10 -60 -4 -90 -13 -90 -27 0 -5 -11 -9 -25 -9
-28 0 -32 -12 -10 -30 10 -8 33 -11 65 -8 54 5 64 0 54 -27 -5 -13 -14 -15
-39 -11 -18 4 -43 2 -56 -3 -14 -6 -18 -10 -9 -11 26 -2 -22 -19 -57 -19 -41
-1 -83 -20 -83 -38 0 -7 -12 -19 -27 -26 -16 -6 -36 -22 -45 -33 -10 -12 -51
-39 -90 -59 -40 -21 -74 -42 -76 -46 -2 -5 -13 -9 -24 -9 -33 0 -14 -25 21
-27 44 -2 50 -10 15 -23 -52 -19 -94 -44 -91 -55 2 -5 20 -9 41 -9 31 1 36 -2
36 -21 0 -16 -13 -31 -42 -49 -24 -14 -37 -25 -30 -26 23 0 12 -31 -18 -48
-16 -9 -30 -21 -30 -25 0 -14 -74 -78 -113 -98 -21 -11 -35 -23 -33 -28 7 -10
-79 -120 -137 -177 -23 -22 -58 -61 -77 -86 -19 -26 -45 -52 -57 -59 l-22 -12
22 -17 22 -18 -38 -35 c-43 -41 -45 -47 -16 -47 19 0 21 -4 15 -37 -4 -21 -7
-46 -8 -55 -1 -10 -6 -18 -10 -18 -4 0 -8 -8 -8 -19 0 -10 -14 -33 -32 -50
-29 -28 -32 -29 -45 -13 -12 16 -15 15 -38 -11 -14 -15 -25 -35 -25 -43 0 -8
-9 -14 -20 -14 -11 0 -20 -4 -20 -10 0 -5 -5 -10 -10 -10 -6 0 -24 -10 -40
-22 -26 -19 -30 -28 -30 -68 0 -34 -5 -52 -20 -65 -18 -16 -20 -16 -20 -2 0
12 -12 4 -36 -23 l-36 -40 -124 0 c-110 0 -124 2 -124 17 0 14 -2 15 -12 4
-10 -11 -10 -14 0 -18 6 -3 12 -19 12 -37 0 -30 -3 -32 -52 -44 -29 -6 -63 -9
-75 -6 -14 4 -33 0 -47 -10 -41 -26 -156 -66 -192 -66 -19 0 -34 -4 -34 -10 0
-5 -23 -19 -50 -32 -28 -13 -50 -26 -50 -30 0 -3 -54 -7 -119 -7 -92 -1 -120
2 -124 13 -12 30 -53 25 -48 -6 0 -5 -37 -8 -84 -8 l-85 0 0 -40 0 -40 -120 0
-120 0 0 -40 0 -40 -52 -1 c-29 -1 -65 -2 -80 -2 -26 0 -28 -4 -28 -39 0 -38
0 -38 -40 -38 l-40 0 0 -40 0 -40 -40 0 -40 0 0 -40 0 -40 -40 0 -40 0 0 -120
c0 -87 -3 -120 -12 -120 -9 0 -9 -3 0 -12 7 -7 12 -25 12 -40 0 -15 5 -28 12
-28 9 0 9 -3 0 -12 -18 -18 -31 6 -27 43 5 39 -24 56 -51 31 -19 -18 -19 -14
-22 147 -2 92 -7 191 -11 221 -4 32 -6 -35 -5 -160 l1 -215 -7 195 c-10 259
-10 2280 0 2350 l7 55 2 -47 c1 -45 14 -64 24 -35 3 9 44 12 160 12 87 0 157
3 157 7 0 5 18 8 40 8 33 0 40 3 40 20 0 14 7 20 24 20 13 0 26 7 30 15 3 8
10 15 16 15 5 0 10 -7 10 -15 0 -11 11 -15 40 -15 40 0 40 0 40 -38 0 -31 7
-45 40 -77 25 -25 36 -41 29 -46 -7 -4 -8 -12 -4 -19 6 -9 9 -9 15 0 4 7 12
-1 20 -22 22 -59 65 -143 77 -153 7 -5 19 -27 28 -47 8 -21 24 -44 35 -50 11
-7 27 -34 37 -60 9 -27 22 -48 29 -48 6 0 14 -6 17 -14 3 -8 22 -20 41 -27 20
-7 36 -19 36 -26 0 -7 7 -13 15 -13 8 0 26 -11 40 -25 21 -22 25 -35 25 -80 0
-42 -3 -55 -15 -55 -8 0 -15 -4 -15 -10 0 -5 -11 -12 -25 -16 -14 -3 -25 -10
-25 -14 0 -5 -18 -11 -40 -15 -22 -4 -40 -11 -40 -16 0 -5 -22 -9 -48 -9 -55
0 -82 -20 -79 -58 1 -16 8 -22 24 -22 18 0 23 -6 23 -25 0 -22 4 -25 40 -25
29 0 40 -4 40 -15 0 -9 9 -15 25 -15 23 0 25 -4 25 -40 0 -22 -4 -40 -10 -40
-5 0 -10 -17 -10 -37 -1 -53 -26 -79 -83 -85 -41 -5 -50 -3 -66 18 -24 31 -58
31 -83 -1 -16 -21 -28 -25 -69 -25 -37 0 -49 -4 -49 -15 0 -10 -10 -15 -29
-15 -17 0 -33 -5 -36 -10 -4 -7 -11 -7 -18 -2 -7 5 -27 8 -44 6 -23 -2 -33 2
-33 12 0 17 -3 17 -60 0 -37 -11 -47 -19 -56 -45 -6 -18 -16 -36 -23 -40 -6
-4 -14 -24 -18 -44 -6 -37 -5 -37 30 -37 37 0 47 12 47 56 0 16 6 24 18 24 10
0 26 10 37 23 l20 22 3 -22 c2 -13 10 -23 18 -23 9 0 14 -11 14 -34 0 -38 6
-45 44 -48 23 -2 26 -7 26 -40 0 -33 -3 -38 -22 -38 -19 0 -20 -2 -8 -10 8 -5
29 -10 47 -10 17 0 44 -5 59 -10 14 -6 56 -12 93 -13 63 -2 161 -33 161 -50 0
-4 -7 -10 -15 -13 -8 -4 -15 -17 -15 -29 0 -13 -6 -26 -12 -29 -7 -3 -3 -3 10
0 15 4 28 0 35 -10 23 -32 178 -66 203 -45 10 8 44 13 87 13 55 1 82 6 115 24
23 12 60 22 81 22 22 0 41 5 44 13 2 7 20 14 38 15 18 1 36 6 39 10 7 10 42
32 63 38 9 4 17 14 17 24 0 9 9 25 20 35 11 10 17 22 14 27 -9 14 27 49 45 44
9 -3 29 6 45 20 l29 25 5 158 5 157 -32 34 c-25 27 -31 43 -31 77 0 39 -2 43
-24 43 -13 0 -29 7 -36 15 -7 8 -19 15 -26 15 -8 0 -14 5 -14 10 0 6 -8 10
-19 10 -10 0 -38 7 -61 15 -23 8 -75 16 -116 17 l-73 2 -6 46 c-8 62 -33 110
-54 103 -9 -4 -13 -2 -8 2 4 5 -9 26 -29 46 l-37 38 0 121 c0 66 -4 120 -9
120 -4 0 -8 13 -8 29 0 51 -23 131 -37 131 -9 0 -13 14 -13 43 0 32 -3 38 -11
27 -8 -12 -9 -11 -4 6 4 16 -3 30 -25 53 -18 17 -36 31 -41 31 -5 0 -9 5 -9
11 0 7 -8 17 -17 24 -18 13 -27 45 -12 45 5 0 9 17 9 38 0 20 4 42 8 49 11 17
267 20 287 3 7 -6 38 -14 68 -17 43 -4 56 -10 60 -25 5 -17 15 -18 159 -16
150 3 153 3 156 26 2 13 10 22 20 22 9 0 28 9 42 20 14 11 41 20 63 20 30 0
37 -4 37 -20 0 -20 7 -20 640 -20 l640 0 0 34 c0 19 5 36 11 38 20 7 134 3
147 -5z m1432 -41 c0 -2 -7 -7 -16 -10 -8 -3 -12 -2 -9 4 6 10 25 14 25 6z
m-3400 -22 c0 -2 -7 -4 -15 -4 -8 0 -15 4 -15 10 0 5 7 7 15 4 8 -4 15 -8 15
-10z m3410 -4 c0 -5 -2 -10 -4 -10 -3 0 -8 5 -11 10 -3 6 -1 10 4 10 6 0 11
-4 11 -10z m4800 -760 l0 -40 40 0 c40 0 40 0 40 -38 l0 -37 183 0 c100 0 208
-2 240 -3 l57 -4 0 -39 0 -39 160 0 160 0 0 -38 0 -37 108 -1 c59 -1 131 -2
160 -3 l52 -1 0 -40 0 -40 120 0 120 0 0 -38 0 -37 165 -3 c91 -1 199 -3 240
-4 l75 -3 0 -37 c0 -38 0 -38 -40 -38 -40 0 -40 0 -40 -39 0 -37 -2 -40 -32
-43 -20 -2 -32 -8 -30 -15 1 -7 -2 -13 -8 -13 -5 0 -10 -11 -10 -25 0 -22 -4
-25 -40 -25 -22 0 -40 -4 -40 -10 0 -5 -18 -10 -40 -10 -22 0 -40 -4 -40 -10
0 -5 -18 -10 -40 -10 -33 0 -40 -3 -40 -19 0 -11 6 -22 13 -25 6 -3 2 -3 -10
-1 -15 4 -31 -4 -55 -28 -25 -26 -44 -35 -78 -39 -34 -4 -54 -13 -78 -37 -17
-18 -32 -37 -32 -42 0 -5 -9 -9 -20 -9 -19 0 -28 -6 -86 -57 -14 -13 -30 -23
-37 -23 -22 0 -171 -157 -156 -164 11 -4 9 -8 -5 -18 -11 -7 -30 -23 -43 -35
-13 -13 -30 -23 -38 -23 -11 0 -15 -12 -15 -40 l0 -40 -80 0 c-44 0 -80 4 -80
9 0 12 -59 71 -71 71 -5 0 -9 17 -9 38 0 34 -8 46 -78 115 -43 43 -82 74 -86
70 -5 -4 -5 3 -1 15 5 18 2 27 -14 38 -11 8 -30 32 -42 54 -13 22 -26 40 -30
40 -4 0 -16 16 -28 35 -11 19 -27 35 -35 35 -9 0 -20 9 -26 20 -8 15 -8 20 2
20 6 0 -5 17 -25 38 -20 21 -37 43 -37 49 0 14 -58 73 -71 73 -5 0 -9 4 -9 10
0 5 -16 24 -35 43 -28 27 -35 42 -36 73 -1 32 -2 34 -8 15 l-7 -24 -17 26 c-9
14 -17 42 -17 62 0 24 -4 35 -15 35 -11 0 -15 11 -15 40 0 36 -2 40 -25 40
-22 0 -25 4 -25 40 0 38 -2 40 -30 40 -28 0 -30 2 -30 40 0 38 -2 40 -30 40
l-30 0 0 80 0 80 80 0 80 0 0 -40z m-4320 -660 c0 -11 -4 -20 -9 -20 -5 0 -7
9 -4 20 3 11 7 20 9 20 2 0 4 -9 4 -20z m5720 -185 c0 -2 -9 -9 -20 -15 -16
-9 -20 -8 -20 5 0 8 9 15 20 15 11 0 20 -2 20 -5z m-5761 -82 c20 -39 39 -62
85 -101 38 -32 33 -73 -11 -86 -21 -6 -33 -15 -33 -27 0 -9 -5 -19 -12 -21 -9
-3 -9 -27 1 -104 7 -54 12 -103 10 -109 -4 -16 11 -137 23 -175 6 -19 11 -48
10 -64 0 -17 7 -43 16 -58 12 -21 13 -31 5 -39 -9 -9 -16 -9 -28 1 -14 12 -18
11 -26 -1 -12 -18 -1 -80 16 -94 16 -12 18 -23 16 -86 -1 -36 -7 -52 -30 -75
-24 -24 -31 -42 -37 -92 -5 -45 -11 -62 -21 -62 -8 0 -28 -9 -44 -21 l-29 -21
-1 29 c0 15 -1 48 -2 73 -2 44 -1 45 28 45 l30 0 -4 73 -3 72 26 -11 c39 -18
43 -4 13 57 -15 30 -25 59 -22 64 3 5 -1 34 -9 64 -15 59 -13 68 12 59 12 -5
14 -1 9 23 -20 103 -20 105 -3 98 20 -8 20 7 0 76 -11 37 -14 72 -10 114 4 34
3 67 -2 74 -5 7 -4 38 1 70 11 69 9 173 -4 187 -12 12 -12 105 1 105 5 0 18
-17 29 -37z m7801 -113 l0 -40 40 0 40 0 0 -80 c0 -73 -2 -80 -20 -80 -18 0
-20 -7 -20 -76 0 -72 -11 -114 -30 -114 -5 0 -11 8 -14 18 -2 9 -4 -4 -3 -30
1 -40 -4 -52 -34 -85 -20 -22 -40 -38 -46 -36 -6 2 -27 -12 -46 -31 -27 -29
-42 -36 -73 -37 -33 -1 -35 -2 -14 -8 39 -11 6 -25 -52 -22 -28 1 -48 -2 -48
-9 0 -5 -18 -10 -40 -10 -29 0 -40 -4 -40 -15 0 -11 -11 -15 -40 -15 -29 0
-40 -4 -40 -15 0 -19 -70 -21 -71 -2 0 10 -2 10 -6 0 -2 -8 -22 -13 -44 -13
-21 0 -39 -4 -39 -10 0 -5 -18 -10 -40 -10 -29 0 -40 -4 -40 -15 0 -10 -10
-15 -34 -15 -29 0 -45 -11 -114 -82 -47 -48 -76 -85 -70 -89 11 -7 2 -29 -12
-29 -5 0 -11 8 -13 18 -3 9 -5 -2 -6 -25 -1 -39 -3 -43 -26 -43 -22 0 -25 -4
-25 -40 0 -29 -4 -40 -15 -40 -11 0 -15 -11 -15 -40 0 -22 5 -40 10 -40 6 0
10 -5 10 -12 0 -6 -3 -8 -7 -4 -4 3 -24 -10 -45 -31 -31 -30 -38 -44 -38 -75
0 -38 0 -38 -40 -38 l-40 0 0 -40 0 -40 -200 0 c-116 0 -200 4 -200 9 0 12
-59 71 -71 71 -5 0 -9 53 -9 120 0 73 -4 120 -10 120 -5 0 -10 18 -10 40 0 29
4 40 15 40 11 0 15 11 15 40 0 36 3 40 25 40 23 0 25 4 25 40 0 22 5 40 10 40
6 0 10 18 10 40 0 38 2 40 30 40 28 0 30 2 30 40 0 33 3 40 19 40 20 0 81 54
81 71 0 5 9 9 20 9 11 0 29 9 40 20 11 11 20 29 20 40 0 13 7 20 20 20 11 0
29 9 40 20 11 11 20 29 20 40 0 13 7 20 20 20 11 0 29 9 40 20 11 11 20 29 20
40 0 11 4 20 10 20 5 0 24 16 43 35 27 27 42 35 73 36 21 1 31 3 22 6 -10 2
-18 8 -18 13 0 24 51 30 274 30 229 0 236 1 236 20 0 11 -6 20 -12 20 -9 0 -8
4 2 10 8 5 32 10 53 10 20 0 37 5 37 10 0 6 18 10 40 10 l40 0 0 60 0 60 40 0
40 0 0 40 0 40 160 0 160 0 0 -40z m-11000 -684 c0 -3 -4 -8 -10 -11 -5 -3
-10 -1 -10 4 0 6 5 11 10 11 6 0 10 -2 10 -4z m-28 -238 c-10 -4 3 -7 30 -7
44 -1 47 -3 67 -44 25 -52 27 -114 5 -138 -11 -12 -18 -41 -20 -81 -2 -35 -6
-85 -10 -113 -6 -48 -6 -49 12 -34 38 32 41 28 21 -26 -21 -59 -18 -77 9 -54
16 13 17 12 10 -11 -10 -33 -11 -42 -2 -130 l8 -76 -34 -40 -33 -40 -23 27
c-12 15 -22 38 -22 51 0 13 -15 55 -34 93 -49 103 -54 125 -59 295 -3 85 -10
170 -16 187 -5 18 -7 57 -4 87 5 50 8 56 42 73 20 10 38 22 40 27 2 5 9 -2 17
-15 11 -21 10 -25 -4 -31z m-420 -36 l1 -37 4 38 c3 29 9 37 24 37 16 0 19 -7
19 -40 0 -32 4 -40 19 -40 14 0 20 -12 29 -57 6 -32 16 -78 22 -103 6 -25 17
-80 23 -122 16 -95 3 -103 -37 -25 -42 80 -66 120 -86 142 -26 29 -50 81 -50
108 0 13 -9 33 -20 45 -11 12 -20 25 -20 29 0 5 -9 14 -20 21 -38 23 -24 39
35 41 l55 1 2 -38z m-1352 -49 c0 -26 -1 -26 -17 -10 -16 16 -16 19 -3 27 20
13 20 13 20 -17z m58 -16 c4 -21 -5 -22 -24 -3 -19 19 -18 25 4 22 9 -2 18
-10 20 -19z m4968 -12 c-9 -9 -16 -13 -16 -8 0 12 22 34 28 28 2 -2 -3 -11
-12 -20z m-4994 -27 c16 -19 21 -20 29 -8 8 11 12 12 16 3 2 -8 22 -13 44 -13
38 0 39 0 39 -38 0 -36 1 -38 35 -38 34 0 35 1 37 41 l1 40 7 -45 7 -45 1 43
c2 41 3 42 37 42 20 0 35 5 35 12 0 6 3 8 7 4 4 -4 6 -42 4 -86 -2 -65 1 -82
16 -99 10 -11 27 -31 38 -45 11 -14 24 -26 28 -26 5 0 16 -7 24 -16 11 -11 27
-14 47 -11 60 10 83 25 102 66 11 22 25 41 32 41 6 0 12 6 12 14 0 23 84 30
379 30 126 1 134 -1 151 -22 10 -12 21 -22 25 -22 12 0 145 -135 145 -147 0
-7 4 -13 9 -13 4 0 16 -21 26 -47 28 -75 76 -173 85 -173 5 0 12 -10 16 -22 4
-12 58 -72 120 -132 63 -60 114 -115 114 -122 0 -7 6 -17 13 -21 23 -15 47
-62 47 -93 0 -30 -2 -31 -31 -25 -17 4 -56 10 -87 15 -52 7 -59 5 -79 -17 -21
-22 -21 -24 -6 -30 21 -8 106 -9 188 -3 59 5 60 5 63 -22 3 -21 -1 -28 -15
-29 -10 0 -13 -3 -5 -6 6 -2 10 -9 6 -14 -3 -5 0 -9 5 -9 6 0 11 -4 11 -10 0
-13 -240 -13 -274 0 -25 9 -66 75 -66 105 0 8 -7 15 -15 15 -20 0 -194 156
-214 193 -40 71 -125 133 -194 141 -31 4 -91 32 -106 50 -7 9 -17 13 -22 10
-5 -3 -8 0 -7 6 2 6 -19 20 -46 30 -47 18 -53 19 -110 4 -34 -9 -70 -24 -81
-33 -24 -21 -102 -51 -132 -51 -12 0 -28 -7 -37 -15 -11 -11 -37 -15 -99 -15
-47 0 -87 3 -89 8 -1 4 -23 17 -48 30 -58 29 -127 95 -146 141 -11 26 -15 68
-15 146 1 80 -3 118 -14 139 -8 15 -15 53 -15 82 0 41 -4 54 -15 54 -8 0 -20
9 -27 20 -7 11 -18 20 -25 20 -7 0 -13 9 -13 20 0 26 8 25 32 -2z m-197 -62
c16 7 55 -34 55 -57 0 -10 7 -25 17 -34 12 -13 13 -19 4 -24 -7 -5 -11 -25
-10 -49 2 -31 -3 -47 -19 -65 -12 -13 -22 -35 -22 -50 0 -14 -6 -30 -14 -34
-7 -4 -16 -15 -19 -23 -3 -10 -6 -6 -7 10 -2 24 -3 23 -10 -5 -10 -40 -12 228
-2 320 4 44 8 58 10 38 2 -22 7 -30 17 -27z m5105 -56 c9 -23 10 -39 2 -63 -5
-18 -10 -24 -11 -14 -1 9 -6 17 -12 17 -8 0 -10 -14 -6 -40 5 -37 3 -39 -19
-38 -13 1 -24 6 -24 10 0 21 -18 5 -23 -19 -3 -16 -8 -38 -12 -50 -6 -19 -4
-23 14 -23 11 0 21 5 21 10 0 6 -4 10 -10 10 -16 0 -12 26 6 41 15 13 16 8 11
-56 -4 -44 -3 -61 2 -45 l9 25 1 -26 c1 -21 7 -28 32 -33 16 -3 36 -11 42 -18
10 -11 37 -63 37 -71 0 -2 -23 -3 -51 -2 -53 0 -57 -3 -76 -54 l-9 -23 -42 36
c-44 36 -48 36 -107 11 -56 -25 -105 -23 -105 4 0 25 37 111 47 111 5 0 17 15
28 33 10 17 41 53 67 79 44 42 49 53 54 100 9 89 20 106 67 111 23 2 45 4 48
5 4 1 12 -12 19 -28z m17 -132 c-3 -8 -6 -5 -6 6 -1 11 2 17 5 13 3 -3 4 -12
1 -19z m4663 -48 c0 -38 2 -40 30 -40 25 0 30 -4 30 -24 0 -13 7 -26 15 -30 8
-3 15 -10 15 -16 0 -5 -7 -10 -15 -10 -8 0 -15 -9 -15 -20 0 -17 7 -20 40 -20
27 0 47 -7 60 -20 11 -11 23 -20 28 -20 4 0 13 -9 19 -19 7 -11 25 -26 40 -33
15 -7 28 -19 28 -27 0 -7 23 -25 50 -40 28 -14 52 -29 53 -33 2 -5 9 -8 16 -8
7 0 21 -10 32 -21 10 -12 29 -25 42 -30 12 -5 22 -15 22 -23 0 -8 15 -25 33
-37 17 -13 47 -40 66 -61 32 -38 35 -39 93 -37 74 3 84 -7 63 -57 -12 -27 -16
-64 -15 -125 1 -94 -10 -117 -56 -111 -20 3 -25 -2 -30 -27 -4 -17 -10 -31
-15 -31 -5 0 -9 -38 -9 -85 0 -55 4 -85 11 -85 15 0 -43 -68 -58 -69 -7 -1
-13 -5 -13 -11 0 -5 -31 -43 -70 -82 -38 -40 -76 -81 -85 -90 -22 -26 -96 -24
-120 2 -10 11 -14 20 -9 20 12 0 -112 80 -125 80 -5 0 -11 4 -13 8 -5 14 -113
70 -144 75 -16 3 -44 9 -61 12 -20 5 -33 4 -33 -3 0 -10 -31 -17 -117 -28 -28
-4 -43 -2 -43 5 0 6 -9 11 -19 11 -11 0 -23 5 -26 10 -3 6 -13 10 -21 10 -8 0
-14 -4 -14 -10 0 -5 7 -10 15 -10 8 0 15 -4 15 -9 0 -5 11 -12 25 -15 18 -5
25 -13 25 -30 0 -13 -6 -23 -15 -23 -8 0 -15 3 -15 7 0 12 -65 29 -137 36 -52
5 -73 11 -73 20 0 10 -15 14 -54 14 -35 0 -58 5 -66 15 -14 17 -116 21 -122 5
-2 -7 -45 -7 -128 -2 -99 7 -131 6 -154 -4 -33 -16 -72 -18 -80 -5 -3 5 -23
12 -43 16 -39 7 -157 49 -183 65 -62 39 -138 52 -157 28 -6 -7 -13 -26 -17
-43 -10 -41 -27 -60 -37 -43 -12 19 -79 -19 -79 -44 0 -14 -8 -18 -38 -18 -21
0 -47 7 -58 15 -28 21 -47 19 -39 -4 9 -31 -8 -32 -76 -6 -34 14 -71 25 -81
25 -20 0 -101 40 -106 53 -5 11 -82 9 -82 -3 0 -11 -27 -1 -55 20 -24 18 -55
57 -37 46 6 -4 12 -3 12 2 0 25 -131 21 -182 -5 -16 -7 -28 -20 -28 -28 0 -7
-6 -20 -13 -27 -24 -23 -26 -56 -6 -74 25 -22 24 -38 -1 -31 -13 3 -24 -1 -30
-14 -14 -25 -55 -25 -122 1 -50 19 -131 92 -176 160 -9 14 -31 44 -49 68 -18
24 -33 51 -33 61 0 16 -94 131 -114 140 -15 6 -105 99 -156 160 -24 29 -55 57
-67 62 -28 10 -41 38 -23 49 10 6 10 15 1 40 -6 18 -11 42 -11 54 1 20 2 20
14 4 7 -10 18 -18 23 -18 6 0 28 -16 49 -35 27 -25 40 -32 46 -22 6 9 8 8 9
-3 1 -8 1 -19 0 -24 -3 -15 22 -37 36 -32 12 5 17 -8 16 -41 -1 -7 3 -10 8 -7
5 3 9 -4 9 -14 0 -12 9 -22 22 -25 34 -9 36 2 6 28 -35 30 -37 55 -4 55 37 0
56 -10 56 -31 0 -15 7 -19 40 -19 26 0 40 -4 40 -13 0 -18 55 -125 76 -149 22
-23 65 -23 84 0 26 30 51 73 57 95 3 12 5 70 5 130 1 59 5 107 9 107 5 0 9 -9
9 -19 0 -36 77 -45 82 -9 3 19 10 22 58 25 30 1 82 4 114 6 34 2 62 9 64 15 2
7 21 12 43 12 35 0 39 3 39 25 0 25 1 25 80 25 l80 0 0 40 0 40 165 1 c223 2
228 2 233 17 2 7 20 12 43 12 35 0 39 3 39 25 l0 25 120 0 c96 0 120 3 120 14
0 9 14 15 40 18 33 3 40 0 44 -17 2 -11 4 -2 3 21 l-2 41 37 -1 c29 -1 38 -5
38 -18 0 -14 9 -18 40 -18 33 0 40 3 40 20 0 23 -19 22 323 24 l232 1 3 38 3
37 195 0 194 0 0 40 0 40 55 0 55 0 0 -40z m-4573 -32 c-3 -7 -5 -2 -5 12 0
14 2 19 5 13 2 -7 2 -19 0 -25z m530 -4 c-3 -3 -12 -4 -19 -1 -8 3 -5 6 6 6
11 1 17 -2 13 -5z m-477 -74 c0 -5 9 -10 20 -10 13 0 20 -7 20 -18 0 -23 19
-42 42 -42 10 0 18 -4 18 -10 0 -14 -54 -12 -68 2 -9 9 -12 9 -12 0 0 -8 -17
-12 -45 -12 -34 0 -43 3 -39 14 4 11 0 13 -15 9 -12 -3 -21 -1 -21 6 0 6 7 11
15 11 8 0 15 5 15 10 0 6 -11 10 -25 10 -14 0 -25 4 -25 9 0 12 41 21 67 15
11 -3 24 -1 27 5 9 14 26 14 26 1z m6320 -46 c0 -25 5 -44 13 -47 9 -4 8 -8
-3 -16 -18 -13 -30 3 -30 43 0 16 -7 37 -15 46 -13 14 -12 16 10 16 23 0 25
-4 25 -42z m-90 -15 c0 -9 9 -36 20 -60 17 -39 19 -61 15 -194 -5 -177 -16
-260 -37 -282 -14 -14 -18 -13 -37 6 -12 12 -24 21 -27 21 -10 0 -64 58 -64
69 0 6 -4 11 -8 11 -5 0 -15 26 -22 58 -7 31 -21 80 -31 107 -11 28 -19 62
-19 77 0 21 -8 29 -43 44 -31 13 -48 28 -61 55 -20 42 -12 75 11 44 7 -11 13
-13 13 -7 0 14 70 -11 81 -30 12 -19 96 0 118 28 10 13 24 24 30 24 6 0 11 8
11 17 0 25 32 57 42 41 4 -7 8 -20 8 -29z m-6293 -90 c-1 -44 -3 -49 -14 -33
-16 22 -16 39 -1 64 7 11 13 20 14 20 1 0 1 -23 1 -51z m1963 -35 c0 -8 -4
-12 -10 -9 -5 3 -10 10 -10 16 0 5 5 9 10 9 6 0 10 -7 10 -16z m-2446 -21 l-7
-28 27 30 c29 33 36 23 9 -15 -9 -13 -18 -33 -18 -43 -1 -11 -9 -24 -18 -29
-10 -5 -17 -13 -17 -18 0 -15 -60 -102 -96 -140 -53 -55 -104 -121 -104 -134
0 -23 -36 -77 -59 -89 -14 -7 -31 -31 -40 -57 -14 -38 -21 -45 -42 -43 -18 2
-33 -10 -64 -49 -61 -79 -225 -238 -252 -244 -29 -8 -38 0 -27 23 4 10 8 23 9
28 1 18 40 49 99 80 85 44 121 96 75 108 l-22 6 24 29 c13 17 42 39 64 51 53
26 86 62 90 96 1 15 7 30 12 34 13 8 38 59 47 94 3 15 11 27 16 27 6 0 10 7
10 16 0 17 24 43 113 119 32 27 68 65 80 85 24 40 56 69 75 70 6 0 12 5 12 10
0 6 2 10 5 10 3 0 2 -12 -1 -27z m-4725 -31 c1 18 13 17 60 -5 83 -39 135
-150 102 -215 -5 -9 -14 -29 -21 -44 -16 -34 -54 -50 -112 -47 l-46 3 -6 44
c-8 60 -8 221 1 263 7 33 7 33 14 9 4 -15 7 -18 8 -8z m5270 -44 c11 -26 15
-29 18 -15 3 10 -1 24 -7 32 -8 9 -8 15 -2 15 6 0 13 -6 16 -12 5 -10 7 -10
12 0 3 6 19 12 35 12 27 0 29 -3 29 -39 0 -22 6 -42 13 -45 6 -3 1 -3 -13 0
-25 7 -25 7 -6 -15 11 -11 27 -21 37 -21 10 0 24 -9 33 -21 27 -40 96 -64 96
-34 0 12 16 15 80 15 l80 0 0 -49 c0 -28 -4 -53 -10 -56 -15 -9 -12 -55 4 -55
16 0 26 21 26 56 0 15 6 24 16 24 11 0 14 -6 8 -22 -4 -13 -9 -34 -11 -48 -1
-14 -9 -56 -18 -94 -9 -39 -15 -96 -14 -128 1 -34 -3 -64 -9 -70 -7 -7 -12
-19 -12 -28 0 -9 -13 -29 -30 -45 -16 -16 -30 -25 -30 -21 0 26 -41 -49 -50
-90 -6 -27 -23 -78 -39 -114 -16 -36 -50 -116 -77 -178 -27 -61 -50 -108 -52
-102 -2 6 -8 8 -13 4 -5 -3 -9 -2 -9 2 0 18 34 129 41 134 4 3 7 12 6 20 -2
21 12 90 24 119 7 16 6 28 -3 38 -9 11 -9 19 0 34 10 16 10 21 -3 25 -8 4 -21
1 -28 -4 -8 -7 -18 -7 -27 -2 -10 7 -11 10 -2 10 6 0 12 5 12 11 0 6 13 38 29
72 17 34 37 83 47 110 9 26 21 47 26 47 4 0 6 10 3 23 -3 12 -7 40 -9 62 -5
54 -24 123 -37 130 -5 4 -7 15 -4 25 4 12 -1 19 -14 23 -11 3 -22 17 -26 36
-10 48 -30 63 -73 55 l-37 -7 19 22 c23 25 13 40 -15 23 -16 -11 -20 -10 -25
5 -3 10 -12 34 -19 53 -22 61 -28 110 -13 110 8 0 20 -15 27 -32z m-3199 4 c0
-5 -9 -17 -20 -27 -16 -14 -20 -15 -20 -4 0 16 19 39 32 39 4 0 8 -4 8 -8z
m9598 -42 c133 -29 177 -45 180 -65 4 -27 -35 -43 -145 -59 -101 -16 -113 -10
-113 53 0 47 13 121 17 100 3 -10 24 -20 61 -29z m1347 -54 c28 -1 56 -5 61
-9 19 -11 15 -76 -6 -97 -11 -11 -20 -23 -20 -27 0 -5 -39 -19 -86 -32 -70
-19 -99 -22 -153 -17 -101 11 -241 44 -241 57 0 5 -8 9 -19 9 -22 0 -71 44
-71 64 0 30 29 44 107 50 43 4 130 12 193 19 96 11 121 11 150 0 19 -8 58 -15
85 -17z m-12017 -22 c28 -10 52 -24 52 -31 0 -7 6 -13 13 -13 7 0 27 -16 46
-35 18 -19 38 -35 45 -35 13 0 49 -29 133 -107 31 -29 63 -53 72 -53 9 0 12
-3 5 -10 -8 -8 -67 -17 -131 -19 -13 -1 -23 -7 -23 -16 0 -8 3 -14 8 -14 4 1
22 1 40 0 24 -1 32 -6 32 -19 0 -14 -7 -18 -27 -18 -62 1 -133 -15 -133 -29 0
-8 -7 -15 -16 -15 -8 0 -28 -13 -44 -29 -52 -52 -89 -60 -255 -54 -91 3 -166
10 -190 19 -22 8 -104 20 -182 28 -78 8 -151 20 -162 25 -11 6 -34 11 -51 11
-36 0 -80 26 -80 47 0 33 134 140 163 130 7 -2 31 2 54 9 24 7 43 9 43 5 0 -5
19 -11 43 -14 23 -3 66 -10 94 -15 51 -8 52 -8 33 10 -10 10 -53 25 -95 35
-41 9 -75 20 -75 25 0 4 -11 8 -25 8 -29 0 -35 29 -10 50 8 7 15 19 15 26 0
21 68 45 140 50 35 2 74 11 85 18 12 8 53 16 91 19 38 2 92 11 119 19 60 17
102 15 173 -8z m4752 -23 c0 -17 -18 -21 -24 -6 -3 9 0 15 9 15 8 0 15 -4 15
-9z m1060 -1 c0 -5 -7 -10 -15 -10 -8 0 -15 5 -15 10 0 6 7 10 15 10 8 0 15
-4 15 -10z m6483 -91 c8 -9 29 -22 46 -29 17 -7 31 -16 31 -21 0 -5 53 -9 118
-9 105 0 125 -3 197 -30 44 -16 81 -34 83 -40 2 -5 14 -10 26 -10 13 0 40 -17
62 -37 58 -57 113 -79 129 -53 13 22 25 8 25 -30 0 -22 4 -40 9 -40 5 0 13 -9
16 -21 4 -11 18 -24 32 -30 15 -5 23 -15 20 -23 -4 -9 2 -12 19 -8 20 4 24 10
24 43 0 32 3 39 20 39 18 0 20 -7 20 -75 0 -42 4 -76 10 -76 24 -3 140 -7 260
-8 l130 -1 0 -40 0 -40 160 0 160 0 0 -38 c0 -36 1 -38 35 -38 l35 0 2 76 c1
41 3 58 5 38 4 -37 5 -38 44 -38 39 0 39 0 39 -40 0 -22 5 -40 10 -40 13 0 13
-77 0 -82 -6 -2 -13 -55 -17 -121 -5 -88 -9 -117 -20 -117 -10 0 -13 -20 -13
-80 0 -47 -4 -80 -10 -80 -5 0 -10 -18 -10 -40 0 -23 -5 -40 -11 -40 -8 0 -10
-17 -7 -50 6 -58 0 -67 -118 -178 -19 -18 -39 -30 -44 -27 -6 4 -8 11 -5 16 3
5 0 6 -8 3 -8 -3 -26 5 -39 18 -13 13 -57 48 -97 78 -40 30 -78 60 -85 67 -11
10 -107 81 -172 128 -12 9 -36 29 -54 45 -19 17 -42 30 -52 30 -10 0 -27 9
-38 20 -11 11 -41 25 -67 31 -26 5 -67 19 -90 29 -34 15 -69 19 -180 20 -76 1
-154 3 -173 5 -38 4 -66 31 -50 50 6 7 21 32 33 56 13 24 33 48 45 54 30 13
36 55 29 196 l-6 117 -51 88 c-28 49 -53 99 -56 111 -3 11 -13 24 -22 27 -32
13 -62 31 -62 38 0 16 -78 28 -107 17 -52 -21 -174 -2 -218 33 -5 5 -39 24
-75 42 -86 45 -90 54 -49 97 28 28 41 34 75 34 23 -1 48 -8 57 -16z m-13306
-176 c-3 -10 -5 -4 -5 12 0 17 2 24 5 18 2 -7 2 -21 0 -30z m14103 -133 c0 -5
-2 -10 -4 -10 -3 0 -8 5 -11 10 -3 6 -1 10 4 10 6 0 11 -4 11 -10z m-1250
-110 c0 -13 -16 -15 -65 -12 -57 5 -58 20 -2 24 47 3 67 0 67 -12z m-157 -60
c-3 -10 -11 -25 -19 -31 -11 -9 -14 -42 -14 -138 l0 -126 -35 -29 c-19 -16
-35 -34 -35 -40 0 -7 -17 -10 -45 -8 -25 2 -45 9 -45 14 0 15 -52 58 -69 58
-11 0 -9 6 6 23 11 12 23 34 27 49 3 15 13 33 21 42 8 8 15 19 15 25 0 13 20
50 38 69 6 7 12 17 12 21 0 13 36 51 49 51 6 0 16 9 23 20 9 13 24 20 44 20
27 0 31 -3 27 -20z m717 -100 c0 -36 3 -40 25 -40 18 0 25 -5 25 -20 0 -17 7
-20 40 -20 33 0 40 -3 40 -20 0 -11 5 -20 10 -20 6 0 10 -18 10 -40 0 -22 5
-40 10 -40 6 0 10 -33 10 -79 0 -92 3 -90 -113 -81 -37 3 -192 3 -345 0 -152
-3 -312 -4 -355 -2 -76 5 -77 5 -56 23 12 11 26 19 30 19 4 0 23 14 41 30 18
17 34 26 36 20 2 -5 19 -10 38 -10 32 0 34 2 34 34 0 18 7 39 15 46 12 10 15
10 15 -1 0 -11 2 -11 10 1 9 13 10 13 10 0 0 -13 1 -13 10 0 9 13 10 13 10 0
0 -13 1 -13 10 0 5 8 10 10 10 4 0 -6 17 -10 40 -9 33 2 40 -1 40 -17 0 -14 8
-18 39 -18 33 0 40 4 45 24 5 19 12 23 35 21 l29 -2 7 78 7 79 39 0 c39 0 39
0 39 40 l0 40 55 0 55 0 0 -40z m-5960 -40 c8 -5 11 -10 5 -10 -5 0 -17 5 -25
10 -8 5 -10 10 -5 10 6 0 17 -5 25 -10z m715 -126 c44 -3 116 -16 160 -29 44
-13 136 -33 205 -46 136 -24 196 -43 170 -54 -9 -3 -25 -5 -35 -4 -72 7 -88
-15 -22 -31 23 -6 50 -15 59 -20 10 -6 26 -10 37 -10 10 0 24 -7 31 -15 7 -8
19 -15 27 -15 7 0 26 -11 41 -25 15 -14 36 -25 46 -25 15 0 17 -3 8 -12 -12
-12 -60 -2 -128 27 -17 7 -69 16 -115 20 -118 10 -213 39 -249 77 -17 17 -30
34 -30 38 0 3 -21 14 -47 23 -50 18 -122 21 -210 8 -49 -7 -197 7 -255 24 -49
14 -108 38 -104 42 2 2 56 8 120 13 63 5 123 13 133 19 10 6 32 9 48 6 17 -3
66 -8 110 -11z m2125 -99 c9 -10 9 -15 1 -15 -14 0 -14 -27 0 -32 6 -2 -2 -10
-18 -18 -15 -8 -34 -21 -41 -27 -7 -7 -17 -13 -20 -13 -4 0 -12 -10 -17 -22
-14 -32 -92 -66 -179 -80 -42 -6 -76 -15 -76 -19 0 -4 -11 -10 -25 -13 -14 -4
-33 -18 -42 -33 -42 -64 -155 -159 -174 -147 -6 3 -25 0 -42 -9 -57 -26 -134
-47 -175 -47 -35 0 -39 3 -35 19 6 22 -2 35 -66 109 -43 50 -99 84 -186 111
-55 17 -103 40 -110 51 -3 6 -15 10 -26 10 -10 0 -27 4 -37 9 -9 5 -29 14 -44
22 -86 39 46 34 148 -7 33 -13 76 -24 95 -24 l34 1 -31 13 c-17 8 -39 25 -48
37 -17 24 -17 24 31 33 56 10 322 11 405 1 42 -5 64 -13 83 -33 24 -24 25 -27
10 -38 -13 -10 -7 -13 37 -18 188 -23 208 -20 276 43 37 34 39 41 15 42 -10 0
0 6 22 13 22 7 45 11 51 9 14 -5 154 66 154 78 0 14 16 11 30 -6z m-4903 -117
c-3 -8 -6 -5 -6 6 -1 11 2 17 5 13 3 -3 4 -12 1 -19z m8337 -24 c9 -3 16 -11
16 -18 0 -14 66 -51 94 -52 59 -2 73 -6 97 -27 26 -22 101 -165 93 -178 -2 -4
-24 -5 -49 -4 -33 2 -54 11 -80 34 -19 17 -35 33 -35 37 0 14 -116 115 -137
121 -16 3 -23 13 -23 29 0 20 -5 24 -29 24 -16 0 -31 -5 -33 -12 -3 -7 -9 -8
-18 -3 -19 12 15 35 52 35 15 0 28 5 28 10 0 12 3 12 24 4z m-12294 -218 c0
-3 -4 -8 -10 -11 -5 -3 -10 -1 -10 4 0 6 5 11 10 11 6 0 10 -2 10 -4z m-113
-78 c-3 -8 -6 -5 -6 6 -1 11 2 17 5 13 3 -3 4 -12 1 -19z m12888 2 c10 -11 24
-20 31 -20 17 0 95 -42 116 -62 10 -10 29 -20 42 -24 14 -3 27 -12 30 -20 3
-8 12 -14 21 -14 8 0 15 -4 15 -9 0 -5 16 -15 36 -21 19 -7 40 -20 47 -31 6
-10 17 -19 24 -19 7 0 13 -7 13 -15 0 -8 4 -15 8 -15 12 0 32 -46 32 -74 0
-24 -36 -56 -63 -56 -8 0 -50 20 -93 46 -103 59 -116 67 -131 81 -8 7 -27 20
-43 30 -17 9 -30 21 -30 26 0 12 -53 56 -67 57 -7 0 -13 5 -13 11 0 7 -10 22
-22 34 -57 54 -74 97 -45 108 30 13 75 6 92 -13z m3855 -1033 c0 -12 -28 -46
-175 -219 -16 -20 -19 -28 -9 -28 20 0 17 -13 -7 -33 -35 -30 -18 -42 72 -48
l84 -5 -77 -2 c-85 -2 -108 -8 -108 -27 0 -22 -19 -28 -35 -11 -17 17 -20 30
-5 21 12 -7 12 2 0 30 -5 11 -9 14 -9 7 -1 -7 -5 -10 -11 -7 -5 3 -10 -3 -10
-14 0 -12 -4 -21 -10 -21 -5 0 -10 7 -10 15 0 8 -4 15 -10 15 -5 0 -10 8 -10
18 0 22 56 133 64 125 9 -9 56 40 56 60 0 26 -14 21 -34 -14 -10 -17 -20 -28
-22 -26 -7 7 30 66 44 72 8 3 16 -3 19 -15 5 -17 13 -13 77 37 124 98 118 89
-26 -38 -41 -36 -48 -47 -48 -78 l1 -36 26 30 c14 17 53 61 87 99 33 38 64 77
68 87 9 22 18 25 18 6z m-1675 -61 c26 -25 56 -89 50 -104 -4 -11 -13 -5 -35
24 -42 58 -54 119 -15 80z m275 -166 c0 -11 4 -20 10 -20 5 0 15 9 22 20 12
19 38 28 38 12 0 -4 20 -6 45 -4 41 4 46 2 55 -23 12 -32 6 -45 -21 -45 -15 0
-19 -7 -19 -39 0 -67 -32 -73 -97 -17 -29 25 -64 136 -43 136 5 0 10 -9 10
-20z m699 -82 c75 -42 124 -82 114 -92 -4 -3 5 -7 18 -7 21 -1 21 -2 -6 -9
-40 -10 -253 -10 -285 0 -14 4 -20 8 -14 9 6 1 9 12 6 26 -3 17 5 39 24 66 26
38 29 40 68 33 22 -3 56 -15 75 -26z m-12737 -70 c-3 -31 -8 -38 -26 -37 -17
1 -17 2 -3 6 9 2 14 9 11 15 -5 8 16 63 21 55 1 -1 0 -19 -3 -39z m13216 -35
c-15 -2 -42 -2 -60 0 -18 2 -6 4 27 4 33 0 48 -2 33 -4z m245 0 c-13 -2 -33
-2 -45 0 -13 2 -3 4 22 4 25 0 35 -2 23 -4z"/>
<path d="M9047 8843 c-63 -3 -83 -8 -100 -25 l-22 -21 135 6 c74 2 141 3 148
0 14 -6 17 -83 2 -83 -5 0 -10 8 -10 18 -1 16 -1 16 -14 0 -7 -10 -25 -18 -40
-18 -14 0 -26 -4 -26 -9 0 -5 31 -11 70 -13 100 -5 121 -36 38 -55 -16 -3 -28
-12 -28 -19 0 -8 -9 -14 -19 -14 -32 0 -33 -17 -4 -40 25 -20 35 -21 105 -15
58 5 78 4 78 -5 0 -7 11 -21 25 -32 14 -11 25 -24 25 -29 0 -5 -11 -9 -25 -9
-16 0 -25 -6 -25 -15 0 -11 11 -15 40 -15 34 0 40 -3 40 -21 0 -12 8 -23 20
-26 11 -3 20 -12 20 -19 0 -19 27 -18 38 3 10 16 20 14 56 -9 15 -10 20 -10
23 -1 3 10 8 9 20 -2 8 -8 23 -15 34 -15 16 0 18 5 13 28 -4 15 -14 32 -23 39
-13 9 -13 14 -4 24 7 7 20 13 30 14 33 2 43 16 43 57 0 23 -3 39 -6 35 -4 -3
-23 5 -43 18 -19 14 -41 25 -48 25 -7 0 -13 5 -13 10 0 6 -7 10 -15 10 -8 0
-15 9 -15 19 0 20 -25 51 -41 51 -5 0 -9 -11 -9 -25 0 -14 -2 -25 -5 -25 -12
0 -75 70 -75 84 0 23 -59 76 -85 76 -13 0 -35 11 -49 25 -27 27 -34 27 -259
18z m493 -248 c0 -8 -4 -15 -10 -15 -5 0 -10 7 -10 15 0 8 5 15 10 15 6 0 10
-7 10 -15z"/>
<path d="M7513 8693 c-7 -2 -13 -10 -13 -18 0 -13 -37 -14 -78 -1 -34 11 -87
-29 -103 -76 -7 -21 -16 -38 -21 -38 -4 0 -8 -5 -8 -12 0 -21 58 46 62 71 2
18 10 25 28 25 24 1 25 -1 15 -21 -5 -13 -16 -23 -23 -23 -7 0 -10 -4 -7 -10
3 -5 1 -10 -4 -10 -6 0 -11 -4 -11 -10 0 -5 6 -10 13 -10 8 0 13 -25 15 -83 3
-79 4 -83 39 -119 41 -42 89 -64 97 -45 2 7 5 5 5 -4 1 -11 19 -20 59 -29 31
-7 66 -18 77 -23 34 -18 105 -25 105 -12 0 7 18 17 40 23 28 7 40 7 40 -1 0
-8 4 -7 12 1 9 9 7 16 -6 31 -18 20 -18 20 11 9 18 -7 40 -8 59 -2 l29 8 -35
4 c-19 2 -43 11 -52 19 -11 10 -18 12 -18 5 0 -7 -13 -4 -32 8 -18 11 -41 20
-50 20 -9 0 -31 13 -49 30 l-33 29 29 11 28 11 -23 24 c-13 14 -31 25 -39 25
-9 0 -22 4 -29 9 -11 7 -12 12 -1 29 11 18 11 24 -4 40 -23 25 -22 29 9 36 15
4 32 13 40 20 11 12 2 18 -57 40 -69 26 -92 29 -116 19z"/>
<path d="M8061 8641 c-10 -6 -10 -10 -1 -16 13 -8 24 -1 19 14 -3 6 -10 7 -18
2z"/>
<path d="M7978 8273 c7 -3 16 -2 19 1 4 3 -2 6 -13 5 -11 0 -14 -3 -6 -6z"/>
<path d="M8648 8103 c7 -3 16 -2 19 1 4 3 -2 6 -13 5 -11 0 -14 -3 -6 -6z"/>
<path d="M8443 8073 c9 -2 25 -2 35 0 9 3 1 5 -18 5 -19 0 -27 -2 -17 -5z"/>
<path d="M8465 8020 c3 -5 8 -10 11 -10 2 0 4 5 4 10 0 6 -5 10 -11 10 -5 0
-7 -4 -4 -10z"/>
<path d="M15843 3005 c0 -22 2 -30 4 -17 2 12 2 30 0 40 -3 9 -5 -1 -4 -23z"/>
<path d="M4750 7274 c0 -12 38 -50 44 -43 2 2 -7 15 -20 29 -13 13 -24 20 -24
14z"/>
<path d="M5165 7061 c-3 -5 -1 -12 5 -16 5 -3 10 1 10 9 0 18 -6 21 -15 7z"/>
<path d="M5358 6943 c7 -3 16 -2 19 1 4 3 -2 6 -13 5 -11 0 -14 -3 -6 -6z"/>
<path d="M5420 6890 c0 -5 5 -10 11 -10 5 0 7 5 4 10 -3 6 -8 10 -11 10 -2 0
-4 -4 -4 -10z"/>
<path d="M5410 6786 c0 -10 28 -13 41 -5 10 6 7 9 -13 9 -16 0 -28 -2 -28 -4z"/>
<path d="M5705 5750 c3 -5 10 -10 16 -10 5 0 9 5 9 10 0 6 -7 10 -16 10 -8 0
-12 -4 -9 -10z"/>
<path d="M3837 7073 c-19 -18 -5 -33 33 -33 25 0 42 -6 48 -16 6 -11 19 -14
43 -12 19 3 33 7 32 11 -2 4 -3 18 -3 32 0 24 -2 25 -73 25 -41 0 -77 -3 -80
-7z m129 -40 c-11 -11 -35 -12 -42 -2 -3 5 7 9 22 9 15 0 24 -3 20 -7z"/>
<path d="M533 6840 c0 -25 2 -35 4 -22 2 12 2 32 0 45 -2 12 -4 2 -4 -23z"/>
<path d="M1040 5840 c0 -5 18 -10 40 -10 22 0 40 5 40 10 0 6 -18 10 -40 10
-22 0 -40 -4 -40 -10z"/>
<path d="M2132 5228 c-18 -18 -15 -28 8 -28 13 0 20 7 20 20 0 23 -10 26 -28
8z"/>
<path d="M2065 5210 c-3 -5 -1 -10 4 -10 6 0 11 5 11 10 0 6 -2 10 -4 10 -3 0
-8 -4 -11 -10z"/>
<path d="M573 4445 c0 -22 2 -30 4 -17 2 12 2 30 0 40 -3 9 -5 -1 -4 -23z"/>
<path d="M5573 3755 c0 -6 6 -16 14 -23 11 -10 13 -8 13 11 0 13 -6 24 -13 24
-8 0 -14 -5 -14 -12z"/>
<path d="M7860 2732 c0 -14 11 -21 26 -15 8 3 11 9 8 14 -7 11 -34 12 -34 1z"/>
<path d="M6110 3273 c0 -5 4 -14 9 -22 8 -12 11 -12 25 1 8 9 12 18 9 22 -9 9
-43 8 -43 -1z"/>
<path d="M6151 3053 c0 -7 -12 -13 -26 -13 -22 0 -25 -4 -25 -35 0 -40 16 -46
43 -14 11 12 17 31 14 47 -2 15 -5 21 -6 15z"/>
<path d="M1280 3050 c0 -5 11 -10 24 -10 13 0 50 -13 82 -30 32 -16 68 -30 79
-29 27 0 -83 58 -112 59 -12 0 -25 5 -28 10 -3 6 -15 10 -26 10 -10 0 -19 -4
-19 -10z"/>
<path d="M13760 2544 c0 -8 5 -12 10 -9 6 3 10 10 10 16 0 5 -4 9 -10 9 -5 0
-10 -7 -10 -16z"/>
<path d="M13443 2435 c0 -22 2 -30 4 -17 2 12 2 30 0 40 -3 9 -5 -1 -4 -23z"/>
<path d="M18352 747 c-20 -21 -35 -48 -39 -72 l-6 -39 31 23 c40 28 54 54 50
92 l-3 30 -33 -34z"/>
</g>
</svg>
