<?xml version="1.0" standalone="no"?>
<!DOCTYPE svg PUBLIC "-//W3C//DTD SVG 20010904//EN"
 "http://www.w3.org/TR/2001/REC-SVG-20010904/DTD/svg10.dtd">
<svg version="1.0" xmlns="http://www.w3.org/2000/svg"
 width="1920.000000pt" height="1080.000000pt" viewBox="0 0 1920.000000 1080.000000"
 preserveAspectRatio="xMidYMid meet">

<g transform="translate(0.000000,1080.000000) scale(0.100000,-0.100000)"
fill="#000000" stroke="none">
<path d="M81 9678 c1 -574 5 -1020 10 -993 4 28 8 83 8 123 1 101 21 92 23
-10 l2 -83 6 85 6 85 2 -82 c1 -46 6 -83 11 -83 5 0 11 5 13 11 3 8 13 9 28 4
l25 -8 -28 -10 c-28 -9 -28 -10 -21 -66 3 -31 11 -64 16 -75 8 -14 7 -17 -4
-14 -7 3 -14 21 -16 41 -2 20 -7 37 -12 37 -11 0 -19 -82 -9 -96 5 -6 4 -15
-2 -21 -16 -16 -2 -33 29 -34 19 -1 14 -4 -17 -10 -54 -10 -64 -19 -25 -20
l29 -1 -27 -11 c-22 -9 -26 -15 -24 -48 2 -28 -1 -36 -11 -32 -11 4 -13 -87
-13 -543 1 -351 4 -544 10 -534 8 13 10 12 10 -2 0 -10 -6 -18 -12 -18 -17 0
37 -29 87 -46 l40 -14 -45 6 c-25 3 -56 7 -70 10 l-25 4 25 -9 c14 -5 52 -17
85 -27 53 -16 57 -19 35 -25 -27 -8 -24 -9 29 -15 49 -6 52 -14 5 -14 -29 0
-35 -3 -24 -10 8 -5 29 -10 45 -11 30 -2 30 -2 -5 -9 l-35 -7 45 -3 45 -3 -45
-7 c-44 -7 -44 -7 -10 -10 l35 -3 -35 -7 -35 -7 45 -3 c32 -1 39 -4 23 -8 -17
-5 -20 -11 -13 -22 5 -8 10 -27 10 -42 0 -24 4 -28 28 -29 l27 -1 -30 -8 -30
-8 30 -2 c28 -3 27 -3 -10 -10 -36 -6 -37 -7 -10 -9 23 -1 31 -6 32 -21 2 -17
-2 -20 -20 -15 -17 5 -19 4 -7 -4 8 -6 26 -11 40 -12 23 -1 23 -2 -5 -9 -16
-4 -23 -8 -15 -9 8 0 21 -11 29 -22 11 -18 11 -23 -1 -30 -9 -6 -5 -9 15 -9
15 0 27 -4 27 -10 0 -5 -12 -11 -27 -11 -27 -2 -27 -2 -3 -6 33 -6 51 -23 24
-23 -33 0 6 -20 41 -20 l30 -1 -30 -13 c-31 -14 -31 -15 21 -31 8 -3 13 -9 10
-14 -3 -5 1 -11 9 -15 9 -3 15 -18 15 -37 0 -24 4 -30 15 -25 8 3 15 1 15 -4
0 -6 8 -10 18 -10 14 0 15 -2 2 -10 -12 -7 -11 -10 5 -17 19 -7 18 -8 -5 -14
l-25 -6 25 -11 c16 -7 19 -11 9 -11 -13 -1 -16 -10 -14 -41 1 -22 -2 -40 -8
-40 -6 0 -7 -3 -4 -7 4 -3 2 -12 -3 -19 -6 -6 -10 -16 -9 -20 3 -11 -7 -39
-32 -89 -10 -22 -19 -46 -19 -52 0 -7 -8 -13 -17 -14 -11 0 -13 -3 -5 -6 17
-7 15 -23 -4 -23 -8 0 -12 -4 -9 -10 3 -6 -4 -10 -17 -10 -16 0 -19 -3 -10 -9
11 -7 11 -9 -1 -14 -8 -3 -20 0 -26 6 -9 9 -11 8 -6 -4 5 -12 -7 -20 -52 -35
-32 -10 -63 -19 -70 -19 -6 0 -15 -4 -19 -8 -11 -11 -26 -9 -19 3 3 6 1 10 -4
10 -6 0 -11 -5 -11 -11 0 -6 -7 -9 -15 -5 -8 3 -15 0 -15 -7 0 -8 -4 -6 -10 3
-8 13 -10 13 -10 0 0 -11 -3 -11 -12 -2 -17 17 -28 15 -29 -5 0 -15 -2 -15 -9
2 -5 12 -9 -138 -9 -358 -1 -250 2 -376 9 -372 5 3 10 14 10 23 0 15 2 15 10
2 8 -12 10 -12 11 5 l0 20 8 -20 8 -20 6 20 c2 11 4 0 2 -24 -1 -24 -9 -51
-16 -60 -49 -61 -49 -57 -49 -433 0 -344 1 -354 20 -366 19 -12 39 -47 46 -81
1 -7 12 -20 23 -28 12 -8 21 -20 21 -27 0 -8 10 -20 23 -29 21 -15 21 -15 3
-23 -14 -5 -38 2 -78 23 l-58 30 0 -78 c0 -55 4 -84 15 -96 8 -10 44 -49 79
-87 38 -40 62 -75 59 -83 -6 -16 -39 -9 -66 15 -10 9 -33 21 -52 28 l-35 12 0
-110 c0 -101 2 -111 23 -130 17 -15 18 -18 5 -14 -22 7 -24 -10 -3 -18 9 -3
15 -18 15 -35 0 -16 3 -31 8 -33 12 -5 42 -78 42 -103 0 -16 -6 -25 -15 -25
-23 0 -18 -16 5 -17 11 -1 20 2 20 8 0 5 9 9 20 9 22 0 27 16 8 23 -10 4 -10
7 -1 18 10 10 13 10 13 0 0 -13 24 -41 35 -41 4 0 24 -13 45 -30 21 -16 48
-34 61 -39 l24 -10 -22 0 c-32 -1 -28 -14 9 -34 67 -35 93 -54 104 -75 6 -12
13 -19 17 -16 12 12 28 -38 21 -71 -6 -31 -2 -38 46 -82 29 -26 76 -64 105
-83 104 -69 165 -140 152 -174 -5 -13 -17 -15 -62 -10 -50 5 -55 4 -55 -14 0
-22 19 -71 56 -147 31 -64 15 -71 -35 -16 -20 22 -44 41 -52 41 -8 0 -21 6
-28 12 -11 11 -12 7 -7 -22 4 -19 9 -64 12 -100 l5 -65 -17 35 c-27 58 -63
163 -58 172 3 4 -3 5 -12 1 -11 -4 -15 -3 -10 5 10 16 -35 82 -56 82 -10 0
-20 10 -24 25 -3 13 -12 29 -20 36 -8 6 -14 21 -14 33 0 12 -5 27 -12 34 -6 6
-9 14 -6 18 7 6 43 -13 72 -39 11 -9 25 -17 30 -17 14 0 42 18 36 22 -23 18
-62 38 -72 38 -19 0 -72 91 -69 117 1 13 -8 33 -23 48 -14 14 -25 26 -25 28 2
12 -16 37 -27 37 -8 0 -18 10 -23 23 -5 13 -16 29 -25 36 -9 7 -16 20 -16 27
0 8 -9 14 -20 14 -11 0 -20 4 -20 9 0 4 -18 21 -40 36 -25 17 -36 31 -30 35 6
4 -9 15 -34 24 l-45 17 -4 62 c-2 34 -4 -747 -5 -1735 l-2 -1798 940 0 940 0
-20 40 c-24 47 -24 50 -4 50 8 0 13 -4 10 -9 -3 -4 6 -6 20 -3 29 5 114 -16
114 -29 0 -5 -6 -9 -12 -10 -7 0 -31 -9 -53 -19 l-40 -19 113 0 c90 -1 112 2
112 13 0 8 -14 19 -30 25 -17 5 -30 14 -30 20 0 5 16 44 35 87 19 42 35 80 35
84 0 3 -10 6 -22 6 -18 -1 -23 6 -29 38 -6 38 -22 55 -64 67 -17 4 -20 13 -17
47 2 30 -2 42 -11 42 -25 0 -47 36 -47 77 0 32 -4 42 -20 46 -30 8 -41 52 -37
146 7 120 -3 176 -36 202 -17 13 -27 30 -27 47 l0 27 -25 -28 c-33 -35 -45
-34 -45 3 0 21 -5 30 -16 30 -12 0 -14 7 -10 28 15 78 17 102 8 119 -7 12 -7
36 0 72 7 41 6 56 -3 62 -10 6 -10 22 0 79 16 90 9 131 -32 171 -46 47 -57 74
-57 147 l0 66 -20 -22 c-12 -12 -22 -22 -24 -22 -2 0 -4 64 -5 142 -1 78 -4
144 -6 147 -3 2 -21 -11 -40 -29 -19 -18 -37 -32 -39 -29 -2 2 6 36 20 74 25
74 31 130 14 140 -13 8 -13 72 0 80 5 3 9 20 9 38 -1 18 3 76 10 129 10 82 10
104 -3 141 -8 23 -20 89 -27 145 l-12 102 -31 -5 c-28 -5 -33 -2 -50 34 -15
32 -18 56 -14 125 l4 86 -26 -32 -27 -32 -13 23 c-7 13 -15 51 -17 85 -6 61
-18 90 -34 80 -31 -19 -109 99 -109 165 0 56 -20 144 -36 156 -14 11 -22 53
-33 175 -4 47 -15 99 -24 115 -23 42 -41 82 -61 135 -12 32 -25 49 -48 60 -41
20 -44 27 -56 146 -5 56 -16 112 -22 125 -7 13 -13 43 -13 69 0 25 -6 61 -14
81 -13 33 -11 56 16 246 17 115 36 223 42 241 10 29 8 100 -7 233 -3 31 -1 73
4 93 6 21 7 38 1 42 -5 3 -9 18 -9 35 0 18 -5 29 -14 29 -8 0 -18 10 -21 23
-4 12 -23 57 -41 101 -55 124 -45 207 35 298 17 20 31 40 31 46 0 6 9 17 20
25 11 8 17 17 13 20 -3 4 1 7 10 7 9 0 16 3 14 8 -3 9 7 12 36 12 18 0 19 -2
7 -10 -8 -5 -10 -10 -4 -10 6 0 12 -11 12 -25 0 -14 -5 -25 -10 -25 -5 0 -4
-9 2 -19 7 -14 6 -21 -3 -24 -9 -4 -9 -6 0 -6 6 -1 15 4 18 9 3 6 18 10 33 11
15 0 21 3 14 6 -24 10 -12 22 14 13 35 -14 41 -12 18 5 -18 14 -18 14 9 15 15
0 27 4 27 9 0 5 10 7 23 4 18 -4 19 -3 7 6 -13 10 -13 11 0 11 12 0 12 2 2 9
-11 7 -11 9 2 14 8 3 17 1 20 -6 3 -9 7 -9 14 1 5 7 16 10 25 6 9 -3 17 -2 17
4 0 6 -6 13 -12 15 -8 3 -5 6 5 6 12 1 16 5 11 14 -5 8 -2 8 9 -2 11 -9 17
-10 17 -2 0 6 7 11 15 11 8 0 15 5 15 10 0 6 -5 10 -12 10 -6 0 -8 3 -5 6 4 4
13 1 22 -6 9 -7 18 -10 22 -6 3 3 1 6 -6 6 -7 0 -10 4 -6 10 3 5 13 7 23 4 14
-5 15 -4 2 5 -19 13 -11 20 52 42 29 9 47 18 40 18 -18 1 -4 21 14 21 17 0 38
18 47 40 4 11 6 10 6 -4 1 -19 2 -19 21 2 11 12 25 32 30 44 l9 23 0 -22 c1
-28 21 -41 21 -13 0 12 4 19 9 15 5 -3 12 3 14 12 3 13 5 11 7 -7 1 -23 3 -22
15 10 9 24 14 29 15 15 l1 -20 15 20 c8 11 18 19 22 17 3 -2 9 5 13 15 6 13 8
8 9 -17 2 -34 2 -33 15 15 9 36 13 43 15 25 l2 -25 7 25 8 25 5 -25 c5 -24 5
-23 8 5 2 30 2 30 10 5 l8 -25 1 25 2 25 15 -25 15 -25 -5 35 c-6 35 -5 35 9
10 11 -19 14 -21 15 -7 0 9 4 17 9 17 5 0 12 -8 14 -17 4 -17 5 -17 6 0 1 21
32 19 44 -3 4 -9 5 -3 2 13 -3 15 -1 27 5 27 5 0 10 -5 10 -11 0 -8 5 -8 15 1
12 10 15 9 15 -6 1 -18 1 -18 11 -1 5 9 15 17 22 17 7 0 6 -4 -3 -10 -11 -7
-6 -10 20 -11 30 0 32 -2 15 -10 -18 -9 -18 -9 3 -4 12 3 30 8 41 11 13 4 20
-1 25 -18 5 -14 9 -18 13 -10 7 19 23 14 34 -10 8 -20 9 -20 4 7 -4 28 -4 28
7 8 12 -26 33 -32 24 -7 -3 8 -2 12 4 9 6 -3 10 -21 11 -38 1 -31 1 -31 9 -7
4 14 9 18 10 10 1 -8 6 -4 10 10 7 22 8 21 9 -12 1 -38 21 -65 21 -28 0 13 4
18 11 14 6 -3 9 -14 6 -23 -2 -10 1 -18 9 -18 7 0 13 3 12 6 0 3 0 12 1 19 2
20 21 3 21 -19 0 -10 5 -19 10 -19 6 0 10 9 10 21 0 11 5 17 10 14 6 -4 9 -9
7 -13 -2 -4 5 -15 15 -25 16 -15 19 -16 24 -2 5 13 9 13 22 3 14 -12 74 -19
165 -20 21 0 49 8 63 17 24 16 27 16 40 -2 11 -13 17 -14 20 -5 3 6 12 12 20
12 8 0 17 7 20 15 4 8 10 12 16 9 5 -3 4 -12 -3 -20 -6 -8 -9 -17 -6 -20 3 -3
14 7 23 23 10 15 21 30 25 33 3 3 9 12 12 20 3 9 6 3 6 -13 1 -19 -3 -26 -11
-21 -7 5 -8 3 -3 -6 6 -10 11 -10 20 3 7 10 20 17 30 17 9 0 19 9 22 20 3 11
10 20 15 20 6 0 7 -7 4 -16 -5 -14 -4 -15 9 -4 8 7 15 18 15 26 0 7 4 15 9 19
6 3 8 -4 6 -15 -2 -11 0 -20 6 -20 5 0 9 6 9 14 0 15 19 25 36 19 7 -2 11 -12
9 -21 -1 -9 0 -11 2 -4 3 8 12 11 21 8 10 -3 7 1 -5 10 -31 22 -29 38 2 18 24
-16 25 -16 26 7 l1 24 8 -25 8 -25 1 24 c1 20 5 23 31 19 22 -3 30 0 30 10 0
11 3 12 14 3 12 -10 13 -8 9 9 -4 16 -2 19 11 14 9 -3 16 -14 17 -23 1 -17 1
-15 15 28 3 11 7 11 20 0 8 -7 14 -8 13 -3 -4 24 3 26 16 4 l15 -25 -6 26 c-3
15 -1 30 5 33 6 4 11 1 12 -6 1 -7 5 -2 9 12 5 17 8 19 9 8 1 -25 21 -23 21 2
0 25 17 26 24 3 3 -10 4 -6 2 10 -3 22 -1 25 11 16 10 -9 12 -9 8 2 -5 15 39
69 56 69 6 0 7 4 4 10 -3 5 6 12 20 16 25 6 25 7 8 27 -18 19 -17 20 10 15 19
-4 27 -1 27 8 0 8 -7 14 -15 14 -8 0 -15 4 -15 10 0 5 7 7 15 4 9 -4 15 0 15
10 0 9 6 16 13 16 7 0 4 7 -7 15 -20 15 -20 15 0 17 10 0 26 1 34 0 13 0 13 1
-1 11 -9 7 -16 27 -16 47 0 19 -3 44 -7 55 -7 18 -6 17 11 -2 18 -23 18 -22
19 55 2 135 4 159 13 137 6 -15 10 -8 16 33 4 28 11 52 17 52 5 0 6 5 3 10 -3
6 -1 10 5 10 7 0 10 6 7 14 -4 10 3 16 21 19 27 4 27 4 -3 6 l-30 2 35 12 c19
7 36 18 36 25 1 6 2 17 3 23 0 6 10 9 21 6 24 -6 25 -3 7 15 -12 11 -12 16 1
28 14 13 15 12 9 -3 -3 -9 -2 -17 3 -17 6 0 10 5 10 10 0 17 28 11 34 -7 3
-10 4 -5 2 10 -3 26 -3 27 15 11 21 -19 24 -13 8 19 -9 21 -9 21 5 3 8 -10 19
-15 25 -12 6 4 20 2 32 -4 19 -11 20 -10 14 11 -6 19 -5 21 11 14 11 -4 31 -7
46 -6 15 1 29 -3 33 -9 3 -5 11 -10 16 -10 6 0 7 5 4 10 -3 6 -1 10 4 10 6 0
11 -4 11 -10 0 -5 7 -7 15 -3 9 3 15 2 13 -3 -2 -5 1 -9 7 -9 5 0 9 3 8 6 -1
4 7 5 18 2 15 -4 17 -8 8 -14 -8 -4 -10 -11 -6 -15 3 -4 13 -1 22 6 8 7 22 9
32 5 31 -12 127 -34 148 -34 16 1 15 2 -5 9 l-25 8 28 1 c18 1 27 -4 27 -14 0
-10 10 -15 29 -15 15 0 57 -2 92 -5 l64 -4 -80 14 -80 13 115 -5 c102 -4 148
-11 208 -29 9 -3 -1 6 -23 20 -44 28 -32 35 16 10 36 -18 51 -11 23 12 -10 9
3 4 30 -10 47 -25 76 -35 46 -16 -8 5 -11 12 -7 16 3 4 13 2 20 -4 8 -7 18 -8
22 -4 5 4 5 2 1 -5 -3 -6 -2 -14 4 -18 5 -3 10 -2 10 2 0 5 9 9 20 10 11 1 20
-4 20 -10 0 -7 4 -6 10 3 8 13 11 11 16 -7 5 -19 16 -23 65 -29 32 -4 59 -11
59 -16 0 -11 33 -6 42 7 4 6 8 -1 8 -15 1 -24 1 -24 12 -5 11 18 12 18 18 1 6
-17 8 -17 21 -4 12 14 16 13 33 -6 13 -15 20 -17 23 -8 4 9 11 6 24 -9 10 -12
19 -17 19 -10 0 8 6 8 23 -1 12 -7 25 -17 28 -21 3 -4 10 -7 15 -6 24 4 36 -2
30 -16 -4 -13 -2 -13 14 -5 26 14 35 13 21 -4 -13 -16 4 -26 46 -26 20 0 23
-3 14 -14 -9 -11 -6 -12 15 -8 20 3 26 0 31 -17 3 -11 11 -21 18 -21 22 0 65
-45 65 -68 0 -12 6 -21 13 -20 6 2 11 -5 9 -14 -1 -9 2 -19 7 -23 6 -3 8 -12
4 -20 -3 -9 1 -15 10 -15 9 0 19 -5 23 -12 5 -8 1 -9 -12 -5 -13 5 -11 0 9
-18 15 -14 24 -25 18 -25 -5 0 -9 -9 -8 -20 1 -11 5 -20 9 -20 5 0 4 -9 -2
-19 -14 -26 -13 -31 5 -25 8 4 15 1 15 -5 0 -6 -5 -11 -11 -11 -5 0 -8 -4 -4
-10 3 -5 13 -7 23 -4 16 5 16 5 0 -6 -25 -16 -22 -29 5 -22 20 5 21 4 8 -11
-12 -15 -11 -17 5 -18 11 0 14 -3 7 -6 -7 -2 -13 -12 -12 -21 0 -11 2 -12 6
-4 2 6 9 12 14 12 6 0 7 -5 3 -12 -4 -6 1 -17 11 -25 17 -12 17 -13 2 -13 -9
0 -17 -5 -17 -11 0 -5 5 -7 11 -3 7 4 10 1 7 -7 -6 -16 30 -51 43 -43 5 3 9
-6 9 -20 0 -28 15 -43 23 -24 3 8 6 6 6 -4 1 -10 6 -18 12 -18 5 0 8 -4 4 -9
-3 -5 0 -13 6 -17 8 -4 9 -3 5 4 -4 7 -2 12 3 12 6 0 11 -3 11 -7 0 -5 9 -19
20 -33 16 -20 19 -21 13 -5 -6 18 -5 18 10 6 9 -7 14 -17 11 -22 -3 -5 -1 -9
5 -9 5 0 12 6 14 13 3 7 6 4 6 -6 1 -10 8 -26 17 -35 15 -15 16 -14 11 8 -5
21 -5 21 5 -2 14 -32 25 -36 31 -10 4 13 5 13 6 -4 0 -12 13 -29 27 -39 15
-10 23 -12 19 -4 -6 9 -3 11 9 6 10 -4 25 -7 34 -7 15 0 15 -2 2 -10 -11 -7
-6 -10 20 -11 32 -1 33 -2 10 -9 -14 -4 -19 -8 -12 -9 7 -1 20 -8 28 -16 9 -8
27 -15 42 -16 23 0 24 -2 8 -8 -19 -7 -19 -8 2 -13 15 -4 22 -2 22 9 0 8 5 11
10 8 6 -4 7 -11 4 -17 -5 -7 -1 -9 9 -5 11 4 17 1 17 -9 0 -11 -7 -14 -22 -10
-13 3 -5 -3 17 -14 22 -11 48 -20 58 -20 9 0 17 -7 17 -16 0 -14 2 -15 16 -3
15 12 16 11 10 -9 -5 -14 -3 -22 4 -22 7 0 10 -7 6 -17 -6 -17 -5 -17 8 0 16
21 30 22 22 2 -6 -17 35 -31 56 -19 9 5 10 4 3 -4 -5 -5 -17 -12 -25 -15 -8
-2 -3 -3 11 -1 15 2 30 0 34 -4 4 -4 10 -7 15 -7 4 0 17 -11 29 -25 19 -21 20
-22 9 -3 -10 19 -10 25 1 35 9 8 11 9 7 1 -7 -13 19 -43 37 -43 7 0 4 7 -5 14
-32 24 -19 34 19 15 58 -29 94 -33 141 -12 23 9 44 23 46 30 3 7 -8 4 -27 -7
-44 -25 -84 -33 -93 -18 -5 8 -2 9 9 5 10 -3 17 -2 17 4 0 5 -10 9 -22 8 -37
-3 -58 0 -58 10 0 11 69 3 85 -9 6 -5 24 -2 40 5 17 7 24 14 17 14 -7 1 -21
-3 -30 -8 -11 -6 -21 -5 -28 3 -9 10 -7 16 10 26 19 12 20 12 7 -3 -31 -38 54
-1 103 45 19 18 36 23 36 13 0 -3 -12 -17 -26 -30 -14 -13 -24 -29 -22 -35 2
-6 29 14 61 44 55 53 89 77 54 38 -10 -10 -14 -28 -12 -42 3 -14 3 -19 -1 -12
-7 14 -24 16 -24 3 0 -25 31 -14 75 25 26 24 50 44 51 44 2 0 -5 -15 -15 -34
-12 -21 -16 -38 -10 -47 7 -11 9 -12 9 0 0 7 6 11 15 7 8 -3 15 -2 15 2 0 4 9
13 19 19 16 10 18 9 14 -8 -3 -10 -10 -19 -16 -19 -6 0 -7 -3 -3 -7 10 -10 56
-11 50 -2 -2 4 3 10 12 13 21 8 31 7 18 -2 -6 -4 -15 -18 -19 -32 -7 -23 -7
-24 11 -10 10 8 29 26 42 40 l23 25 -21 -38 c-23 -43 -24 -47 -10 -47 6 0 10
6 10 14 0 8 9 18 20 21 11 3 20 11 20 17 0 6 2 9 5 6 4 -3 -3 -22 -14 -42 -25
-43 -14 -48 14 -7 22 33 33 34 16 2 -9 -17 -9 -20 3 -15 8 3 22 21 31 40 22
47 27 43 10 -8 -10 -30 -11 -38 -2 -28 6 9 20 14 29 12 13 -2 16 1 12 13 -4
10 -2 15 7 13 8 -2 13 3 11 10 -1 6 1 11 5 11 21 -3 32 3 36 19 4 16 5 16 6 0
1 -21 5 -22 32 -8 11 7 19 7 19 1 0 -5 -4 -11 -10 -13 -5 -2 -6 -9 -1 -17 7
-10 11 -5 16 17 5 23 10 29 22 25 12 -5 15 -2 10 10 -4 11 -1 17 7 17 8 0 17
6 19 13 4 9 8 8 16 -3 9 -13 11 -12 12 5 1 11 2 25 2 31 0 7 8 9 19 6 17 -4
19 -1 13 18 -5 17 -4 21 6 15 9 -6 11 -3 6 8 -8 22 9 22 22 0 10 -17 10 -17
11 -1 0 10 13 33 30 51 16 19 27 37 23 41 -3 3 -1 6 5 6 22 0 27 -5 24 -25 -2
-16 0 -15 11 5 7 14 9 27 5 28 -4 2 -8 8 -8 13 0 13 42 59 65 71 12 7 7 -2
-12 -22 -18 -19 -33 -37 -33 -42 0 -17 16 -6 45 31 30 39 49 45 39 13 -5 -15
-4 -15 8 -2 7 8 25 21 41 27 15 7 27 17 27 23 0 5 16 10 35 10 19 0 35 5 35
10 0 19 20 10 35 -17 l16 -28 -6 27 c-3 15 -1 30 5 33 6 3 7 -1 4 -10 -7 -16
15 -18 27 -2 4 5 21 -6 39 -25 29 -29 31 -30 17 -6 -25 40 -21 47 8 15 13 -16
30 -27 37 -24 7 2 24 -5 37 -17 l24 -21 -12 23 c-15 28 -4 28 26 0 13 -12 23
-17 23 -11 0 6 -7 16 -15 23 -8 7 -15 17 -15 22 0 5 10 0 22 -12 12 -11 33
-20 46 -20 14 0 31 -8 39 -17 13 -16 13 -16 4 4 -17 33 3 37 39 6 31 -25 32
-26 26 -5 -4 12 -3 22 2 22 15 0 33 -26 24 -35 -4 -5 -2 -5 5 -1 7 4 10 13 7
21 -6 16 40 50 58 42 7 -2 22 -1 33 4 19 8 19 8 -2 15 -13 3 -23 10 -23 15 0
5 7 6 15 3 11 -4 15 1 16 17 0 13 3 18 6 12 2 -7 9 -13 14 -13 6 0 8 4 4 9 -3
5 -1 12 5 16 6 4 8 11 5 16 -4 5 -1 9 5 9 6 0 9 -10 7 -22 -2 -13 -2 -17 0 -9
4 12 6 12 14 0 6 -10 8 -8 6 9 0 12 -5 22 -9 22 -4 0 -9 17 -9 38 l-2 37 -7
-35 c-6 -33 -7 -33 -13 -10 -9 38 -5 61 9 56 7 -3 15 0 17 7 3 7 9 1 15 -13 6
-14 11 -19 11 -13 2 22 -34 70 -48 65 -10 -3 -11 2 -6 19 7 22 7 23 -10 9 -11
-8 -16 -10 -12 -3 4 6 3 14 -3 18 -5 3 -10 16 -10 27 0 21 0 21 -22 2 -23 -20
-17 -3 10 29 8 9 12 20 9 24 -4 3 -7 0 -7 -8 0 -12 -2 -11 -11 1 -9 13 -10 12
-5 -3 3 -11 2 -16 -4 -12 -6 3 -10 14 -10 24 0 34 -51 64 -112 65 -19 1 -24 4
-16 13 7 9 3 11 -16 7 -17 -3 -26 0 -26 8 0 9 -3 9 -8 2 -9 -14 -45 -27 -37
-14 3 5 1 18 -4 27 -9 16 -10 16 -11 -4 0 -19 -3 -21 -22 -14 -16 6 -22 16
-21 32 l3 24 -15 -25 c-8 -14 -14 -19 -15 -11 0 11 -3 11 -15 1 -12 -10 -15
-10 -15 1 -1 8 -11 1 -25 -15 -19 -24 -23 -26 -22 -10 2 15 -3 18 -22 16 -15
-2 -21 0 -17 7 16 26 -31 8 -57 -21 -16 -18 -27 -25 -24 -15 7 19 -1 47 -12
47 -4 0 -7 -10 -7 -22 1 -15 -4 -22 -13 -20 -9 2 -11 -3 -7 -15 6 -15 5 -15
-14 2 -22 20 -28 41 -7 28 17 -11 37 -13 37 -3 0 13 -43 20 -57 9 -6 -6 -18
-7 -24 -3 -9 5 -10 2 -6 -9 3 -9 1 -19 -5 -23 -6 -4 -8 -3 -5 3 4 6 -2 13 -13
16 -13 3 -20 0 -20 -10 0 -8 5 -11 12 -7 7 4 8 3 4 -5 -5 -8 -12 -9 -19 -2 -7
5 -30 8 -52 6 -33 -4 -36 -3 -15 5 19 7 11 9 -36 7 -40 -1 -66 3 -74 11 -16
18 -4 28 15 12 13 -11 14 -10 9 4 -8 21 -30 21 -43 -2 -10 -16 -10 -16 -11 0
0 9 8 22 18 27 10 6 12 11 4 11 -8 0 -10 5 -6 13 5 8 2 8 -9 -2 -9 -7 -17 -20
-17 -27 0 -8 -9 -14 -22 -13 -17 1 -19 2 -5 6 9 2 17 9 17 15 0 5 -6 8 -14 5
-10 -4 -12 0 -9 14 4 15 8 17 19 8 11 -9 14 -8 14 5 0 9 -5 16 -12 16 -9 0 -9
3 0 12 9 9 8 16 -5 30 -18 20 -11 37 10 20 19 -16 69 -34 62 -22 -3 6 -12 10
-19 10 -7 0 -21 9 -31 20 -16 18 -16 20 0 37 17 16 17 16 11 -7 -6 -19 -5 -21
3 -10 6 8 8 25 5 37 -5 18 -1 23 23 29 15 4 36 16 46 27 19 22 22 31 7 22 -15
-9 -12 1 5 18 7 8 17 26 21 41 5 20 2 26 -10 26 -27 0 -18 15 16 28 30 11 31
13 15 30 -21 23 -24 50 -3 33 11 -9 15 -7 19 9 3 12 0 20 -7 20 -14 0 -46 72
-46 106 0 14 -4 23 -9 20 -5 -3 -7 -15 -4 -26 3 -11 0 -20 -6 -20 -5 0 -8 7
-5 15 4 8 1 15 -4 15 -6 0 -13 15 -15 33 -3 21 -4 18 -3 -12 1 -27 -4 -46 -12
-48 -6 -3 -12 0 -12 7 0 6 5 8 10 5 6 -3 10 -1 10 5 0 6 -10 10 -22 8 -12 -2
-23 3 -25 12 -4 13 -3 13 6 0 8 -11 11 -12 11 -2 0 7 5 10 10 7 6 -3 10 1 10
9 0 12 -7 14 -29 10 -16 -3 -32 -1 -35 5 -9 14 -36 2 -37 -18 0 -10 -2 -11 -6
-3 -5 14 -41 16 -62 3 -7 -5 -27 -5 -42 -1 -17 5 -31 5 -34 -1 -4 -5 4 -9 16
-9 12 0 19 -3 15 -7 -11 -12 -40 -12 -53 -1 -10 8 -13 5 -13 -11 0 -12 4 -19
10 -16 5 3 10 -1 10 -9 0 -18 -16 -21 -25 -6 -9 15 -25 12 -25 -5 0 -18 -5
-18 -31 -4 -19 10 -20 9 -8 -13 6 -13 16 -26 21 -29 5 -3 1 -9 -10 -11 -13 -4
-19 -2 -16 6 2 6 -4 12 -15 12 -15 0 -17 -4 -10 -17 14 -26 11 -32 -7 -15 -8
9 -19 16 -24 16 -10 0 -7 -35 5 -63 4 -10 5 -21 1 -24 -3 -4 -6 -1 -6 6 0 6
-9 21 -20 33 l-20 22 -1 -60 c-1 -32 -4 -48 -6 -34 -3 13 -11 33 -18 43 -11
16 -13 13 -19 -24 -4 -23 -14 -51 -22 -63 l-16 -21 6 23 c3 12 9 31 12 42 3
11 1 20 -5 20 -6 0 -11 -7 -11 -15 0 -8 -6 -15 -14 -15 -7 0 -20 -7 -27 -16
-12 -14 -14 -14 -19 2 -6 16 -7 15 -12 -4 -4 -12 -2 -20 3 -16 14 8 10 -9 -7
-31 -12 -16 -16 -17 -23 -6 -7 11 -9 11 -14 0 -5 -12 -7 -11 -16 1 -8 12 -10
11 -8 -7 1 -18 4 -20 22 -11 19 10 19 9 4 -7 -13 -14 -21 -15 -38 -6 -17 10
-20 9 -15 -4 7 -18 -12 -21 -20 -2 -3 6 -3 2 0 -11 3 -13 1 -21 -5 -20 -5 2
-17 -6 -26 -17 -16 -20 -16 -19 -10 5 5 19 4 22 -4 10 -6 -8 -11 -23 -11 -33
0 -10 -4 -16 -10 -12 -5 3 -7 13 -4 23 2 9 -2 4 -10 -13 -8 -16 -15 -25 -16
-20 0 6 -7 -1 -15 -15 -8 -14 -14 -19 -15 -12 0 20 -28 14 -35 -8 -5 -16 -12
-19 -27 -14 -15 4 -18 3 -13 -7 6 -9 2 -11 -13 -7 -13 4 -23 0 -27 -10 -5 -14
-7 -14 -15 -2 -7 11 -10 12 -10 2 0 -8 -5 -10 -12 -6 -10 6 -10 4 0 -8 11 -14
7 -16 -38 -13 -49 2 -58 -8 -15 -18 11 -2 7 -2 -10 0 -16 2 -40 4 -52 5 -12 0
-24 7 -27 15 -5 12 -10 11 -32 -6 -27 -21 -43 -18 -66 14 -5 6 -8 5 -8 -2 0
-19 -13 -16 -38 7 -17 16 -22 18 -22 6 0 -10 -6 -13 -16 -9 -8 3 -13 12 -10
19 3 8 4 14 3 14 -1 0 -17 -4 -34 -9 -24 -7 -32 -6 -30 2 1 7 -8 11 -23 9 -24
-3 -24 -2 -5 13 19 16 19 16 -12 12 -17 -2 -31 -1 -31 2 3 11 -25 61 -34 61
-5 0 -13 -10 -18 -22 -8 -21 -9 -20 -9 9 -1 23 -10 41 -33 62 -29 27 -30 31
-13 32 14 0 9 5 -15 14 l-35 13 35 3 35 2 -35 7 c-31 7 -32 8 -8 9 26 1 27 3
16 26 -6 14 -15 25 -19 25 -5 0 -6 7 -3 15 4 8 1 15 -5 15 -6 0 -11 5 -11 11
0 6 8 8 18 5 14 -5 14 -4 -2 9 -17 13 -18 15 -3 15 20 0 22 11 5 29 -11 11
-10 13 5 8 15 -6 16 -4 7 13 -8 15 -8 20 3 20 9 0 12 9 9 30 -3 19 0 30 8 30
8 0 10 8 7 21 -3 13 2 28 14 40 11 11 17 24 14 29 -3 5 8 7 24 5 24 -3 29 -1
24 12 -4 11 -2 14 5 9 16 -10 15 7 0 23 -11 10 -8 10 15 2 33 -13 46 -14 32
-3 -5 4 -17 16 -25 26 -14 18 -14 19 7 5 12 -7 26 -10 30 -6 4 5 1 12 -7 17
-13 8 -12 10 2 10 9 0 20 -4 23 -10 3 -5 12 -10 18 -9 9 0 9 2 0 6 -7 2 -13
12 -13 21 0 15 2 15 10 2 9 -13 11 -13 20 0 5 8 10 20 10 26 0 7 7 14 15 18
17 6 20 -5 4 -21 -8 -8 -7 -13 2 -18 7 -5 10 -4 5 3 -3 6 3 17 15 25 15 11 17
16 7 21 -7 3 -2 4 11 2 18 -4 21 -2 12 7 -20 20 -11 31 10 11 21 -19 22 -19
15 2 -4 15 -2 24 8 27 11 4 13 1 10 -11 -5 -14 -3 -13 10 2 14 18 14 21 -2 39
-17 20 -17 20 13 1 16 -10 26 -14 22 -7 -4 6 -1 18 7 26 8 8 12 17 9 21 -4 3
-2 6 3 6 6 0 15 -5 22 -12 7 -7 12 -8 12 -2 0 6 -5 15 -11 21 -9 9 -6 10 12 6
24 -6 24 -6 4 13 -11 10 -16 16 -11 12 14 -11 28 -10 22 1 -4 5 4 7 16 3 21
-5 22 -4 9 11 -11 15 -11 17 2 17 8 0 18 -6 21 -12 3 -7 3 -2 0 11 -5 17 -3
21 7 16 12 -8 11 0 -6 50 -3 11 1 8 10 -7 8 -16 21 -28 28 -28 8 0 9 2 1 8
-17 11 -28 53 -13 50 9 -2 13 16 14 62 1 36 7 75 13 87 15 27 15 33 2 33 -5 0
-10 -7 -10 -17 0 -9 -3 -14 -6 -10 -4 3 -3 14 1 24 5 10 10 29 11 41 2 18 -1
22 -13 18 -11 -4 -14 -2 -9 9 3 9 0 15 -8 15 -7 0 -19 7 -26 15 -9 10 -9 15
-1 15 6 0 11 -4 11 -10 0 -5 17 -10 38 -9 36 1 36 1 9 9 -33 10 -72 47 -86 81
-14 34 -14 -2 0 -38 8 -22 8 -25 -2 -16 -7 7 -16 32 -20 55 l-6 43 -2 -37 c-1
-29 -4 -36 -16 -32 -8 4 -15 16 -15 28 0 11 -5 28 -10 36 -8 11 -9 6 -8 -19 3
-38 -20 -56 -29 -23 -4 18 -8 19 -30 9 -16 -7 -27 -8 -31 -1 -4 6 -16 14 -26
17 -16 6 -17 5 -6 -8 12 -14 7 -15 -36 -11 -35 3 -44 2 -31 -5 9 -6 41 -10 70
-11 37 0 46 -3 31 -8 -11 -5 -42 -4 -69 1 -33 6 -51 6 -55 -1 -4 -6 -14 -8
-23 -4 -13 5 -16 2 -11 -10 4 -12 2 -15 -9 -11 -11 5 -13 0 -10 -19 6 -28 -5
-34 -25 -14 -7 7 -12 8 -12 2 0 -6 5 -15 11 -21 7 -7 2 -10 -20 -7 -23 3 -29
0 -24 -11 4 -11 1 -13 -11 -9 -9 3 -16 2 -16 -4 0 -6 6 -13 13 -15 7 -3 6 -6
-5 -6 -9 -1 -20 4 -23 9 -3 6 -12 10 -18 10 -7 -1 -1 -10 12 -21 l25 -20 -30
6 c-22 5 -26 4 -14 -4 12 -9 13 -12 1 -20 -11 -7 -11 -9 0 -14 8 -3 2 -6 -13
-6 -27 -1 -41 -21 -15 -21 8 0 8 -3 -2 -9 -8 -5 -20 -7 -28 -4 -7 3 -13 2 -13
-1 0 -4 10 -11 23 -16 18 -7 18 -9 4 -9 -10 -1 -15 -5 -12 -11 3 -5 -1 -10
-11 -10 -13 0 -14 -3 -4 -15 10 -12 9 -15 -4 -15 -10 0 -15 -4 -12 -9 4 -5 0
-12 -6 -14 -10 -4 -10 -6 0 -6 22 -2 13 -21 -10 -21 -19 0 -20 -2 -7 -12 8 -7
12 -12 10 -10 -3 1 -11 -8 -18 -20 l-14 -23 6 25 c5 19 4 22 -4 10 -6 -8 -11
-24 -11 -35 0 -17 -2 -17 -10 -5 -8 13 -10 12 -10 -3 0 -10 5 -28 11 -40 12
-22 12 -22 -10 -3 -21 19 -21 19 -19 -5 3 -27 -23 -34 -34 -9 -5 10 -7 8 -8
-10 -1 -44 -25 -63 -85 -68 -30 -2 -55 -8 -55 -12 0 -5 -38 -8 -85 -7 -49 1
-85 6 -85 12 0 6 -49 10 -128 10 -164 -1 -194 -3 -188 -14 4 -5 -2 -7 -11 -5
-10 2 -54 0 -98 -5 -44 -4 -68 -9 -53 -10 15 0 29 -5 33 -10 9 -15 -58 -9 -83
7 -19 13 -22 13 -17 0 4 -9 0 -15 -10 -15 -8 0 -15 9 -16 21 0 19 -1 19 -11
-4 -9 -21 -12 -22 -15 -7 -3 9 -8 17 -13 17 -5 0 -11 -8 -13 -17 -4 -17 -5
-17 -6 0 -1 20 -27 23 -35 5 -3 -7 -3 3 0 22 3 23 2 30 -4 22 -7 -11 -14 -7
-31 15 -22 28 -22 28 -15 3 4 -14 12 -28 18 -32 8 -6 7 -8 -1 -8 -12 0 -37 36
-38 55 -1 18 -29 55 -42 55 -6 0 -14 4 -17 8 -3 5 9 7 27 5 26 -3 28 -1 12 6
-11 5 -15 10 -10 11 6 0 -3 7 -20 15 l-30 14 30 -6 c29 -6 29 -6 11 12 -18 18
-18 19 0 26 16 6 14 9 -16 23 -28 12 -31 15 -12 16 12 0 22 5 22 10 0 6 -10
11 -22 11 -15 1 -11 4 12 9 l35 6 -35 11 -35 11 30 1 30 2 -25 14 -25 14 25 1
c21 1 23 2 8 11 -24 14 -11 41 16 34 15 -4 14 -1 -6 10 -34 19 -36 29 -6 19
21 -6 22 -5 8 11 -14 17 -13 17 10 11 20 -6 22 -5 8 4 -9 6 -15 17 -12 25 4 8
2 15 -4 15 -5 0 -12 10 -15 23 -6 22 -6 22 10 2 15 -19 14 -14 -2 28 -4 9 -3
17 3 17 6 0 12 -8 14 -17 3 -10 4 4 4 30 -1 34 -6 52 -19 61 -22 17 -22 26 1
27 14 0 14 2 -3 9 -11 5 -16 9 -11 9 5 1 3 8 -4 16 -6 8 -8 20 -4 27 4 7 -2 4
-14 -6 -26 -22 -28 -30 -7 -22 8 3 15 1 15 -4 0 -9 -23 -15 -44 -11 -5 1 -13
-4 -19 -11 -6 -10 -7 -9 -4 4 3 9 1 19 -6 22 -7 3 -2 3 10 0 16 -4 25 1 34 18
9 19 9 21 -2 11 -25 -24 -32 -13 -8 13 23 25 23 26 2 15 -13 -6 -23 -7 -25 -1
-2 6 -12 4 -24 -3 -12 -7 -32 -18 -45 -26 -27 -15 -17 -4 25 27 32 25 24 29
-14 7 -27 -16 -110 -20 -110 -6 0 5 25 12 55 16 30 3 57 10 60 14 2 5 -12 6
-33 3 -20 -3 -53 -6 -72 -5 -19 0 -30 -2 -23 -4 7 -2 9 -11 6 -19 -3 -7 -9
-11 -14 -8 -5 3 -9 0 -9 -5 0 -6 5 -11 10 -11 6 0 10 -4 10 -10 0 -15 -17 -12
-36 7 -17 17 -17 16 -10 -10 8 -35 2 -34 -34 6 -17 17 -27 24 -24 15 3 -10 9
-18 13 -18 4 0 13 -11 19 -25 13 -29 5 -33 -14 -7 -8 10 -13 12 -14 5 0 -7 -7
-13 -15 -13 -9 0 -12 -6 -9 -15 4 -8 1 -15 -6 -15 -7 0 -10 -7 -6 -16 3 -8 2
-13 -2 -11 -4 3 -16 1 -27 -4 -18 -7 -17 -8 7 -8 21 -1 26 -5 21 -17 -3 -9 -9
-12 -12 -7 -9 12 -31 14 -31 3 0 -6 7 -13 15 -16 8 -4 15 -13 15 -21 0 -12 -2
-12 -16 1 -17 18 -34 13 -34 -10 0 -9 -11 -35 -25 -58 -14 -24 -22 -45 -19
-48 7 -8 -15 -50 -35 -65 -13 -10 -13 -12 -2 -13 11 0 8 -6 -7 -20 -12 -12
-22 -27 -22 -34 0 -8 -7 -16 -15 -20 -8 -3 -15 -13 -15 -21 0 -9 -4 -13 -10
-10 -6 4 -10 -7 -10 -25 0 -18 -4 -29 -10 -25 -5 3 -7 0 -4 -9 3 -9 -10 -29
-37 -53 -23 -21 -66 -62 -95 -91 -46 -47 -65 -53 -40 -14 4 7 6 15 3 18 -2 3
-14 -15 -25 -38 -18 -37 -21 -40 -22 -18 -2 25 -2 25 -15 -5 -14 -30 -14 -30
-16 -5 -1 23 -2 23 -9 -5 -7 -28 -8 -27 -10 15 l-3 45 -7 -45 c-5 -31 -8 -37
-10 -20 -2 19 -4 16 -10 -15 l-7 -40 -3 35 -2 35 -8 -30 -8 -30 -1 30 -2 30
-14 -30 c-13 -30 -13 -30 -15 -5 -1 24 -2 23 -21 -10 l-20 -35 6 35 c6 35 6
35 -9 10 -10 -15 -15 -19 -16 -10 0 11 -2 12 -8 3 -6 -9 -11 -8 -21 6 -14 19
-14 19 -34 0 -25 -23 -41 -25 -33 -4 7 20 0 19 -37 -7 -28 -20 -30 -20 -23 -3
7 18 6 18 -15 -1 -20 -17 -22 -17 -16 -1 8 21 -6 22 -23 2 -17 -20 -34 -19
-26 2 6 15 5 16 -11 1 -10 -8 -24 -13 -30 -11 -7 3 -13 -1 -13 -9 0 -10 -3 -9
-10 2 -8 13 -11 13 -19 1 -5 -7 -14 -10 -20 -7 -6 4 -11 2 -11 -4 0 -8 -9 -10
-25 -6 -21 5 -25 3 -26 -16 -1 -22 -1 -22 -9 2 -7 23 -8 23 -9 3 -1 -27 -18
-38 -34 -24 -10 7 -13 3 -15 -16 -3 -42 -12 -40 -13 3 l-1 39 -13 -45 c-12
-41 -13 -42 -15 -15 l-1 30 -16 -32 c-9 -18 -21 -33 -25 -33 -5 0 -7 -4 -4 -9
4 -5 -7 -15 -24 -23 -16 -7 -30 -16 -30 -20 0 -5 -8 -8 -17 -9 -15 0 -15 -2 2
-9 21 -9 21 -9 -8 -15 -30 -6 -32 -15 -4 -15 15 0 27 -4 27 -10 0 -5 -7 -7
-15 -4 -18 7 -20 -7 -2 -25 10 -12 8 -13 -8 -7 l-20 6 20 -16 c19 -15 19 -15
-5 -9 -23 5 -25 3 -26 -29 0 -19 3 -33 8 -30 4 3 8 -2 8 -10 0 -9 -4 -16 -10
-16 -5 0 -10 -5 -10 -11 0 -5 4 -7 10 -4 6 3 10 1 10 -4 0 -6 -4 -11 -9 -11
-4 0 -5 -19 -1 -42 5 -24 6 -45 4 -47 -2 -2 1 -10 8 -18 9 -11 8 -13 -2 -11
-7 2 -15 -3 -18 -11 -2 -8 0 -11 5 -8 6 4 7 -11 3 -38 -4 -24 -3 -42 2 -39 4
3 8 -1 8 -10 0 -8 -5 -16 -11 -18 -7 -2 -7 -12 0 -30 8 -22 8 -26 -5 -21 -10
4 -12 0 -8 -11 4 -10 1 -16 -7 -17 -8 0 -5 -4 6 -9 17 -7 17 -9 3 -9 -11 -1
-15 -6 -12 -16 5 -11 -1 -15 -22 -16 l-29 -1 25 -8 c21 -7 22 -8 5 -10 -17 -2
-16 -3 5 -10 23 -7 23 -8 -10 -10 l-35 -2 30 -8 c24 -6 25 -8 8 -9 -38 -2 -71
-22 -66 -40 5 -20 -31 -55 -49 -48 -8 4 -7 6 5 6 24 1 22 17 -3 17 -11 0 -20
-6 -20 -14 0 -7 -4 -10 -10 -7 -5 3 -10 1 -10 -6 0 -7 -3 -9 -6 -6 -4 3 -16 1
-28 -5 -20 -10 -20 -10 2 11 24 24 31 51 7 29 -42 -38 -43 -38 -59 -15 l-17
22 7 -25 6 -25 -26 25 c-23 21 -29 22 -37 10 -7 -12 -11 -13 -18 -2 -4 8 -11
13 -15 13 -3 -1 -22 6 -42 14 -20 8 -48 15 -63 16 -23 0 -24 1 -6 9 16 7 17 9
3 9 -9 1 -24 4 -34 8 -12 5 -15 3 -9 -6 6 -10 3 -11 -13 -2 -23 12 -84 10 -94
-4 -4 -5 -8 3 -8 18 0 16 -4 26 -10 22 -6 -3 -10 0 -10 7 0 10 -2 10 -9 -1 -5
-8 -16 -11 -24 -8 -9 3 -18 1 -21 -6 -2 -7 -8 -2 -11 11 -7 20 -25 31 -25 14
0 -4 -14 -8 -30 -8 -24 -1 -30 2 -30 20 -1 20 -1 20 -14 3 -13 -16 -14 -16
-20 -1 -6 15 -8 15 -26 -1 -19 -18 -20 -17 -20 3 0 24 -18 30 -26 9 -3 -8 -16
-12 -32 -10 -15 2 -72 -3 -127 -10 -67 -9 -102 -10 -107 -3 -4 5 -10 -2 -13
-17 -6 -23 -11 -26 -29 -21 -11 4 -24 12 -28 18 -4 6 -8 -1 -8 -16 0 -15 -5
-30 -10 -33 -6 -3 -10 -1 -10 5 0 6 -4 9 -9 6 -5 -4 -11 0 -14 6 -3 9 -8 6
-13 -7 -11 -27 -37 -46 -45 -33 -4 6 -10 1 -14 -11 -3 -11 -13 -21 -21 -21 -8
0 -14 -8 -15 -17 0 -16 -1 -16 -8 1 -7 18 -8 18 -14 2 -4 -10 -13 -16 -21 -13
-10 4 -12 0 -9 -14 3 -10 0 -19 -6 -19 -6 0 -11 6 -11 13 0 9 -3 8 -9 -2 -7
-11 -10 -11 -15 0 -3 8 -3 4 0 -8 4 -17 1 -23 -11 -23 -9 0 -13 5 -10 10 3 6
1 10 -5 10 -7 0 -10 -6 -7 -14 9 -22 -24 -44 -57 -39 -16 2 -32 -1 -37 -8 -14
-23 -228 -30 -270 -8 -11 6 -21 4 -29 -6 -7 -8 -15 -15 -19 -15 -8 0 -31 51
-31 70 0 9 -4 20 -9 25 -5 6 -14 26 -19 45 -6 19 -18 54 -26 77 -9 23 -13 49
-10 58 4 9 3 15 -2 14 -21 -4 -28 2 -14 11 13 8 12 10 -3 10 -16 0 -18 -8 -16
-74 1 -40 -1 -78 -5 -85 -4 -6 -4 -11 1 -11 4 0 1 -5 -7 -10 -13 -9 -13 -10 0
-10 13 0 13 -1 0 -10 -8 -5 -22 -10 -30 -10 -12 0 -13 2 -1 9 10 6 10 10 1 13
-9 3 -9 18 -1 63 5 33 13 77 16 98 5 28 10 37 26 37 11 0 18 4 15 9 -3 5 -16
7 -29 4 -22 -4 -22 -4 3 17 14 13 26 17 28 11 2 -6 8 -11 13 -11 6 0 7 5 4 10
-3 6 -1 10 5 10 6 0 13 -7 16 -15 4 -8 10 -15 15 -15 4 0 6 7 3 15 -5 11 -2
13 10 9 12 -4 16 0 16 15 0 12 13 34 28 50 16 15 34 36 40 47 6 10 14 15 18
11 5 -5 2 -12 -6 -17 -8 -5 -12 -12 -8 -15 3 -4 22 15 42 41 25 33 36 41 36
28 0 -16 3 -14 18 9 10 15 22 24 26 20 4 -4 12 0 17 10 6 9 16 17 24 17 7 0
17 9 20 20 5 15 12 19 26 15 14 -5 19 -2 19 10 0 12 6 16 20 12 13 -3 20 0 20
9 0 8 9 14 20 14 14 0 18 5 13 17 -5 13 -2 15 15 11 13 -4 23 0 26 9 4 8 12
13 20 10 10 -4 12 0 8 16 -5 19 -3 20 10 9 18 -14 34 0 22 19 -4 8 0 7 15 -1
20 -10 21 -9 16 17 l-6 28 15 -25 15 -25 1 24 c0 24 0 24 15 5 14 -18 14 -18
8 4 -6 23 12 32 20 10 2 -7 3 -5 2 4 -4 24 12 33 18 11 3 -13 5 -11 7 7 l2 25
8 -25 8 -25 2 25 c1 23 2 23 10 5 l9 -20 1 20 1 20 9 -20 c7 -17 9 -17 9 -3 1
14 5 16 26 8 20 -8 25 -6 25 6 0 10 6 14 14 11 8 -3 17 -1 20 6 2 7 5 3 6 -8
1 -20 1 -20 15 -1 14 19 15 19 15 2 0 -16 2 -17 16 -5 15 12 16 11 10 -11 -6
-23 -6 -23 5 -5 18 30 19 31 29 15 7 -10 10 -11 10 -2 0 6 5 12 11 12 5 0 8
-4 5 -9 -3 -5 3 -11 13 -14 12 -3 22 1 26 12 6 14 8 13 15 -4 8 -19 9 -19 9 2
1 16 6 20 20 16 12 -3 18 -11 15 -21 -2 -10 2 -3 10 13 15 30 15 30 16 5 1
-23 2 -23 10 -5 l9 20 1 -20 1 -20 9 20 9 20 1 -20 c2 -14 5 -11 10 10 5 21 8
24 9 10 2 -18 3 -18 16 5 13 23 14 23 16 5 1 -11 5 -2 9 20 l7 40 2 -35 3 -35
19 40 c10 22 19 32 19 23 0 -10 5 -18 10 -18 6 0 10 5 10 11 0 6 7 17 15 25
12 12 15 12 15 2 0 -7 6 -4 12 7 6 11 24 32 40 48 15 15 28 34 28 42 0 7 9 20
21 28 11 8 21 21 23 30 2 17 30 47 44 47 6 0 13 8 17 18 5 14 4 15 -6 5 -7 -7
-20 -13 -28 -13 -8 0 6 19 32 42 34 30 46 46 41 60 -3 10 -1 18 5 18 6 0 11
-6 11 -12 1 -17 41 59 51 97 7 24 8 21 4 -15 -3 -32 -1 -39 5 -25 5 11 10 34
11 50 l2 30 7 -35 7 -35 3 40 3 40 7 -40 7 -40 2 45 c2 25 5 40 7 35 2 -6 21
-9 41 -7 34 4 35 6 18 18 -18 13 -16 14 13 8 21 -4 32 -3 32 5 0 6 9 11 20 11
11 0 20 5 20 11 0 8 14 10 39 6 33 -4 39 -2 34 11 -4 10 -2 13 5 8 7 -4 12 -3
12 2 0 15 67 31 79 19 16 -16 14 6 -1 22 -11 11 -10 13 0 7 16 -9 54 3 47 15
-4 5 3 9 14 9 12 0 21 7 21 15 0 8 7 15 16 15 8 0 13 -4 10 -9 -4 -5 3 -7 14
-4 12 3 19 7 17 10 -8 7 51 63 67 63 11 0 16 9 16 30 0 22 4 28 15 24 10 -4
15 0 15 11 0 12 5 15 16 11 12 -4 15 -2 10 9 -7 18 5 20 23 3 10 -11 11 -10 6
3 -4 10 0 23 8 30 11 10 12 20 5 39 -7 20 -7 23 3 13 15 -15 33 -17 24 -3 -10
17 14 88 33 93 11 3 9 5 -8 6 -24 2 -24 2 -6 16 14 10 15 15 6 15 -11 0 -11 3
-2 12 17 17 15 46 -5 50 -15 3 -15 4 1 20 9 10 14 23 10 29 -4 8 -3 9 5 5 14
-9 5 41 -11 61 -6 7 -4 23 7 42 18 36 11 40 -16 9 l-20 -23 7 24 c3 13 17 35
30 48 30 30 31 39 2 19 -12 -9 -26 -16 -31 -16 -14 0 4 21 37 41 31 20 31 20
4 13 -18 -4 -28 -2 -28 5 0 6 8 11 18 12 14 0 14 2 -3 9 -11 5 -15 9 -8 9 7 1
10 8 7 16 -5 11 2 15 27 16 34 2 34 2 -6 9 l-40 7 35 3 c19 1 46 6 60 10 18 7
11 8 -25 5 -48 -5 -48 -2 5 17 18 7 21 11 11 17 -10 6 -10 10 -2 16 7 4 19 1
27 -6 8 -6 17 -9 21 -5 3 3 2 6 -4 6 -6 0 -13 7 -16 14 -4 11 -1 13 10 9 11
-4 14 -2 9 5 -5 8 -2 10 8 6 9 -3 16 -1 16 4 0 6 8 13 18 16 9 3 35 24 57 46
22 21 46 39 53 40 7 0 11 4 8 9 -3 5 2 15 11 22 14 12 15 12 9 1 -6 -10 -3
-13 8 -10 10 1 17 7 16 11 -1 5 11 19 26 32 21 18 30 21 37 12 5 -7 6 1 3 21
-3 18 -1 32 4 32 6 0 10 -5 10 -11 0 -8 5 -8 15 1 8 7 15 19 15 26 0 8 10 14
21 14 18 0 19 2 9 15 -18 22 -6 29 22 14 23 -12 23 -11 5 8 -17 20 -17 20 10
16 26 -5 27 -4 9 9 -17 13 -17 15 -3 21 10 4 14 13 11 22 -4 10 0 15 12 15 11
0 26 5 34 11 12 8 9 9 -10 4 -17 -4 -21 -3 -11 3 8 6 10 15 5 23 -6 12 -5 12
8 1 11 -9 18 -10 23 -2 3 5 1 10 -4 10 -6 0 -11 9 -11 20 0 11 6 20 13 20 21
0 51 38 52 66 1 13 14 38 30 54 30 31 28 38 -6 20 -13 -7 -19 -7 -19 0 0 5 5
10 11 10 5 0 7 4 4 10 -3 6 1 7 10 4 13 -5 15 -2 10 19 -4 14 -1 35 5 47 10
18 9 24 -1 31 -10 6 -7 9 10 9 16 0 21 4 18 14 -4 9 3 16 16 20 21 5 21 6 3
19 -22 16 -16 47 9 47 8 0 15 9 15 20 0 22 -16 27 -22 8 -3 -8 -9 -8 -24 0
-18 11 -18 11 6 13 18 1 13 4 -15 9 l-40 8 48 -3 c38 -2 47 1 45 14 -2 12 7
17 40 19 39 3 42 5 42 33 0 27 2 29 40 29 22 0 40 5 40 10 0 6 18 10 40 10 38
0 40 -2 40 -30 0 -28 2 -30 40 -30 33 0 40 3 40 20 0 18 7 20 80 20 47 0 80 4
80 10 0 6 18 10 40 10 22 0 40 5 40 10 0 6 18 10 40 10 33 0 40 3 40 20 0 19
7 20 120 20 113 0 120 1 120 20 0 18 7 20 80 20 73 0 80 2 80 20 0 19 7 20
120 20 113 0 120 1 120 20 0 19 -7 20 -160 20 -153 0 -160 1 -160 20 0 19 7
20 120 20 73 0 120 -4 120 -10 0 -5 18 -10 40 -10 22 0 40 -4 40 -10 0 -5 18
-10 40 -10 l40 0 0 60 0 60 80 0 80 0 0 -40 0 -40 80 0 c47 0 80 4 80 10 0 6
18 10 40 10 22 0 40 5 40 10 0 6 18 10 40 10 33 0 40 3 40 20 0 19 7 20 120
20 73 0 120 4 120 10 0 6 18 10 40 10 22 0 40 5 40 10 0 6 33 10 80 10 73 0
80 2 80 20 0 19 7 20 120 20 73 0 120 4 120 10 0 6 18 10 40 10 22 0 40 5 40
10 0 6 18 10 40 10 33 0 40 3 40 20 0 19 7 20 120 20 73 0 120 4 120 10 0 6
18 10 40 10 22 0 40 5 40 10 0 6 18 10 40 10 33 0 40 3 40 20 0 19 7 20 120
20 73 0 120 4 120 10 0 6 18 10 40 10 22 0 40 -4 40 -10 0 -5 18 -10 40 -10
22 0 40 5 40 10 0 6 -18 10 -40 10 -38 0 -40 2 -40 30 l0 30 80 0 c47 0 80 4
80 10 0 6 18 10 40 10 22 0 40 5 40 10 0 6 18 10 40 10 22 0 40 5 40 10 0 6
-18 10 -40 10 -22 0 -40 -4 -40 -10 0 -5 -18 -10 -40 -10 -22 0 -40 5 -40 10
0 6 -34 10 -81 10 -44 0 -78 3 -75 8 2 4 73 7 156 7 83 0 153 2 155 6 3 3 22
5 44 4 22 -1 38 1 36 4 -3 6 -140 7 -140 1 0 -1 -21 -3 -47 -4 -27 -1 -48 1
-48 5 0 4 15 6 33 5 17 -2 37 -1 42 3 6 3 99 6 207 6 109 1 201 4 204 8 4 4
-1778 7 -3959 7 l-3967 0 1 -1042z m1824 951 c-6 -9 -35 -1 -35 10 0 4 3 11 7
14 8 9 34 -13 28 -24z m-398 -25 c-3 -4 -14 -3 -24 0 -15 6 -15 8 -3 16 16 10
39 -4 27 -16z m583 16 c0 -5 -9 -10 -21 -10 -11 0 -17 5 -14 10 3 6 13 10 21
10 8 0 14 -4 14 -10z m-1830 -55 c0 -8 -7 -15 -15 -15 -8 0 -15 7 -15 15 0 8
7 15 15 15 8 0 15 -7 15 -15z m2910 -15 c0 -5 -5 -10 -11 -10 -5 0 -7 5 -4 10
3 6 8 10 11 10 2 0 4 -4 4 -10z m-650 -44 c0 -16 -18 -31 -27 -22 -8 8 5 36
17 36 5 0 10 -6 10 -14z m-1820 -20 c0 -14 -5 -28 -10 -31 -13 -8 -24 20 -16
40 9 24 26 17 26 -9z m6260 4 c0 -5 -18 -10 -40 -10 -22 0 -40 5 -40 10 0 6
18 10 40 10 22 0 40 -4 40 -10z m-880 -80 c0 -5 -18 -10 -40 -10 -22 0 -40 5
-40 10 0 6 18 10 40 10 22 0 40 -4 40 -10z m480 0 c0 -5 -18 -10 -40 -10 -22
0 -40 5 -40 10 0 6 18 10 40 10 22 0 40 -4 40 -10z m-4590 -72 c0 -22 -17 -41
-29 -34 -15 10 -14 33 2 39 21 9 27 8 27 -5z m3630 -8 c0 -5 -18 -10 -40 -10
-22 0 -40 5 -40 10 0 6 18 10 40 10 22 0 40 -4 40 -10z m480 0 c0 -5 -18 -10
-40 -10 -22 0 -40 5 -40 10 0 6 18 10 40 10 22 0 40 -4 40 -10z m-3671 -14 c7
-9 8 -17 2 -20 -14 -9 -41 4 -41 20 0 18 24 18 39 0z m-2219 -31 c0 -8 -7 -15
-15 -15 -16 0 -20 12 -8 23 11 12 23 8 23 -8z m1150 0 c0 -8 -7 -15 -15 -15
-8 0 -15 7 -15 15 0 8 7 15 15 15 8 0 15 -7 15 -15z m3860 -35 c0 -5 -18 -10
-40 -10 -22 0 -40 5 -40 10 0 6 18 10 40 10 22 0 40 -4 40 -10z m400 0 c0 -5
-18 -10 -40 -10 -22 0 -40 5 -40 10 0 6 18 10 40 10 22 0 40 -4 40 -10z
m-4886 -31 c-3 -5 -10 -7 -15 -3 -5 3 -7 10 -3 15 3 5 10 7 15 3 5 -3 7 -10 3
-15z m211 -29 c-5 -8 -11 -8 -17 -2 -6 6 -7 16 -3 22 5 8 11 8 17 2 6 -6 7
-16 3 -22z m3875 -20 c0 -5 -18 -10 -40 -10 -22 0 -40 5 -40 10 0 6 18 10 40
10 22 0 40 -4 40 -10z m-4125 -19 c7 -12 -12 -24 -25 -16 -11 7 -4 25 10 25 5
0 11 -4 15 -9z m4125 -41 l0 -30 -120 0 c-113 0 -120 1 -120 20 0 18 7 20 80
20 47 0 80 4 80 10 0 6 18 10 40 10 38 0 40 -2 40 -30z m-640 -100 c0 -5 -18
-10 -40 -10 -22 0 -40 5 -40 10 0 6 18 10 40 10 22 0 40 -4 40 -10z m320 0 c0
-6 -47 -10 -120 -10 -73 0 -120 4 -120 10 0 6 47 10 120 10 73 0 120 -4 120
-10z m-3470 -100 c0 -5 -4 -10 -10 -10 -5 0 -10 5 -10 10 0 6 5 10 10 10 6 0
10 -4 10 -10z m450 -5 c0 -8 -9 -15 -20 -15 -11 0 -20 7 -20 15 0 8 9 15 20
15 11 0 20 -7 20 -15z m-282 -17 c-6 -18 -28 -21 -28 -4 0 9 7 16 16 16 9 0
14 -5 12 -12z m2705 5 c-7 -2 -19 -2 -25 0 -7 3 -2 5 12 5 14 0 19 -2 13 -5z
m-3720 -67 c7 -17 -18 -42 -27 -27 -7 11 3 41 14 41 4 0 10 -6 13 -14z m397
-37 c0 -5 -7 -9 -15 -9 -15 0 -20 12 -9 23 8 8 24 -1 24 -14z m150 -225 c0
-16 -9 -18 -30 -4 -13 9 -13 11 0 19 17 12 30 5 30 -15z m1397 10 c-3 -3 -12
-4 -19 -1 -8 3 -5 6 6 6 11 1 17 -2 13 -5z m-360 -46 c-3 -8 -6 -5 -6 6 -1 11
2 17 5 13 3 -3 4 -12 1 -19z m-827 -13 c0 -8 -9 -19 -20 -25 -21 -11 -25 -4
-14 24 8 20 34 21 34 1z m246 -393 c-11 -10 -15 4 -8 28 l7 25 3 -23 c2 -13 1
-26 -2 -30z m-26 -43 l0 -42 40 6 c22 3 40 1 40 -4 0 -5 10 -14 23 -19 17 -7
18 -9 5 -9 -10 -1 -18 -8 -18 -17 0 -10 6 -14 15 -11 27 11 26 -12 -2 -27 -32
-17 -18 -21 21 -6 36 13 32 4 -6 -20 l-33 -20 50 6 c57 8 56 1 -1 -21 l-39
-15 45 4 c25 2 35 1 23 -1 -29 -5 -30 -23 -2 -23 12 0 17 -4 14 -11 -4 -6 -13
-8 -21 -5 -8 3 -14 0 -14 -6 0 -7 12 -8 32 -4 30 6 31 5 13 -8 -11 -7 -26 -11
-34 -8 -9 3 -12 1 -7 -6 4 -7 19 -10 34 -7 27 5 26 5 -3 -9 -16 -9 -24 -15
-17 -16 23 0 42 -26 29 -39 -8 -8 -8 -11 2 -11 8 0 11 -6 7 -15 -3 -8 -2 -15
3 -15 11 0 23 -39 21 -67 -1 -13 3 -23 9 -23 5 0 12 10 14 23 3 13 5 7 6 -16
1 -43 20 -42 22 1 1 20 2 22 6 7 2 -11 6 -30 9 -43 3 -14 9 -20 16 -16 7 5 8
3 3 -6 -11 -18 13 -30 62 -30 23 0 44 -4 48 -10 4 -6 15 -6 30 0 21 8 25 6 25
-8 0 -15 2 -15 11 -2 8 11 12 12 16 2 6 -16 24 -5 17 11 -3 8 3 13 15 13 12 0
17 -6 14 -16 -3 -8 7 -1 21 15 29 34 35 23 9 -15 -14 -20 -10 -19 21 8 26 22
44 31 57 27 12 -4 21 -1 25 9 7 18 34 22 34 5 0 -7 12 2 28 18 15 16 36 36 46
44 18 13 19 12 13 -3 -3 -10 -3 -18 2 -18 12 0 32 26 26 33 -3 4 -2 5 2 2 3
-3 15 3 26 12 19 17 20 17 8 -4 -16 -31 -13 -41 5 -18 11 14 18 16 21 8 3 -7
10 -13 16 -13 8 0 7 4 -1 12 -24 24 -14 37 18 22 17 -9 38 -13 48 -11 13 4 11
5 -5 6 -13 0 -23 6 -23 12 0 5 4 7 10 4 5 -3 19 -1 30 5 16 9 18 8 14 -5 -11
-27 38 -23 69 6 26 24 36 16 12 -11 -19 -21 -7 -28 13 -8 16 16 16 -4 0 -21
-11 -11 -9 -13 10 -8 25 6 29 -5 7 -23 -8 -7 -15 -18 -15 -24 1 -6 14 5 30 24
17 19 30 28 30 20 0 -7 -8 -22 -17 -32 -15 -17 -15 -20 -1 -34 18 -18 13 -55
-11 -81 -18 -19 -23 -64 -9 -74 5 -3 -2 -13 -16 -23 -21 -13 -25 -22 -21 -47
5 -29 4 -30 -27 -26 -18 2 -25 2 -15 0 9 -2 15 -9 12 -14 -4 -5 1 -9 10 -9 9
0 13 -5 9 -11 -3 -6 -17 -8 -32 -4 l-26 6 19 -21 19 -21 -27 6 c-24 6 -27 4
-27 -19 0 -14 -4 -26 -10 -26 -5 0 -11 -15 -11 -32 -2 -31 -2 -31 -8 7 l-7 40
-7 -36 c-8 -38 -44 -66 -71 -56 -11 4 -18 -1 -22 -17 -4 -17 -12 -23 -32 -22
-15 1 -30 5 -33 9 -3 5 -9 2 -12 -7 -5 -11 -1 -16 14 -16 16 0 18 -2 7 -14 -9
-10 -15 -11 -20 -2 -4 6 -8 7 -9 1 0 -5 -4 -1 -9 10 -8 18 -9 18 -9 -5 -1 -19
-4 -21 -10 -11 -7 11 -10 9 -13 -10 l-5 -24 -11 25 -11 25 -2 -30 -1 -30 -8
30 -8 30 -2 -35 c-2 -33 -3 -33 -10 -10 l-8 25 -2 -25 c-1 -23 -2 -24 -10 -5
-9 19 -9 19 -16 -2 -3 -13 -10 -23 -14 -23 -5 0 -6 10 -4 23 2 12 -2 6 -10
-13 -11 -26 -15 -30 -16 -15 -1 12 -4 15 -7 7 -4 -10 -8 -10 -19 -1 -11 9 -14
8 -14 -5 0 -10 -4 -15 -9 -11 -5 3 -17 -2 -25 -11 -9 -9 -16 -11 -16 -4 0 7
-6 5 -16 -4 -21 -22 -26 -20 -19 7 5 19 4 20 -5 5 -6 -10 -16 -18 -22 -18 -7
0 -26 -12 -42 -27 -17 -16 -25 -21 -18 -13 6 8 12 21 12 30 -1 12 -2 12 -11
-2 -7 -14 -19 -17 -47 -13 -26 3 -33 2 -22 -5 8 -5 11 -10 6 -10 -5 0 -18 7
-28 17 -12 11 -18 12 -18 3 0 -7 -7 -10 -16 -6 -8 3 -12 2 -9 -4 5 -9 -8 -14
-19 -7 -2 1 -13 -7 -25 -17 -14 -13 -21 -15 -21 -6 0 10 -3 10 -15 0 -18 -15
-20 0 -2 20 6 8 0 4 -15 -9 -14 -13 -31 -20 -37 -17 -5 4 -13 1 -16 -5 -4 -6
-18 -8 -31 -5 -14 4 -24 2 -24 -4 0 -5 -10 -10 -22 -10 -19 0 -20 -2 -8 -10
13 -8 12 -10 -5 -11 -11 -1 -24 -1 -29 0 -5 1 -6 -5 -3 -14 5 -11 0 -15 -17
-15 -14 0 -33 -3 -43 -7 -16 -6 -15 -8 7 -14 22 -6 21 -7 -10 -9 -19 -1 -29
-4 -22 -7 20 -8 14 -22 -8 -16 -14 4 -20 1 -18 -7 2 -8 -7 -19 -20 -25 -13 -7
-30 -22 -38 -34 -8 -11 -22 -21 -30 -21 -8 0 -14 -7 -14 -15 0 -10 -10 -15
-27 -16 -16 0 -22 -3 -15 -6 6 -2 12 -12 12 -21 0 -15 -2 -15 -10 -2 -8 12
-10 12 -16 -3 -3 -9 -10 -17 -16 -17 -5 0 -6 5 -2 12 4 7 3 8 -4 4 -7 -4 -12
-17 -13 -29 l0 -22 -9 23 c-9 21 -21 31 -19 15 1 -5 1 -19 0 -32 -1 -24 -1
-24 -16 -5 -14 18 -14 18 -15 -4 0 -19 -3 -21 -19 -12 -27 14 -41 13 -35 -3 3
-9 -8 -13 -41 -12 -25 0 -45 4 -45 9 0 4 9 6 20 3 11 -3 20 -1 20 4 0 5 7 9
15 9 8 0 15 5 15 10 0 12 -13 13 -24 3 -4 -4 -23 -8 -42 -10 -28 -1 -35 1 -30
13 3 8 2 13 -2 10 -4 -2 -14 -1 -22 5 -9 5 -10 9 -3 9 15 0 4 42 -14 53 -16
10 -17 37 -1 37 6 0 3 7 -8 15 -19 14 -19 14 1 15 12 0 16 3 9 8 -17 11 -25
42 -11 42 8 0 8 3 -2 9 -11 7 -10 11 5 20 17 9 17 10 2 11 -23 0 -23 17 0 23
12 3 9 5 -8 6 -25 2 -25 2 5 16 l30 13 -30 2 -30 2 30 10 c26 10 27 12 10 19
-19 6 -18 8 5 17 l25 11 -24 7 -25 7 25 10 c20 8 21 11 6 14 -22 6 -12 23 14
23 27 0 14 20 -14 21 -21 1 -19 2 22 15 11 4 10 8 -5 19 -18 14 -18 14 9 15
32 0 37 20 5 20 -19 1 -16 4 15 21 43 22 48 34 12 25 -14 -4 -25 -2 -25 4 0 5
6 10 13 10 8 0 22 9 32 21 19 20 19 20 -9 9 -16 -6 -31 -8 -34 -5 -3 3 0 5 7
5 6 0 23 11 36 24 13 13 34 31 47 40 12 9 18 16 12 16 -6 0 -19 -7 -30 -15
-36 -27 -39 -14 -4 16 l35 30 -30 -7 -30 -7 28 24 c28 25 39 51 12 29 -9 -7
-18 -10 -21 -7 -3 3 3 12 15 19 12 7 21 18 21 25 0 7 5 13 12 13 6 0 8 3 5 7
-4 3 -17 -2 -29 -13 -21 -19 -21 -18 1 14 18 26 26 31 33 20 6 -8 7 -5 2 12
-4 14 -7 35 -6 48 1 15 -4 22 -16 22 -14 0 -14 2 -3 9 11 7 10 10 -5 14 -13 3
-9 5 11 6 l30 2 -25 14 -25 14 25 1 c23 1 23 2 -7 13 -39 15 -58 33 -23 22 14
-4 30 -10 37 -12 7 -3 10 3 6 16 -3 12 -10 21 -15 21 -5 0 -6 -4 -3 -10 3 -5
1 -10 -5 -10 -7 0 -9 7 -6 16 4 10 -1 26 -11 38 -10 12 -11 15 -3 9 18 -17 38
-17 22 -1 -7 7 -12 26 -12 43 0 17 -5 36 -12 43 -8 8 -8 15 2 27 10 12 10 18
0 30 -17 20 -5 32 15 15 10 -9 15 -9 15 -1 0 6 -12 17 -27 24 -16 6 -34 17
-41 24 -7 7 -24 16 -38 19 -13 3 -24 11 -24 16 0 6 8 7 18 3 33 -15 70 -17 89
-5 15 9 13 11 -15 7 -18 -2 -35 0 -38 5 -3 4 0 8 5 8 15 0 14 30 -1 31 -10 0
-10 2 0 6 6 2 12 11 12 19 0 10 12 14 40 14 33 0 40 -3 40 -20 0 -17 7 -20 40
-20 33 0 40 3 40 20 0 17 7 20 40 20 22 0 40 5 40 10 0 6 18 10 40 10 22 0 40
5 40 10 0 6 33 10 80 10 l80 0 0 60 c0 33 4 60 10 60 6 0 10 -19 10 -41z m133
4 c-7 -2 -19 -2 -25 0 -7 3 -2 5 12 5 14 0 19 -2 13 -5z m-473 -33 c0 -5 -18
-10 -40 -10 -22 0 -40 5 -40 10 0 6 18 10 40 10 22 0 40 -4 40 -10z m240 0 c0
-5 -18 -10 -40 -10 -22 0 -40 5 -40 10 0 6 18 10 40 10 22 0 40 -4 40 -10z
m-403 -16 c-3 -3 -12 -4 -19 -1 -8 3 -5 6 6 6 11 1 17 -2 13 -5z m-98 -33 c13
-3 -23 -6 -80 -6 -57 0 -122 -3 -144 -7 -40 -8 -40 -7 5 6 47 15 178 19 219 7z
m-59 -39 c0 -4 -18 -6 -40 -4 -22 2 -40 6 -40 8 0 2 18 4 40 4 22 0 40 -3 40
-8z m-106 -13 c-6 -11 -45 -11 -61 -1 -6 4 6 8 27 8 22 1 37 -2 34 -7z m186 1
c0 -12 -27 -12 -55 0 -16 7 -13 9 18 9 20 1 37 -3 37 -9z m-380 -10 c0 -5 -4
-10 -10 -10 -5 0 -10 5 -10 10 0 6 5 10 10 10 6 0 10 -4 10 -10z m430 0 c0 -5
-4 -10 -9 -10 -6 0 -13 5 -16 10 -3 6 1 10 9 10 9 0 16 -4 16 -10z m-311 -4
c-11 -9 -69 -15 -64 -6 3 6 20 10 37 10 17 0 29 -2 27 -4z m98 -12 c-3 -3 -12
-4 -19 -1 -8 3 -5 6 6 6 11 1 17 -2 13 -5z m96 -1 c-7 -2 -21 -2 -30 0 -10 3
-4 5 12 5 17 0 24 -2 18 -5z m-293 -23 c-8 -6 -22 -10 -30 -9 -9 0 -5 6 10 14
27 14 44 10 20 -5z m135 10 c-11 -5 -33 -8 -50 -8 l-30 0 30 8 c17 4 39 8 50
8 l20 1 -20 -9z m258 0 c9 0 17 -4 17 -10 0 -14 -19 -12 -55 6 -26 12 -27 14
-5 9 14 -2 33 -5 43 -5z m-144 -14 c-10 -9 -109 -14 -104 -6 4 6 29 10 57 10
28 0 49 -2 47 -4z m-194 -17 c-5 -7 6 -8 32 -5 33 5 34 5 10 -3 -16 -5 -36
-16 -45 -23 -13 -11 -15 -11 -10 3 4 9 1 22 -5 28 -8 8 -6 11 7 11 9 0 14 -5
11 -11z m295 1 c13 -9 13 -10 0 -10 -8 0 -22 5 -30 10 -13 9 -13 10 0 10 8 0
22 -5 30 -10z m-173 -16 c-3 -3 -12 -4 -19 -1 -8 3 -5 6 6 6 11 1 17 -2 13 -5z
m173 -11 c2 -2 -12 -3 -33 -1 -20 1 -37 6 -37 10 0 7 60 0 70 -9z m-254 -14
c-21 -11 -40 -18 -43 -15 -6 6 48 35 67 36 8 0 -3 -9 -24 -21z m104 1 c0 -5
-5 -10 -11 -10 -5 0 -7 5 -4 10 3 6 8 10 11 10 2 0 4 -4 4 -10z m203 -5 c27
-11 35 -20 35 -40 0 -19 -4 -23 -13 -15 -7 5 -26 7 -44 4 -21 -4 -31 -3 -31 5
0 8 8 10 23 6 22 -7 22 -7 2 9 -19 15 -18 15 13 5 46 -15 50 -5 7 15 -19 9
-35 19 -35 21 0 7 5 6 43 -10z m-130 -2 c-7 -2 -19 -2 -25 0 -7 3 -2 5 12 5
14 0 19 -2 13 -5z m-163 -13 c-8 -5 -19 -10 -25 -10 -5 0 -3 5 5 10 8 5 20 10
25 10 6 0 3 -5 -5 -10z m117 -6 c-3 -3 -12 -4 -19 -1 -8 3 -5 6 6 6 11 1 17
-2 13 -5z m2730 0 c-3 -3 -12 -4 -19 -1 -8 3 -5 6 6 6 11 1 17 -2 13 -5z
m-2887 -8 c0 -11 -19 -15 -25 -6 -3 5 1 10 9 10 9 0 16 -2 16 -4z m54 -12 c3
-8 2 -12 -4 -9 -6 3 -10 10 -10 16 0 14 7 11 14 -7z m179 9 c-7 -2 -19 -2 -25
0 -7 3 -2 5 12 5 14 0 19 -2 13 -5z m-303 -13 c-20 -13 -40 -13 -40 0 0 6 12
10 28 10 21 0 24 -2 12 -10z m100 6 c0 -3 -4 -8 -10 -11 -5 -3 -10 -1 -10 4 0
6 5 11 10 11 6 0 10 -2 10 -4z m153 -13 c-13 -2 -35 -2 -50 0 -16 2 -5 4 22 4
28 0 40 -2 28 -4z m894 1 c-3 -3 -12 -4 -19 -1 -8 3 -5 6 6 6 11 1 17 -2 13
-5z m-820 -10 c-3 -3 -12 -4 -19 -1 -8 3 -5 6 6 6 11 1 17 -2 13 -5z m93 -4
c0 -5 -4 -10 -10 -10 -5 0 -10 5 -10 10 0 6 5 10 10 10 6 0 10 -4 10 -10z
m-207 -7 c-7 -2 -21 -2 -30 0 -10 3 -4 5 12 5 17 0 24 -2 18 -5z m227 -22 c0
-23 -26 -35 -48 -21 -14 9 -13 10 6 5 20 -6 32 8 15 18 -5 2 -2 2 5 1 6 -2 12
1 12 6 0 6 2 10 5 10 3 0 5 -9 5 -19z m-75 -1 c3 -6 -1 -7 -9 -4 -18 7 -21 14
-7 14 6 0 13 -4 16 -10z m-308 -22 c-3 -8 -6 -5 -6 6 -1 11 2 17 5 13 3 -3 4
-12 1 -19z m30 0 c-3 -8 -6 -5 -6 6 -1 11 2 17 5 13 3 -3 4 -12 1 -19z m1113
-12 c0 -2 -9 -6 -20 -9 -11 -3 -18 -1 -14 4 5 9 34 13 34 5z m710 -6 c0 -5 -5
-10 -11 -10 -5 0 -7 5 -4 10 3 6 8 10 11 10 2 0 4 -4 4 -10z m68 -10 c-7 -11
-17 -20 -22 -20 -5 0 -1 9 9 20 10 11 20 20 22 20 2 0 -2 -9 -9 -20z m-1958
-23 c0 -41 -16 -47 -17 -6 -1 23 2 37 8 34 5 -4 9 -16 9 -28z m25 -37 c3 -5 1
-10 -4 -10 -6 0 -11 5 -11 10 0 6 2 10 4 10 3 0 8 -4 11 -10z m2935 -31 c0 -6
-4 -7 -10 -4 -5 3 -10 11 -10 16 0 6 5 7 10 4 6 -3 10 -11 10 -16z m-1323 -11
c-3 -8 -6 -5 -6 6 -1 11 2 17 5 13 3 -3 4 -12 1 -19z m447 -2 c-6 -16 -24 -23
-24 -8 0 10 22 33 27 28 2 -2 1 -11 -3 -20z m-2114 -66 c0 -5 -4 -10 -10 -10
-5 0 -10 5 -10 10 0 6 5 10 10 10 6 0 10 -4 10 -10z m-37 -97 c-7 -2 -19 -2
-25 0 -7 3 -2 5 12 5 14 0 19 -2 13 -5z m4407 -58 c-7 -8 -17 -15 -22 -15 -6
0 -5 7 2 15 7 8 17 15 22 15 6 0 5 -7 -2 -15z m-4456 -31 c3 -8 2 -12 -4 -9
-6 3 -10 10 -10 16 0 14 7 11 14 -7z m4536 -28 c0 -3 -4 -8 -10 -11 -5 -3 -10
-1 -10 4 0 6 5 11 10 11 6 0 10 -2 10 -4z m-1529 -33 c-12 -20 -14 -14 -5 12
4 9 9 14 11 11 3 -2 0 -13 -6 -23z m1553 -32 c3 -5 -1 -14 -8 -20 -11 -9 -16
-9 -22 0 -5 8 -3 9 6 4 10 -6 12 -4 7 8 -7 18 8 24 17 8z m-2496 -22 c3 -12 2
-12 -6 0 -8 11 -11 9 -15 -10 -4 -22 -4 -22 -6 4 -1 30 19 34 27 6z m2029 -81
c-3 -8 -6 -5 -6 6 -1 11 2 17 5 13 3 -3 4 -12 1 -19z m2307 -63 c-4 -8 -7 -15
-9 -15 -2 0 -5 7 -9 15 -3 9 0 15 9 15 9 0 12 -6 9 -15z m-6 -170 c-3 -3 -9 2
-12 12 -6 14 -5 15 5 6 7 -7 10 -15 7 -18z m-5078 5 c0 -5 -5 -10 -11 -10 -5
0 -7 5 -4 10 3 6 8 10 11 10 2 0 4 -4 4 -10z m976 -101 c-8 -19 -15 -29 -15
-22 -1 18 19 67 25 61 3 -3 -2 -21 -10 -39z m-51 -69 c-10 -11 -20 -18 -23
-15 -7 6 18 35 31 35 5 0 2 -9 -8 -20z m2868 -77 c-7 -2 -19 -2 -25 0 -7 3 -2
5 12 5 14 0 19 -2 13 -5z m155 -10 c-10 -2 -26 -2 -35 0 -10 3 -2 5 17 5 19 0
27 -2 18 -5z m272 -3 c0 -5 -4 -10 -10 -10 -5 0 -10 5 -10 10 0 6 5 10 10 10
6 0 10 -4 10 -10z m-565 -10 c-11 -5 -31 -8 -45 -8 l-25 0 25 8 c14 4 34 8 45
8 l20 1 -20 -9z m443 3 c-10 -2 -26 -2 -35 0 -10 3 -2 5 17 5 19 0 27 -2 18
-5z m-1953 -53 c3 -5 1 -10 -4 -10 -6 0 -11 5 -11 10 0 6 2 10 4 10 3 0 8 -4
11 -10z m-2922 -87 c-7 -2 -19 -2 -25 0 -7 3 -2 5 12 5 14 0 19 -2 13 -5z
m2384 -119 c-3 -3 -12 -4 -19 -1 -8 3 -5 6 6 6 11 1 17 -2 13 -5z m-1177 -29
c0 -12 -19 -12 -23 0 -4 9 -1 12 9 8 7 -3 14 -7 14 -8z m5573 8 c-7 -2 -19 -2
-25 0 -7 3 -2 5 12 5 14 0 19 -2 13 -5z m-43 -13 c0 -5 -4 -10 -9 -10 -6 0
-13 5 -16 10 -3 6 1 10 9 10 9 0 16 -4 16 -10z m-60 -30 c0 -5 -5 -10 -11 -10
-5 0 -7 5 -4 10 3 6 8 10 11 10 2 0 4 -4 4 -10z m80 6 c0 -2 -13 -6 -30 -8
-16 -3 -30 -1 -30 4 0 4 14 8 30 8 17 0 30 -2 30 -4z m197 -28 c-3 -8 -6 -5
-6 6 -1 11 2 17 5 13 3 -3 4 -12 1 -19z m-7467 -28 c0 -5 -5 -10 -11 -10 -5 0
-7 5 -4 10 3 6 8 10 11 10 2 0 4 -4 4 -10z m2840 -14 c0 -3 -4 -8 -10 -11 -5
-3 -10 -1 -10 4 0 6 5 11 10 11 6 0 10 -2 10 -4z m1285 -76 c13 -5 14 -9 5 -9
-8 0 -24 4 -35 9 -13 5 -14 9 -5 9 8 0 24 -4 35 -9z m288 -7 c-13 -2 -35 -2
-50 0 -16 2 -5 4 22 4 28 0 40 -2 28 -4z m52 -3 c3 -5 2 -10 -4 -10 -5 0 -13
5 -16 10 -3 6 -2 10 4 10 5 0 13 -4 16 -10z m1362 -36 c-3 -3 -12 -4 -19 -1
-8 3 -5 6 6 6 11 1 17 -2 13 -5z m-1024 -21 c-7 -2 -19 -2 -25 0 -7 3 -2 5 12
5 14 0 19 -2 13 -5z m47 3 c0 -2 -7 -6 -15 -10 -8 -3 -15 -1 -15 4 0 6 7 10
15 10 8 0 15 -2 15 -4z m983 -3 c-7 -2 -19 -2 -25 0 -7 3 -2 5 12 5 14 0 19
-2 13 -5z m1037 -13 c-6 -11 -13 -20 -16 -20 -2 0 0 9 6 20 6 11 13 20 16 20
2 0 0 -9 -6 -20z m612 -2 c-7 -7 -12 -8 -12 -2 0 14 12 26 19 19 2 -3 -1 -11
-7 -17z m-7275 -64 c-3 -3 -12 -4 -19 -1 -8 3 -5 6 6 6 11 1 17 -2 13 -5z m10
-20 c-3 -3 -12 -4 -19 -1 -8 3 -5 6 6 6 11 1 17 -2 13 -5z m3270 -41 c-3 -10
-5 -4 -5 12 0 17 2 24 5 18 2 -7 2 -21 0 -30z m-3280 21 c-3 -3 -12 -4 -19 -1
-8 3 -5 6 6 6 11 1 17 -2 13 -5z m5670 -20 c2 -13 1 -15 -4 -4 -3 8 -11 19
-17 23 -7 6 -6 7 4 4 8 -2 16 -12 17 -23z m-5654 -1 c-7 -2 -21 -2 -30 0 -10
3 -4 5 12 5 17 0 24 -2 18 -5z m5715 -38 c-3 -3 -9 2 -12 12 -6 14 -5 15 5 6
7 -7 10 -15 7 -18z m-2474 -40 c-4 -8 -8 -15 -10 -15 -2 0 -4 7 -4 15 0 8 4
15 10 15 5 0 7 -7 4 -15z m-2763 -18 c-10 -9 -11 -8 -5 6 3 10 9 15 12 12 3
-3 0 -11 -7 -18z m6631 -15 c-6 -16 -7 -16 -10 1 -2 9 -10 17 -17 17 -8 0 -16
4 -20 10 -3 5 6 5 24 -1 22 -8 28 -15 23 -27z m-7065 -28 c-3 -3 -12 -4 -19
-1 -8 3 -5 6 6 6 11 1 17 -2 13 -5z m3198 -33 c-3 -6 -11 -11 -16 -11 -5 0 -4
6 3 14 14 16 24 13 13 -3z m4345 -35 c0 -3 -4 -8 -10 -11 -5 -3 -10 -1 -10 4
0 6 5 11 10 11 6 0 10 -2 10 -4z m-400 -30 c0 -2 -7 -7 -16 -10 -8 -3 -12 -2
-9 4 6 10 25 14 25 6z m258 -9 c8 -10 6 -13 -7 -13 -11 0 -17 6 -14 13 3 7 6
13 8 13 1 0 7 -6 13 -13z m415 -4 c-7 -2 -19 -2 -25 0 -7 3 -2 5 12 5 14 0 19
-2 13 -5z m-5366 -40 c-3 -10 -5 -4 -5 12 0 17 2 24 5 18 2 -7 2 -21 0 -30z
m4750 21 c-3 -3 -12 -4 -19 -1 -8 3 -5 6 6 6 11 1 17 -2 13 -5z m724 -35 c-9
-22 -10 -22 -10 -3 -1 11 2 24 6 27 12 12 14 0 4 -24z m26 -11 c-3 -8 -6 -5
-6 6 -1 11 2 17 5 13 3 -3 4 -12 1 -19z m-7507 -62 c0 -2 -7 -6 -15 -10 -8 -3
-15 -1 -15 4 0 6 7 10 15 10 8 0 15 -2 15 -4z m7630 -86 c0 -5 -4 -10 -10 -10
-5 0 -10 5 -10 10 0 6 5 10 10 10 6 0 10 -4 10 -10z m-42 -37 c1 -21 4 -51 7
-68 4 -24 3 -26 -4 -9 -12 27 -17 114 -8 114 2 0 4 -17 5 -37z m-31 -45 c-3
-8 -6 -5 -6 6 -1 11 2 17 5 13 3 -3 4 -12 1 -19z m-6284 -125 c-7 -2 -19 -2
-25 0 -7 3 -2 5 12 5 14 0 19 -2 13 -5z m5657 -14 c0 -15 -18 -19 -23 -6 -3 8
1 14 9 14 8 0 14 -4 14 -8z m-35 -9 c3 -5 1 -10 -4 -10 -6 0 -11 5 -11 10 0 6
2 10 4 10 3 0 8 -4 11 -10z m-4785 -80 c0 -5 -5 -10 -11 -10 -5 0 -7 5 -4 10
3 6 8 10 11 10 2 0 4 -4 4 -10z m3027 -32 c-3 -8 -6 -5 -6 6 -1 11 2 17 5 13
3 -3 4 -12 1 -19z m33 2 c0 -5 -5 -10 -11 -10 -5 0 -7 5 -4 10 3 6 8 10 11 10
2 0 4 -4 4 -10z m117 -76 c-3 -3 -12 -4 -19 -1 -8 3 -5 6 6 6 11 1 17 -2 13
-5z m743 -124 c0 -5 -4 -10 -10 -10 -5 0 -10 5 -10 10 0 6 5 10 10 10 6 0 10
-4 10 -10z m470 0 c0 -5 -5 -10 -11 -10 -5 0 -7 5 -4 10 3 6 8 10 11 10 2 0 4
-4 4 -10z m-732 -47 c-10 -2 -26 -2 -35 0 -10 3 -2 5 17 5 19 0 27 -2 18 -5z
m615 -8 c-3 -9 -8 -14 -10 -11 -3 3 -2 9 2 15 9 16 15 13 8 -4z m-778 -24 c-6
-5 -25 10 -25 20 0 5 6 4 14 -3 8 -7 12 -15 11 -17z m-6305 -2381 c0 -13 -11
-13 -30 0 -12 8 -11 10 8 10 12 0 22 -4 22 -10z m1309 -2669 c17 -17 17 -20 4
-25 -24 -10 -53 -7 -53 5 0 6 9 8 20 4 11 -4 20 -2 20 4 0 6 -11 11 -25 11
-14 0 -25 5 -25 10 0 17 39 11 59 -9z m-18 -53 c0 -10 2 -10 6 -1 6 15 50 7
74 -13 8 -8 23 -14 32 -14 29 0 29 -20 0 -21 l-28 -1 30 -8 c28 -7 29 -8 5 -9
-25 -1 -26 -3 -29 -81 -1 -52 1 -80 8 -80 6 0 11 -18 11 -40 0 -38 2 -40 30
-40 17 0 30 -2 30 -4 0 -14 -14 -36 -22 -36 -21 0 -78 88 -78 120 0 27 -43
102 -51 89 -3 -6 -6 9 -5 35 1 25 5 49 9 52 13 13 7 26 -9 20 -8 -3 -12 -2 -9
4 3 6 2 10 -3 10 -6 0 -12 7 -16 15 -3 8 -1 15 4 15 6 0 10 -6 11 -12z m185
-133 c-5 -13 1 -15 32 -11 20 3 29 3 20 0 -16 -5 -16 -8 4 -35 12 -16 30 -29
39 -29 29 0 49 -11 42 -24 -4 -6 1 -5 10 3 10 8 21 11 24 7 10 -10 13 -37 3
-31 -5 3 -10 -1 -13 -7 -3 -10 -7 -10 -19 -1 -12 11 -20 9 -41 -10 -30 -26
-34 -37 -12 -37 11 0 15 -11 15 -40 0 -22 -4 -40 -10 -40 -5 0 -10 -9 -10 -20
0 -16 7 -20 31 -20 29 0 43 -16 39 -44 -1 -5 4 -13 12 -17 10 -7 9 -9 -3 -9
-9 0 -19 7 -23 15 -3 8 -17 15 -31 15 -18 0 -25 -5 -25 -20 0 -11 4 -20 9 -20
5 0 11 -9 14 -20 3 -13 0 -20 -9 -20 -8 0 -14 9 -14 20 0 11 -4 20 -10 20 -15
0 -12 57 3 63 9 4 9 8 -3 16 -10 7 -15 37 -18 105 -3 73 -8 96 -18 96 -10 0
-14 -13 -14 -40 0 -22 -5 -40 -11 -40 -6 0 -9 18 -8 45 2 25 -2 50 -9 57 -15
15 -16 88 -1 88 6 0 8 -7 5 -15z m351 -243 c-18 -20 -23 -52 -8 -52 5 0 12 6
14 13 3 6 3 -4 0 -23 -3 -19 -10 -37 -14 -40 -4 -3 -12 -18 -18 -33 -17 -45
-32 -31 -15 15 10 29 11 45 4 52 -7 7 -13 7 -18 1 -4 -6 -17 -16 -29 -23 -19
-10 -23 -10 -23 3 0 8 4 15 8 15 13 0 52 36 52 48 0 13 51 54 58 47 3 -3 -2
-13 -11 -23z m-127 -167 c0 -12 -29 -3 -34 10 -4 13 -2 14 14 5 11 -6 20 -13
20 -15z m90 -26 c0 -6 -4 -7 -10 -4 -5 3 -10 11 -10 16 0 6 5 7 10 4 6 -3 10
-11 10 -16z m-204 -2 c10 4 14 -3 14 -27 0 -17 -4 -29 -10 -25 -5 3 -7 12 -3
20 3 9 -1 15 -11 15 -9 0 -16 8 -15 18 0 9 3 12 5 5 3 -7 12 -9 20 -6z"/>
<path d="M1200 8979 c0 -5 5 -7 10 -4 6 3 10 8 10 11 0 2 -4 4 -10 4 -5 0 -10
-5 -10 -11z"/>
<path d="M880 8950 c0 -5 18 -10 40 -10 22 0 40 5 40 10 0 6 -18 10 -40 10
-22 0 -40 -4 -40 -10z"/>
<path d="M685 8730 c-3 -5 -1 -10 4 -10 6 0 11 5 11 10 0 6 -2 10 -4 10 -3 0
-8 -4 -11 -10z"/>
<path d="M1510 8510 c-13 -8 -12 -10 3 -10 9 0 17 5 17 10 0 12 -1 12 -20 0z"/>
<path d="M706 8333 c-6 -14 -5 -15 5 -6 7 7 10 15 7 18 -3 3 -9 -2 -12 -12z"/>
<path d="M1269 7913 c-13 -16 -12 -17 4 -4 16 13 21 21 13 21 -2 0 -10 -8 -17
-17z"/>
<path d="M1334 7915 c-10 -8 -14 -15 -7 -15 6 0 15 5 18 10 4 6 11 7 17 4 7
-4 8 -2 4 4 -9 15 -8 15 -32 -3z"/>
<path d="M14698 10713 c7 -3 16 -2 19 1 4 3 -2 6 -13 5 -11 0 -14 -3 -6 -6z"/>
<path d="M14878 10713 c64 -3 82 -7 82 -18 0 -11 -12 -15 -40 -15 -22 0 -40
-4 -40 -10 0 -6 33 -10 80 -10 47 0 80 -4 80 -10 0 -5 18 -10 40 -10 34 0 40
-3 40 -20 0 -19 5 -21 52 -19 43 2 54 -1 66 -19 8 -12 21 -22 28 -22 8 0 14
-9 14 -20 0 -18 7 -20 80 -20 73 0 80 -2 80 -20 0 -17 7 -20 40 -20 l40 0 0
-50 0 -50 80 0 c47 0 80 -4 80 -10 0 -6 33 -10 80 -10 73 0 80 -2 80 -20 0
-18 -7 -20 -80 -20 -47 0 -80 -4 -80 -10 0 -6 47 -10 120 -10 73 0 120 -4 120
-10 0 -6 33 -10 80 -10 73 0 80 -2 80 -20 0 -17 -7 -20 -40 -20 -22 0 -40 -4
-40 -10 0 -5 21 -10 46 -10 45 0 46 0 39 -29 -6 -26 -4 -29 22 -29 15 0 40 7
55 14 35 18 38 18 37 -3 0 -12 -2 -13 -6 -5 -4 10 -8 9 -19 -5 -28 -37 -18
-43 66 -43 73 0 80 -2 80 -20 0 -18 -7 -20 -80 -20 -47 0 -80 -4 -80 -10 0 -6
33 -10 80 -10 47 0 80 4 80 10 0 6 18 10 40 10 22 0 40 5 40 10 0 6 18 10 40
10 l40 0 0 -40 0 -40 80 0 c47 0 80 -4 80 -10 0 -6 33 -10 80 -10 l80 0 0 -30
c0 -28 2 -30 40 -30 22 0 40 -4 40 -10 0 -6 47 -10 120 -10 113 0 120 -1 120
-20 0 -17 7 -20 40 -20 33 0 40 -3 40 -20 0 -17 7 -20 40 -20 22 0 40 5 40 10
0 6 18 10 40 10 22 0 40 -4 40 -10 0 -5 18 -10 40 -10 33 0 40 -3 40 -20 0
-17 7 -20 40 -20 33 0 40 -3 40 -20 0 -17 7 -20 40 -20 22 0 40 5 40 10 0 6
18 10 40 10 22 0 40 -4 40 -10 0 -5 18 -10 40 -10 33 0 40 -3 40 -20 0 -17 7
-20 40 -20 33 0 40 -3 40 -20 0 -19 7 -20 120 -20 113 0 120 -1 120 -20 0 -18
7 -20 80 -20 73 0 80 -2 80 -20 0 -17 7 -20 40 -20 22 0 40 5 40 10 0 6 18 10
40 10 22 0 40 -4 40 -10 0 -6 33 -10 80 -10 l80 0 0 -40 0 -40 40 0 c22 0 40
5 40 10 0 6 33 10 80 10 47 0 80 -4 80 -10 0 -5 16 -10 36 -10 27 0 37 -5 41
-20 5 -18 14 -20 84 -20 l79 0 0 -30 c0 -16 5 -30 10 -30 6 0 10 23 10 50 0
28 5 50 10 50 6 0 10 -22 10 -50 0 -67 20 -64 22 3 1 47 2 44 8 -23 4 -41 7
228 8 598 l2 672 -955 0 c-630 0 -955 -3 -955 -10 0 -5 -7 -10 -15 -10 -8 0
-15 5 -15 10 0 7 -252 10 -736 10 -676 0 -736 -1 -730 -16 6 -15 4 -15 -18 0
-23 14 -73 16 -463 14 -241 -1 -401 -4 -355 -5z m3732 -51 c0 -14 -11 -21 -26
-15 -8 3 -11 9 -8 14 7 11 34 12 34 1z m468 -49 c-5 -25 -28 -28 -28 -4 0 12
6 21 16 21 9 0 14 -7 12 -17z m-1128 -3 c0 -12 -28 -25 -36 -17 -9 9 6 27 22
27 8 0 14 -5 14 -10z m-340 -50 c0 -13 -7 -20 -20 -20 -19 0 -27 20 -13 33 13
14 33 6 33 -13z m657 -66 c3 -9 0 -20 -8 -25 -21 -13 -29 -11 -29 9 0 33 26
44 37 16z m-1019 -42 c4 -14 -34 -16 -42 -3 -6 10 13 21 28 17 6 -1 12 -8 14
-14z m-193 -3 c10 -15 -1 -23 -20 -15 -9 3 -13 10 -10 16 8 13 22 13 30 -1z
m1575 -94 c0 -8 -7 -15 -15 -15 -8 0 -15 7 -15 15 0 8 7 15 15 15 8 0 15 -7
15 -15z m-2435 -75 c3 -5 2 -10 -4 -10 -5 0 -13 5 -16 10 -3 6 -2 10 4 10 5 0
13 -4 16 -10z m-69 -16 c-3 -9 -6 -25 -6 -37 0 -16 -3 -18 -9 -9 -10 17 -2 62
11 62 6 0 7 -7 4 -16z m1762 -17 c2 -12 -3 -17 -17 -17 -23 0 -24 1 -15 25 8
19 28 15 32 -8z m-1697 -3 c12 -14 14 -14 20 3 7 17 8 17 8 0 1 -10 5 -16 9
-13 4 2 9 -4 9 -15 1 -10 -2 -19 -8 -19 -5 0 -10 -10 -10 -22 -2 -23 -2 -23
-6 -1 -4 21 -33 41 -33 23 0 -16 -29 1 -35 21 -12 37 21 53 46 23z m2804 -55
c0 -8 -10 -15 -23 -17 -21 -3 -22 -1 -12 18 12 23 35 22 35 -1z m-2675 -19 c0
-12 -69 -17 -80 -6 -18 18 -11 21 35 18 25 -2 45 -8 45 -12z m1900 -35 c0 -8
-7 -15 -15 -15 -8 0 -15 7 -15 15 0 8 7 15 15 15 8 0 15 -7 15 -15z m-305
-125 c-5 -8 -11 -8 -17 -2 -6 6 -7 16 -3 22 5 8 11 8 17 2 6 -6 7 -16 3 -22z
m793 -58 c2 -7 -3 -12 -12 -12 -9 0 -16 7 -16 16 0 17 22 14 28 -4z m-116
-175 c-3 -12 -7 -16 -10 -9 -2 7 -7 10 -12 7 -10 -6 -8 15 4 34 12 19 25 -5
18 -32z m445 -194 c5 -14 -30 -12 -44 3 -11 10 -8 12 14 10 15 -2 29 -8 30
-13z m-9 -26 c12 5 11 1 -5 -16 -13 -14 -28 -21 -37 -18 -8 3 -17 3 -19 -1 -2
-4 -2 -2 -1 5 5 20 -14 25 -25 6 -10 -17 -10 -17 -11 2 l-1 20 -9 -20 c-5 -11
-9 -14 -9 -7 -1 6 -6 12 -12 12 -5 0 -7 -4 -4 -10 3 -5 1 -10 -4 -10 -6 0 -11
4 -11 9 0 17 26 29 63 27 40 -1 44 3 25 24 -7 7 0 4 15 -8 17 -12 35 -18 45
-15z"/>
<path d="M14960 10600 l0 -40 40 0 40 0 0 40 0 40 -40 0 -40 0 0 -40z"/>
<path d="M15080 10520 c0 -33 3 -40 20 -40 13 0 20 7 20 20 0 17 7 20 40 20
33 0 40 3 40 20 0 18 -7 20 -60 20 l-60 0 0 -40z"/>
<path d="M15280 10460 c0 -17 7 -20 40 -20 33 0 40 3 40 20 0 17 -7 20 -40 20
-33 0 -40 -3 -40 -20z"/>
<path d="M3870 9610 c0 -5 5 -10 10 -10 6 0 10 5 10 10 0 6 -4 10 -10 10 -5 0
-10 -4 -10 -10z"/>
<path d="M3208 8833 c6 -2 18 -2 25 0 6 3 1 5 -13 5 -14 0 -19 -2 -12 -5z"/>
<path d="M3193 8655 c-3 -9 -3 -18 -1 -21 3 -3 8 4 11 16 6 23 -1 27 -10 5z"/>
<path d="M82 8530 c0 -14 2 -19 5 -12 2 6 2 18 0 25 -3 6 -5 1 -5 -13z"/>
<path d="M4478 8473 c7 -3 16 -2 19 1 4 3 -2 6 -13 5 -11 0 -14 -3 -6 -6z"/>
<path d="M4355 8430 c3 -5 8 -10 11 -10 2 0 4 5 4 10 0 6 -5 10 -11 10 -5 0
-7 -4 -4 -10z"/>
<path d="M80 8389 c0 -5 5 -7 10 -4 6 3 10 8 10 11 0 2 -4 4 -10 4 -5 0 -10
-5 -10 -11z"/>
<path d="M6298 8323 c7 -3 16 -2 19 1 4 3 -2 6 -13 5 -11 0 -14 -3 -6 -6z"/>
<path d="M4230 8310 c-13 -8 -12 -10 3 -10 9 0 17 5 17 10 0 12 -1 12 -20 0z"/>
<path d="M6270 8300 c-9 -6 -10 -10 -3 -10 6 0 15 5 18 10 8 12 4 12 -15 0z"/>
<path d="M6330 8291 c0 -5 5 -13 10 -16 6 -3 10 -2 10 4 0 5 -4 13 -10 16 -5
3 -10 2 -10 -4z"/>
<path d="M6170 8280 c8 -5 24 -10 34 -10 26 0 18 6 -19 14 -22 5 -26 4 -15 -4z"/>
<path d="M6295 8280 c-16 -7 -17 -9 -3 -9 9 -1 20 4 23 9 7 11 7 11 -20 0z"/>
<path d="M6340 8250 c0 -5 5 -10 11 -10 5 0 7 5 4 10 -3 6 -8 10 -11 10 -2 0
-4 -4 -4 -10z"/>
<path d="M6460 8246 c0 -2 7 -9 15 -16 13 -11 14 -10 9 4 -5 14 -24 23 -24 12z"/>
<path d="M6497 8239 c7 -7 15 -10 18 -7 3 3 -2 9 -12 12 -14 6 -15 5 -6 -5z"/>
<path d="M4175 8220 c-4 -12 -5 -24 -2 -27 3 -2 8 5 12 17 4 12 5 24 2 27 -3
2 -8 -5 -12 -17z"/>
<path d="M6006 8209 c8 -13 44 -31 44 -22 0 4 -11 13 -25 20 -14 6 -23 7 -19
2z"/>
<path d="M6020 8166 c0 -2 7 -7 16 -10 8 -3 12 -2 9 4 -6 10 -25 14 -25 6z"/>
<path d="M6573 8075 c-3 -9 -3 -18 -1 -21 3 -3 8 4 11 16 6 23 -1 27 -10 5z"/>
<path d="M6536 8033 c-13 -45 -17 -93 -9 -93 6 0 10 12 11 28 0 15 6 38 12 52
9 22 10 20 6 -15 -5 -37 -5 -38 5 -12 11 29 6 57 -10 57 -5 0 -12 -8 -15 -17z"/>
<path d="M2658 7953 c7 -3 16 -2 19 1 4 3 -2 6 -13 5 -11 0 -14 -3 -6 -6z"/>
<path d="M5208 7693 c6 -2 18 -2 25 0 6 3 1 5 -13 5 -14 0 -19 -2 -12 -5z"/>
<path d="M5298 7693 c12 -2 32 -2 45 0 12 2 2 4 -23 4 -25 0 -35 -2 -22 -4z"/>
<path d="M5048 7673 c12 -2 30 -2 40 0 9 3 -1 5 -23 4 -22 0 -30 -2 -17 -4z"/>
<path d="M5463 7673 c15 -2 39 -2 55 0 15 2 2 4 -28 4 -30 0 -43 -2 -27 -4z"/>
<path d="M5558 7663 c6 -2 18 -2 25 0 6 3 1 5 -13 5 -14 0 -19 -2 -12 -5z"/>
<path d="M3156 7535 c-3 -8 -1 -15 4 -15 6 0 10 7 10 15 0 8 -2 15 -4 15 -2 0
-6 -7 -10 -15z"/>
<path d="M7535 7439 c-4 -6 -5 -12 -2 -15 2 -3 7 2 10 11 7 17 1 20 -8 4z"/>
<path d="M7420 7431 c43 -6 44 -7 16 -14 -15 -4 -26 -10 -23 -13 5 -6 87 15
99 25 4 3 -26 7 -65 7 -58 1 -63 0 -27 -5z"/>
<path d="M7343 7403 c9 -2 25 -2 35 0 9 3 1 5 -18 5 -19 0 -27 -2 -17 -5z"/>
<path d="M7640 7394 c0 -6 7 -19 15 -30 8 -10 14 -14 14 -9 0 6 -6 19 -14 29
-8 11 -15 15 -15 10z"/>
<path d="M7620 7373 c0 -13 5 -23 10 -23 13 0 13 11 0 30 -8 12 -10 11 -10 -7z"/>
<path d="M7210 7340 c0 -5 5 -10 11 -10 5 0 7 5 4 10 -3 6 -8 10 -11 10 -2 0
-4 -4 -4 -10z"/>
<path d="M7630 7318 c0 -9 7 -24 16 -32 16 -17 49 -22 40 -7 -4 5 -3 11 1 14
5 2 1 2 -7 0 -8 -2 -22 6 -32 19 -14 18 -18 20 -18 6z"/>
<path d="M7701 7264 c0 -11 3 -14 6 -6 3 7 2 16 -1 19 -3 4 -6 -2 -5 -13z"/>
<path d="M3871 7184 c0 -11 3 -14 6 -6 3 7 2 16 -1 19 -3 4 -6 -2 -5 -13z"/>
<path d="M168 7173 c7 -3 16 -2 19 1 4 3 -2 6 -13 5 -11 0 -14 -3 -6 -6z"/>
<path d="M4150 7170 c0 -5 5 -10 11 -10 5 0 7 5 4 10 -3 6 -8 10 -11 10 -2 0
-4 -4 -4 -10z"/>
<path d="M4188 7153 c6 -2 18 -2 25 0 6 3 1 5 -13 5 -14 0 -19 -2 -12 -5z"/>
<path d="M4720 7141 c0 -10 19 -25 25 -20 1 2 -3 10 -11 17 -8 7 -14 8 -14 3z"/>
<path d="M4288 7133 c6 -2 18 -2 25 0 6 3 1 5 -13 5 -14 0 -19 -2 -12 -5z"/>
<path d="M4558 7123 c6 -2 18 -2 25 0 6 3 1 5 -13 5 -14 0 -19 -2 -12 -5z"/>
<path d="M2927 7093 c-4 -3 -7 -11 -7 -17 0 -6 5 -5 12 2 6 6 9 14 7 17 -3 3
-9 2 -12 -2z"/>
<path d="M6711 6934 c0 -11 3 -14 6 -6 3 7 2 16 -1 19 -3 4 -6 -2 -5 -13z"/>
<path d="M7530 6920 c0 -5 5 -10 10 -10 6 0 10 5 10 10 0 6 -4 10 -10 10 -5 0
-10 -4 -10 -10z"/>
<path d="M7510 6861 c0 -5 5 -13 10 -16 6 -3 10 -2 10 4 0 5 -4 13 -10 16 -5
3 -10 2 -10 -4z"/>
<path d="M6345 6840 c-3 -5 -1 -10 4 -10 6 0 11 5 11 10 0 6 -2 10 -4 10 -3 0
-8 -4 -11 -10z"/>
<path d="M7835 6789 c-4 -6 -5 -12 -2 -15 2 -3 7 2 10 11 7 17 1 20 -8 4z"/>
<path d="M7595 6769 c-4 -6 -5 -12 -2 -15 2 -3 7 2 10 11 7 17 1 20 -8 4z"/>
<path d="M7696 6758 c5 -7 2 -9 -9 -5 -11 4 -14 2 -11 -8 3 -8 12 -11 20 -8
16 6 19 33 3 33 -5 0 -7 -5 -3 -12z"/>
<path d="M8431 6606 c-8 -10 -9 -16 -1 -21 5 -3 10 0 10 9 0 8 6 17 13 19 7 4
8 6 1 6 -6 1 -17 -5 -23 -13z"/>
<path d="M1041 6544 c0 -11 3 -14 6 -6 3 7 2 16 -1 19 -3 4 -6 -2 -5 -13z"/>
<path d="M1260 6556 c0 -2 7 -7 16 -10 8 -3 12 -2 9 4 -6 10 -25 14 -25 6z"/>
<path d="M3461 6384 c0 -11 3 -14 6 -6 3 7 2 16 -1 19 -3 4 -6 -2 -5 -13z"/>
<path d="M7945 6290 c3 -5 8 -10 11 -10 2 0 4 5 4 10 0 6 -5 10 -11 10 -5 0
-7 -4 -4 -10z"/>
<path d="M8355 6270 c3 -5 10 -10 16 -10 5 0 9 5 9 10 0 6 -7 10 -16 10 -8 0
-12 -4 -9 -10z"/>
<path d="M8230 6256 c0 -2 8 -10 18 -17 15 -13 16 -12 3 4 -13 16 -21 21 -21
13z"/>
<path d="M3056 6225 c-9 -26 -7 -32 5 -12 6 10 9 21 6 23 -2 3 -7 -2 -11 -11z"/>
<path d="M7291 5918 c-1 -10 6 -18 14 -18 8 0 15 5 15 11 0 5 -4 8 -9 5 -5 -4
-12 0 -14 6 -3 8 -6 6 -6 -4z"/>
<path d="M6388 5863 c6 -2 18 -2 25 0 6 3 1 5 -13 5 -14 0 -19 -2 -12 -5z"/>
<path d="M6430 5856 c0 -2 7 -9 15 -16 13 -11 14 -10 9 4 -5 14 -24 23 -24 12z"/>
<path d="M6540 5835 c0 -8 4 -15 10 -15 5 0 7 7 4 15 -4 8 -8 15 -10 15 -2 0
-4 -7 -4 -15z"/>
<path d="M81 5304 c0 -11 3 -14 6 -6 3 7 2 16 -1 19 -3 4 -6 -2 -5 -13z"/>
<path d="M10783 4552 c-27 -4 -27 -5 -8 -42 17 -33 18 -40 4 -57 -7 -7 -5 -32
6 -71 8 -33 15 -75 16 -93 l0 -34 16 33 c19 37 33 41 40 12 3 -11 9 -18 13
-15 22 14 20 -124 -3 -153 -10 -13 -26 -185 -33 -357 -5 -121 -22 -404 -28
-462 -6 -59 -56 -121 -138 -168 -58 -33 -307 -197 -326 -215 -12 -11 -22 -28
-22 -37 0 -51 -208 -164 -329 -178 -14 -2 -55 -13 -90 -25 -55 -20 -68 -21
-100 -10 -31 10 -49 8 -121 -9 -46 -12 -86 -25 -90 -30 -9 -15 -147 -101 -194
-121 -26 -11 -55 -27 -65 -37 -11 -10 -75 -40 -143 -67 -68 -27 -150 -62 -183
-79 -33 -16 -91 -44 -130 -61 -85 -38 -212 -113 -243 -143 -12 -12 -41 -27
-65 -33 -23 -6 -49 -13 -57 -16 -22 -6 -111 -65 -140 -92 -14 -12 -36 -26 -50
-29 -13 -3 -55 -21 -92 -40 -37 -18 -71 -33 -76 -33 -5 0 -21 -9 -36 -21 -14
-11 -30 -18 -35 -15 -5 4 -11 3 -13 -2 -1 -4 -17 -18 -34 -30 -29 -20 -44 -20
-44 -1 0 13 77 55 200 110 88 39 122 61 166 104 30 30 66 57 82 61 58 12 84
29 157 99 70 67 82 74 147 91 51 14 87 31 126 61 30 23 71 48 91 54 20 7 59
26 86 43 28 17 73 42 100 54 28 13 61 30 75 38 14 8 33 18 43 21 29 9 91 45
169 97 43 30 83 49 96 48 28 -2 85 25 77 37 -8 15 -74 23 -214 28 -85 2 -136
0 -140 -6 -4 -6 -58 -12 -121 -15 -104 -4 -123 -8 -196 -39 -87 -37 -183 -59
-170 -38 4 6 18 11 32 11 13 0 24 5 24 10 0 14 -49 32 -69 27 -9 -3 -5 -5 9
-6 19 -1 22 -3 11 -10 -10 -6 -27 -4 -50 6 -20 9 -45 17 -56 18 -11 1 -29 6
-40 10 -39 14 -231 108 -255 125 -14 9 -43 23 -65 30 -22 7 -45 17 -51 21 -6
5 -96 21 -200 35 -207 29 -268 44 -323 78 -20 13 -58 26 -86 30 -61 8 -115 35
-161 82 -20 19 -39 33 -42 30 -3 -3 -13 1 -22 9 -11 10 -49 15 -139 18 -111 4
-123 3 -134 -14 -7 -11 -22 -19 -35 -19 -15 0 -26 -7 -29 -20 -3 -11 -10 -20
-15 -20 -6 0 -7 -25 -3 -68 6 -59 4 -70 -14 -91 -18 -21 -27 -23 -88 -19 -37
2 -68 9 -71 16 -2 6 -9 9 -17 6 -13 -5 -32 32 -22 42 2 3 -4 33 -15 67 -15 48
-30 72 -67 107 -65 62 -73 85 -18 55 36 -21 44 -22 60 -10 25 18 15 47 -23 64
-17 7 -29 15 -26 18 2 3 21 -3 41 -12 58 -28 50 -11 -22 46 -49 39 -63 55 -50
57 21 4 23 22 2 22 -8 0 -15 4 -15 9 0 5 -16 15 -36 21 -20 7 -52 30 -72 51
-35 37 -62 53 -46 28 4 -7 -7 -3 -25 7 -25 15 -35 16 -49 7 -9 -6 -16 -16 -15
-22 2 -6 1 -11 -1 -11 -17 0 -246 125 -246 134 0 6 -8 17 -17 24 -10 7 -23 16
-28 20 -6 4 -23 26 -39 49 -41 61 -117 133 -141 133 -11 0 -32 16 -48 35 -17
22 -37 35 -51 35 -13 0 -31 9 -41 20 -10 11 -23 20 -28 20 -9 0 -87 78 -87 88
0 2 -11 13 -25 23 -13 11 -22 26 -19 33 3 8 -3 20 -14 27 -10 8 -21 32 -25 54
-5 31 -17 50 -53 83 -25 23 -54 42 -64 42 -33 0 -149 -73 -227 -144 -102 -93
-201 -156 -260 -167 -69 -13 -187 -61 -310 -126 -209 -110 -323 -163 -355
-163 -13 0 -61 -13 -107 -30 -47 -16 -89 -27 -93 -24 -23 14 -332 -179 -367
-230 -8 -11 -23 -28 -33 -38 -10 -10 -18 -20 -18 -22 0 -3 -21 -25 -47 -50
-35 -33 -56 -46 -78 -46 -16 0 -50 -12 -74 -25 -40 -23 -46 -24 -61 -10 -14
13 -26 13 -76 4 -32 -7 -66 -11 -74 -11 -20 1 -145 -27 -198 -44 -23 -8 -46
-13 -50 -12 -4 1 -27 -4 -52 -11 -24 -7 -69 -14 -100 -16 -63 -3 -158 -24
-244 -54 -56 -20 -96 -27 -96 -17 0 3 16 22 35 43 20 21 38 49 42 63 6 23 7
23 14 5 7 -19 8 -18 8 3 1 34 2 36 23 50 10 7 16 18 13 23 -4 5 1 9 11 9 9 0
22 7 28 15 6 8 22 17 35 20 13 2 24 6 25 7 6 11 62 85 71 93 13 13 82 45 97
45 16 0 102 42 109 53 4 5 13 6 20 2 8 -5 11 -5 7 0 -4 4 -3 14 3 21 14 17 4
45 -13 39 -14 -5 -46 11 -38 18 15 14 137 71 147 69 7 -2 13 2 13 8 0 6 24 10
58 10 31 0 68 3 82 7 23 6 21 8 -20 19 -41 11 -42 12 -15 14 17 1 36 2 43 1 6
-1 12 3 12 10 0 6 7 9 15 5 21 -8 115 15 115 28 0 6 5 4 10 -4 7 -11 10 -5 10
23 0 23 -4 36 -10 32 -5 -3 -10 -1 -10 4 0 6 8 11 18 11 16 0 72 41 72 53 0 2
-17 8 -37 13 -21 4 -31 9 -23 11 9 2 21 13 28 24 11 17 10 24 -6 47 -22 33
-42 98 -42 141 0 17 -2 31 -5 31 -3 0 -18 -13 -33 -29 -27 -29 -27 -29 -94
-19 -61 9 -70 8 -97 -11 -16 -12 -36 -21 -44 -21 -9 0 -18 -4 -21 -9 -10 -16
-104 -41 -155 -41 -32 0 -65 -8 -90 -21 -22 -11 -50 -19 -63 -18 -13 2 -29 0
-36 -4 -14 -9 -59 19 -94 61 -42 49 -55 56 -73 39 -8 -9 -15 -24 -15 -35 0
-24 -16 -38 -52 -47 -20 -5 -28 -15 -33 -41 -3 -19 -13 -38 -21 -41 -20 -7
-19 -83 1 -83 11 0 15 -11 15 -40 0 -29 -4 -40 -15 -40 -12 0 -15 -13 -15 -55
0 -30 -4 -55 -8 -55 -9 0 -52 -98 -52 -118 0 -7 14 -12 35 -12 34 0 35 -1 35
-40 0 -22 -4 -40 -9 -40 -5 0 -12 -36 -16 -80 -4 -44 -11 -80 -16 -80 -20 0
-69 -44 -69 -62 0 -10 -6 -18 -12 -18 -7 0 -21 -18 -31 -40 -10 -22 -25 -40
-33 -40 -8 0 -14 -6 -14 -14 0 -8 -17 -20 -37 -27 -48 -16 -132 -58 -115 -59
17 0 15 -20 -2 -20 -8 0 -16 -5 -18 -12 -5 -15 -110 -11 -120 5 -6 9 -8 9 -8
0 0 -19 -57 -16 -64 3 -3 9 -6 33 -6 54 0 44 -16 54 -54 35 -14 -8 -26 -11
-26 -7 0 3 -5 1 -12 -6 -7 -7 -19 -12 -28 -12 -30 0 -48 -32 -43 -75 4 -43 13
-61 13 -27 0 11 5 24 10 27 6 4 10 -5 10 -19 0 -14 5 -26 10 -26 6 0 10 6 9
13 -4 31 2 35 58 33 48 -1 58 -4 61 -20 2 -10 0 -16 -6 -12 -5 3 -12 -1 -16
-9 -3 -9 -18 -15 -37 -15 -24 0 -30 4 -25 15 3 8 1 15 -5 15 -6 0 -9 -10 -8
-22 1 -13 -2 -32 -6 -42 -8 -19 -9 -19 -16 0 -7 17 -8 17 -8 2 -1 -10 -9 -18
-18 -19 -10 0 -13 -3 -6 -5 7 -3 3 -14 -12 -30 -13 -14 -29 -23 -34 -19 -7 3
-11 -3 -11 -15 0 -21 -26 -65 -62 -104 -10 -11 -21 -36 -24 -55 -4 -20 -13
-51 -21 -69 -7 -18 -14 -55 -14 -82 -1 -28 -6 -50 -10 -50 -5 0 -9 -9 -9 -20
0 -11 -4 -20 -10 -20 -5 0 -7 -7 -4 -15 4 -10 13 -13 25 -10 13 4 19 1 19 -9
0 -9 6 -16 14 -16 27 0 26 -18 0 -49 -22 -26 -27 -44 -31 -112 -6 -88 1 -103
43 -93 15 4 29 -3 48 -23 14 -15 27 -33 27 -40 1 -7 3 -17 4 -23 1 -5 3 -14 4
-19 0 -5 22 -17 48 -26 162 -58 247 -85 315 -100 42 -9 82 -23 89 -31 6 -8 16
-14 22 -14 6 0 18 -6 26 -14 40 -36 225 -116 267 -116 9 0 14 11 14 30 0 28 2
30 27 24 49 -13 90 -54 115 -117 13 -32 31 -66 41 -75 10 -9 28 -28 40 -41 27
-29 77 -51 115 -51 16 0 35 -7 42 -15 7 -8 29 -15 49 -15 20 0 45 -7 55 -15
11 -8 41 -15 67 -15 39 0 52 -5 83 -35 25 -23 51 -37 77 -41 22 -4 46 -12 52
-18 7 -6 35 -23 64 -38 39 -21 60 -26 84 -21 28 5 31 4 26 -11 -4 -10 -5 -27
-1 -39 5 -21 12 -22 106 -24 87 -2 107 -6 144 -28 24 -14 58 -25 79 -25 41 0
147 -34 185 -59 51 -35 127 -69 190 -86 36 -9 84 -26 107 -36 103 -47 192 -78
220 -79 12 0 25 -5 29 -11 3 -6 15 -9 25 -6 10 3 21 2 24 -3 2 -4 42 -13 87
-20 68 -11 98 -22 173 -65 49 -29 113 -73 140 -98 55 -49 262 -197 277 -197 5
0 29 -9 53 -20 30 -13 54 -18 71 -14 21 5 25 4 19 -6 -5 -9 -4 -11 3 -6 33 20
332 -231 362 -305 l12 -29 210 0 c157 0 207 3 202 12 -5 8 -2 9 12 2 11 -5
2545 -10 6407 -12 l6387 -2 -1 1297 c-1 714 -4 1282 -8 1262 -4 -20 -17 -50
-29 -67 -32 -44 -167 -166 -232 -209 -30 -20 -66 -44 -80 -53 -41 -28 -194
-80 -233 -80 -19 0 -46 4 -59 9 -25 9 -90 3 -84 -8 4 -7 -18 -20 -84 -50 -14
-6 -61 -19 -105 -30 -44 -11 -111 -31 -150 -45 -70 -25 -242 -58 -302 -58 -18
0 -34 -3 -34 -6 -1 -4 -3 -37 -5 -74 -3 -59 0 -71 20 -95 13 -16 25 -37 27
-48 2 -11 28 -35 57 -54 49 -32 66 -61 43 -76 -24 -14 -41 -70 -35 -112 7 -54
-13 -105 -40 -101 -16 3 -20 13 -23 70 -3 56 -8 72 -28 92 -19 19 -24 32 -19
51 5 18 -1 34 -20 60 -15 19 -24 40 -21 45 3 6 -1 13 -9 16 -13 5 -16 20 -14
70 1 57 -1 67 -25 92 -15 16 -27 33 -27 40 0 6 -16 37 -35 69 -19 32 -35 64
-35 72 0 8 14 39 31 70 30 53 31 58 20 102 -7 25 -11 50 -9 55 1 5 -1 27 -5
50 -5 28 -14 44 -31 53 -24 13 -46 67 -46 115 0 18 -7 30 -24 38 -25 11 -40
39 -51 95 -3 17 -13 37 -21 44 -8 6 -14 17 -14 23 0 6 -11 32 -25 58 -30 57
-31 78 -5 85 25 7 25 24 0 65 -11 18 -20 40 -20 48 0 8 -20 37 -44 64 -24 27
-47 62 -50 78 -10 48 -36 96 -56 101 -13 3 -21 17 -25 43 -4 22 -12 49 -18 62
-8 18 -8 28 2 44 11 17 10 23 -2 35 -11 11 -12 25 -5 65 7 40 6 58 -6 82 -26
54 -48 146 -44 181 5 41 4 41 -24 16 -15 -15 -19 -27 -14 -46 4 -17 3 -24 -4
-20 -5 3 -10 2 -10 -4 0 -17 -112 -121 -130 -121 -9 0 -24 -8 -34 -19 -16 -17
-15 -19 5 -33 22 -14 22 -15 3 -36 -10 -11 -24 -27 -30 -34 -7 -7 -35 -32 -63
-56 -65 -55 -65 -66 0 -58 38 5 49 4 43 -5 -11 -19 -13 -92 -1 -110 8 -13 3
-25 -21 -55 -91 -113 -122 -154 -137 -183 -9 -18 -22 -34 -30 -37 -8 -3 -54
16 -102 44 -48 27 -108 56 -133 65 -49 18 -190 49 -230 52 -14 0 -36 5 -50 9
-14 5 -32 10 -40 10 -39 4 -156 51 -193 80 -23 17 -68 49 -101 70 -32 21 -80
58 -107 82 -27 24 -53 44 -57 44 -4 0 -43 32 -86 70 -43 39 -82 70 -87 70 -5
0 -24 24 -43 54 -19 29 -55 71 -80 92 -25 21 -46 43 -46 50 0 13 -56 74 -68
74 -4 0 -13 14 -19 31 -7 17 -17 28 -22 24 -6 -3 -16 6 -21 20 -5 14 -14 24
-19 21 -5 -3 -12 10 -16 30 -7 37 -56 95 -109 128 -15 10 -55 42 -87 72 -32
30 -65 54 -73 54 -7 0 -24 8 -37 18 -13 11 -37 22 -53 26 -34 8 -86 -10 -86
-30 0 -20 -57 -40 -120 -43 -30 -1 -60 -7 -67 -13 -8 -6 -35 -8 -64 -6 -37 4
-52 2 -56 -8 -3 -8 -15 -14 -27 -14 -12 0 -32 -10 -46 -22 -34 -31 -90 -51
-106 -37 -13 11 -57 -5 -86 -31 -9 -8 -23 -20 -30 -26 -7 -7 -31 -33 -53 -59
-22 -26 -59 -66 -82 -88 -24 -22 -40 -43 -38 -47 3 -4 -6 -11 -20 -14 -14 -4
-32 -17 -41 -31 -18 -27 -34 -25 -34 6 0 23 -15 25 -24 4 -3 -8 -15 -15 -26
-15 -12 0 -19 -4 -16 -9 13 -20 -43 -18 -96 4 -11 4 -18 3 -18 -4 0 -14 -47
-15 -55 -1 -4 7 -14 5 -27 -4 -17 -12 -26 -12 -59 -1 -21 8 -39 10 -39 5 0 -5
-14 -5 -32 1 -50 14 -43 5 24 -32 76 -40 232 -94 348 -118 110 -24 163 -49
227 -110 69 -65 126 -103 226 -153 45 -22 83 -40 84 -40 1 1 37 -18 80 -40 47
-25 127 -54 203 -74 69 -19 195 -59 280 -90 85 -31 171 -58 190 -60 19 -2 80
-9 135 -15 55 -6 127 -17 161 -25 35 -8 113 -14 188 -14 107 0 133 -3 166 -20
22 -11 85 -28 140 -37 l100 -18 0 -46 c0 -43 4 -51 65 -117 61 -65 77 -76 231
-152 183 -91 225 -120 217 -149 -4 -16 -1 -19 16 -14 26 7 27 -8 1 -24 -13 -9
-21 -9 -26 -2 -3 6 -16 8 -27 5 -20 -5 -117 40 -117 54 0 21 -90 90 -160 121
-14 7 -50 24 -80 39 -30 16 -104 49 -165 75 -60 25 -122 51 -137 58 -15 6 -24
15 -22 19 3 4 -2 8 -11 8 -10 0 -13 5 -9 12 4 7 3 8 -4 4 -6 -3 -28 3 -49 14
-21 11 -43 20 -50 20 -27 0 -11 -41 32 -81 24 -22 56 -62 71 -87 26 -45 71
-106 185 -252 28 -36 59 -81 69 -100 10 -19 39 -56 64 -83 50 -51 63 -77 19
-35 -16 14 -56 48 -90 76 -66 52 -126 116 -251 266 -103 125 -179 204 -200
208 -9 2 -17 10 -17 18 0 10 -27 24 -77 40 -42 14 -80 28 -84 32 -3 4 1 19 10
33 16 24 16 25 -4 25 -12 0 -20 7 -20 16 0 13 -12 15 -75 12 -53 -2 -76 1 -80
10 -2 6 -18 12 -35 12 -17 0 -29 4 -26 9 3 5 0 8 -7 8 -6 -1 -38 4 -69 11 -31
7 -76 14 -100 16 -103 7 -287 28 -332 38 -38 8 -50 8 -56 -3 -12 -19 -3 -29
26 -29 28 0 30 -7 8 -38 -14 -21 -14 -22 7 -22 21 0 119 -57 119 -70 0 -4 -47
-10 -104 -14 -106 -7 -146 -16 -246 -57 -30 -12 -95 -35 -145 -51 -112 -37
-179 -68 -266 -123 -84 -55 -144 -75 -219 -75 -62 0 -87 14 -45 24 14 4 62 30
107 59 99 64 160 97 248 134 57 24 145 81 218 143 13 11 27 20 30 20 4 0 13 9
19 19 7 10 39 38 72 61 65 46 75 64 39 76 -13 4 -39 17 -58 28 -19 12 -64 35
-100 51 -36 15 -83 39 -104 53 -22 14 -105 58 -185 99 -80 40 -150 79 -156 86
-5 7 -25 19 -42 26 -18 7 -33 17 -33 21 0 16 -199 95 -289 115 -19 4 -50 14
-70 23 -20 8 -52 17 -71 19 -19 2 -41 10 -50 18 -8 7 -27 17 -43 20 -15 4 -30
11 -33 16 -3 5 -14 9 -25 9 -10 0 -27 4 -37 9 -28 16 -123 43 -129 38 -2 -3
-32 11 -65 30 -51 30 -63 33 -82 24 -17 -10 -31 -7 -82 18 -93 45 -137 53
-289 56 -114 2 -153 7 -207 25 -37 13 -65 27 -62 31 3 5 -9 9 -26 9 -18 0 -29
4 -25 10 4 6 -14 10 -47 11 -42 1 -48 3 -28 9 30 10 14 12 -61 10 -48 -1 -59
2 -72 21 -10 14 -22 19 -32 15 -9 -3 -13 -2 -10 3 7 12 -34 41 -58 41 -10 0
-31 6 -45 14 -15 8 -52 22 -82 31 -77 23 -130 46 -125 55 7 11 -75 84 -112 99
-18 7 -30 17 -28 22 3 4 -2 14 -10 21 -9 7 -21 18 -28 24 -19 17 -67 40 -112
54 -22 7 -80 30 -130 52 -130 58 -308 93 -402 80z m-8143 -972 c0 -11 -2 -20
-5 -20 -2 0 -9 9 -15 20 -9 16 -8 20 5 20 8 0 15 -9 15 -20z m4053 -425 c-8
-22 -22 -18 -16 5 3 11 9 17 14 15 4 -3 6 -12 2 -20z m63 -17 c15 -29 7 -37
-14 -16 -7 7 -12 8 -12 3 0 -5 -6 0 -14 10 -16 23 -14 32 9 32 9 0 23 -13 31
-29z m-4806 -107 c0 -6 -4 -13 -10 -16 -5 -3 -10 1 -10 9 0 9 5 16 10 16 6 0
10 -4 10 -9z m204 -84 c-21 -12 -29 -2 -13 16 10 11 16 12 21 4 4 -7 0 -16 -8
-20z m11362 -284 c18 -16 34 -30 34 -33 0 -3 -28 -16 -62 -30 -35 -13 -89 -41
-120 -62 -31 -21 -63 -38 -70 -38 -8 0 -35 -13 -61 -30 -26 -16 -50 -30 -52
-30 -2 0 -24 -14 -48 -31 -31 -22 -56 -31 -83 -31 -22 0 -46 -4 -55 -9 -19
-10 -32 -1 -22 15 9 14 14 36 14 59 0 9 11 25 25 35 13 9 34 25 47 36 35 29
155 106 166 106 5 0 24 12 41 27 25 20 47 28 99 33 108 11 111 11 147 -17z
m-816 -578 c0 -8 -35 -55 -77 -105 -43 -49 -94 -109 -113 -134 -19 -24 -38
-41 -42 -39 -5 2 -8 -3 -8 -11 0 -9 -4 -16 -10 -16 -18 0 3 63 47 141 43 76
102 139 133 139 8 0 26 9 40 20 30 24 30 24 30 5z m5435 -280 c1 -21 31 -55
47 -55 10 0 18 -7 18 -16 0 -9 9 -18 19 -21 27 -7 36 -33 12 -33 -25 0 -33
-33 -14 -59 8 -12 29 -28 46 -36 40 -19 155 -92 174 -111 12 -12 12 -14 0 -14
-8 0 -20 6 -26 14 -6 8 -33 23 -59 35 -44 20 -131 78 -160 108 -7 7 -26 13
-41 13 -15 0 -36 6 -46 14 -11 8 -25 12 -31 9 -7 -2 -39 3 -72 13 l-60 18 23
18 c13 10 28 18 35 18 6 0 8 5 5 10 -3 6 -13 10 -21 10 -9 0 -21 6 -29 13 -10
11 -6 16 28 31 71 31 152 42 152 21z m-5946 -276 c-27 -34 -129 -95 -129 -77
0 15 40 58 55 58 6 0 26 11 45 25 46 34 58 31 29 -6z m-4889 -19 c0 -5 7 -10
15 -10 18 0 19 -12 3 -28 -21 -21 -38 -13 -38 18 0 17 5 30 10 30 6 0 10 -4
10 -10z m11068 -1085 c28 87 73 178 90 183 9 3 12 -17 12 -78 l0 -82 102 96
c67 63 105 93 112 86 6 -6 0 -40 -17 -97 -19 -61 -27 -110 -27 -160 0 -65 2
-73 26 -92 22 -17 41 -21 103 -21 42 0 101 7 131 15 72 19 75 12 4 -14 -40
-16 -80 -22 -135 -22 -78 0 -113 10 -136 40 -21 27 -15 150 10 240 13 44 21
81 17 81 -14 0 -195 -190 -202 -212 -3 -13 -9 -44 -13 -70 -4 -34 -11 -48 -22
-48 -12 0 -14 8 -11 35 2 19 1 35 -2 35 -16 0 -60 -60 -71 -98 -7 -23 -16 -42
-20 -42 -10 0 -1 448 9 500 4 21 9 -43 12 -155 l5 -190 23 70z"/>
<path d="M18427 533 c-22 -51 -56 -167 -51 -173 3 -2 20 12 39 30 30 32 34 42
39 108 3 39 2 72 -3 72 -4 0 -15 -17 -24 -37z"/>
<path d="M8883 4493 c3 -5 -14 -10 -39 -11 -59 -2 -75 -12 -185 -113 -225
-206 -257 -232 -243 -195 12 32 -165 -20 -256 -75 -59 -36 -189 -60 -310 -58
-52 0 -102 -2 -110 -5 -8 -3 -41 -10 -73 -15 -70 -13 -107 -30 -64 -31 15 0
27 -4 27 -9 0 -13 -84 -32 -177 -38 -62 -4 -83 -9 -79 -19 8 -20 -41 -32 -183
-44 -73 -6 -172 -20 -219 -31 -59 -14 -88 -17 -90 -10 -5 14 -79 15 -87 1 -3
-5 -36 -10 -73 -11 -37 0 -85 -4 -107 -8 l-40 -9 45 -3 c25 -2 56 -4 70 -5 14
-1 53 -3 88 -3 37 -1 62 -5 62 -12 0 -6 -9 -8 -22 -4 l-23 7 23 -17 c13 -10
57 -21 100 -26 132 -16 191 -29 228 -51 l35 -21 -20 -21 c-12 -12 -21 -25 -21
-27 0 -6 96 6 120 15 8 3 56 7 105 10 60 3 106 11 138 25 26 11 80 25 120 30
72 8 166 46 204 80 90 80 94 83 112 67 10 -9 28 -16 41 -16 13 0 46 -17 74
-38 28 -22 66 -46 83 -56 42 -21 211 -189 249 -245 16 -24 37 -55 47 -70 10
-15 15 -35 12 -48 -5 -23 43 -88 157 -210 27 -29 51 -66 54 -83 4 -16 24 -50
45 -74 21 -24 36 -46 33 -49 -5 -5 57 -19 144 -32 24 -4 128 -1 231 5 176 12
188 12 221 -6 28 -14 68 -19 190 -25 136 -6 167 -10 255 -39 55 -17 109 -37
120 -44 45 -28 79 -34 106 -17 14 9 49 30 77 46 48 28 72 55 37 41 -8 -3 -15
-1 -15 4 0 9 83 70 95 70 13 0 116 76 186 138 88 78 115 110 102 123 -4 4 -41
15 -81 24 -74 15 -171 60 -205 94 -6 6 -20 11 -31 11 -26 0 -106 30 -106 40 0
6 -35 23 -108 51 -13 5 -35 9 -50 10 -39 1 -86 20 -119 49 -15 14 -48 32 -73
39 -25 8 -49 18 -54 23 -6 4 -23 8 -38 8 -25 0 -33 9 -29 32 0 4 -10 10 -24
14 -26 6 -35 24 -12 24 6 0 3 6 -8 12 -11 6 -22 14 -25 17 -3 3 -51 29 -107
56 -71 35 -102 55 -102 68 -1 9 -12 23 -26 29 -33 15 -32 30 3 23 25 -6 25 -5
10 8 -22 17 -23 28 -4 21 19 -7 30 14 16 31 -7 8 -10 22 -6 30 3 9 -1 18 -9
21 -8 4 -15 14 -15 23 0 9 -11 25 -25 35 -14 10 -25 27 -25 37 0 10 -16 30
-35 45 -37 28 -61 61 -51 71 3 4 14 -1 25 -11 22 -20 79 -38 86 -27 7 12 -33
44 -88 72 -49 25 -164 144 -159 164 3 14 -74 97 -107 114 -13 7 -21 9 -18 4z
m-2056 -659 c-3 -3 -12 -4 -19 -1 -8 3 -5 6 6 6 11 1 17 -2 13 -5z"/>
<path d="M11870 4226 c0 -2 7 -7 16 -10 8 -3 12 -2 9 4 -6 10 -25 14 -25 6z"/>
<path d="M12238 4186 c-14 -14 -28 -30 -29 -35 -2 -6 -19 -11 -36 -13 -38 -3
-44 -15 -10 -22 54 -11 121 -15 108 -7 -10 7 -5 11 18 16 17 3 31 10 31 15 0
4 -21 2 -47 -6 -25 -8 -62 -13 -82 -13 -35 2 -35 2 9 10 84 14 103 21 88 30
-10 7 -10 9 0 9 7 0 10 5 7 10 -3 6 -1 10 5 10 6 0 8 5 5 10 -11 17 -39 11
-67 -14z"/>
<path d="M12377 4184 c-10 -13 -16 -24 -13 -24 2 0 13 -3 23 -6 15 -5 16 -4 3
5 -13 9 -13 12 -1 20 7 5 12 13 10 19 -2 6 -12 -1 -22 -14z"/>
<path d="M3600 4130 c0 -5 23 -10 50 -10 28 0 50 5 50 10 0 6 -22 10 -50 10
-27 0 -50 -4 -50 -10z"/>
<path d="M12345 4130 c3 -5 8 -10 11 -10 2 0 4 5 4 10 0 6 -5 10 -11 10 -5 0
-7 -4 -4 -10z"/>
<path d="M12310 4110 c8 -5 20 -10 25 -10 6 0 3 5 -5 10 -8 5 -19 10 -25 10
-5 0 -3 -5 5 -10z"/>
<path d="M185 4040 c3 -5 11 -10 16 -10 6 0 7 5 4 10 -3 6 -11 10 -16 10 -6 0
-7 -4 -4 -10z"/>
<path d="M18447 3533 c-4 -3 -7 -15 -7 -25 0 -10 -4 -18 -9 -18 -5 0 -12 -11
-15 -24 -9 -38 -95 -140 -156 -184 -29 -22 -115 -72 -190 -110 -379 -195 -411
-215 -439 -270 -11 -22 -27 -42 -36 -45 -8 -4 -15 -12 -15 -20 0 -7 -8 -29
-19 -50 -10 -20 -19 -54 -19 -74 0 -33 5 -42 37 -64 20 -14 47 -46 61 -71 l24
-46 -22 -19 c-21 -17 -21 -22 -12 -77 5 -33 18 -69 29 -80 10 -12 22 -43 26
-71 5 -27 9 -56 11 -63 1 -7 -4 -19 -12 -26 -14 -14 -19 -36 -9 -36 94 0 291
42 330 71 6 3 68 7 139 7 134 0 212 16 314 64 24 11 49 17 57 14 15 -5 90 35
195 103 30 20 66 42 80 49 43 22 54 35 83 95 31 64 47 156 28 158 -15 2 -23 4
-44 13 -9 5 -26 6 -36 3 -21 -5 -63 34 -82 76 -7 15 -15 25 -18 22 -4 -2 -13
11 -20 28 -7 18 -21 50 -31 72 -25 55 -57 161 -65 215 -4 25 -17 82 -30 128
-13 46 -22 89 -18 98 3 8 0 21 -6 28 -7 8 -11 20 -10 28 5 24 -34 88 -53 88
-10 0 -18 5 -18 10 0 11 -13 13 -23 3z"/>
<path d="M2517 3463 c-13 -12 -7 -23 13 -23 13 0 18 5 14 15 -7 16 -17 19 -27
8z"/>
<path d="M2563 3400 c0 -25 2 -35 4 -22 2 12 2 32 0 45 -2 12 -4 2 -4 -23z"/>
<path d="M2226 3221 c-4 -7 -5 -15 -2 -18 9 -9 19 4 14 18 -4 11 -6 11 -12 0z"/>
<path d="M6800 3196 c0 -2 7 -6 15 -10 8 -3 15 -1 15 4 0 6 -7 10 -15 10 -8 0
-15 -2 -15 -4z"/>
<path d="M2160 3075 c0 -24 2 -25 21 -13 12 7 31 19 43 25 19 12 17 13 -21 13
-39 0 -43 -2 -43 -25z"/>
<path d="M1835 3017 c-5 -12 -8 -42 -5 -67 l6 -45 8 57 c9 65 6 87 -9 55z"/>
<path d="M1865 3020 c-3 -11 -1 -36 7 -55 10 -30 14 -33 19 -18 14 34 10 93
-5 93 -8 0 -18 -9 -21 -20z"/>
<path d="M2248 2993 c7 -3 16 -2 19 1 4 3 -2 6 -13 5 -11 0 -14 -3 -6 -6z"/>
<path d="M19100 2852 c-15 -17 -20 -43 -9 -52 3 -3 11 -23 17 -45 9 -38 10
-36 11 38 1 42 0 77 -1 76 -2 0 -10 -8 -18 -17z"/>
</g>
</svg>
